<?xml version="1.0" standalone="no"?>
<!DOCTYPE svg PUBLIC "-//W3C//DTD SVG 20010904//EN"
 "http://www.w3.org/TR/2001/REC-SVG-20010904/DTD/svg10.dtd">
<svg version="1.0" xmlns="http://www.w3.org/2000/svg"
 width="128.000000pt" height="128.000000pt" viewBox="0 0 128.000000 128.000000"
 preserveAspectRatio="xMidYMid meet">

<g transform="translate(0.000000,128.000000) scale(0.100000,-0.100000)"
fill="#000000" stroke="none">
<path d="M573 1160 c-18 -10 -38 -29 -46 -42 -8 -13 -63 -166 -122 -340 -100
-294 -109 -318 -131 -318 -27 0 -32 -6 -64 -90 -24 -61 -28 -65 -66 -72 -49
-10 -106 -55 -128 -102 -17 -37 -21 -82 -7 -90 5 -3 44 3 86 14 73 19 112 20
557 20 530 0 521 -1 575 64 47 57 70 160 39 172 -7 3 -33 -9 -57 -26 -25 -17
-60 -33 -80 -36 l-36 -6 -22 63 c-28 77 -37 89 -66 89 -20 0 -29 24 -107 268
-47 147 -84 269 -82 271 1 1 59 -16 129 -39 123 -41 155 -45 155 -17 0 8 -51
64 -114 125 l-114 112 -134 0 c-114 0 -138 -3 -165 -20z m167 -760 c11 -11 20
-29 20 -40 0 -11 -9 -29 -20 -40 -17 -17 -33 -20 -100 -20 -67 0 -83 3 -100
20 -11 11 -20 29 -20 40 0 11 9 29 20 40 17 17 33 20 100 20 67 0 83 -3 100
-20z"/>
<path d="M560 360 c0 -18 7 -20 80 -20 73 0 80 2 80 20 0 18 -7 20 -80 20 -73
0 -80 -2 -80 -20z"/>
</g>
</svg>
