<svg id="svg" version="1.1" xmlns="http://www.w3.org/2000/svg" xmlns:xlink="http://www.w3.org/1999/xlink" width="400" height="400" viewBox="0, 0, 400,400"><g id="svgg"><path id="path0" d="M171.600 271.000 C 168.469 272.878,166.590 274.590,165.777 276.309 C 165.389 277.129,164.695 278.310,164.236 278.934 C 163.458 279.988,163.400 280.589,163.400 287.568 L 163.400 295.068 164.500 296.656 C 165.105 297.529,165.600 298.438,165.600 298.676 C 165.600 299.511,169.438 303.013,171.765 304.300 L 174.115 305.600 200.165 305.600 L 226.214 305.600 227.607 304.656 C 228.373 304.138,229.384 303.592,229.854 303.444 C 230.820 303.140,234.800 299.084,234.800 298.403 C 234.800 298.158,235.250 297.295,235.800 296.486 C 237.309 294.265,237.351 281.000,235.856 278.793 C 235.338 278.027,234.792 277.016,234.644 276.546 C 234.340 275.580,230.284 271.600,229.603 271.600 C 229.358 271.600,228.495 271.150,227.686 270.600 L 226.214 269.600 200.007 269.641 L 173.800 269.681 171.600 271.000 M222.501 281.428 C 224.613 282.148,225.600 284.113,225.600 287.600 C 225.600 294.488,225.928 294.400,200.306 294.400 C 175.102 294.400,175.614 294.493,174.735 289.752 C 173.897 285.229,175.104 282.094,178.000 281.270 C 180.563 280.542,220.313 280.683,222.501 281.428 " stroke="none" fill="#f7d100" fill-rule="evenodd"></path><path id="path1" d="M187.913 27.085 C 187.041 27.218,186.776 27.521,186.569 28.625 L 186.311 30.000 182.755 30.000 C 180.800 30.000,179.065 30.011,178.900 30.024 C 178.499 30.057,176.828 31.641,176.865 31.953 C 176.967 32.799,176.708 33.200,176.062 33.200 C 175.189 33.200,174.000 34.403,174.000 35.285 C 174.000 35.754,173.371 35.974,171.437 36.181 C 168.801 36.464,167.816 37.071,167.539 38.586 C 167.450 39.070,166.896 39.515,166.097 39.744 C 165.333 39.963,164.797 40.379,164.794 40.758 C 164.785 41.674,164.224 42.438,163.479 42.547 C 162.049 42.757,161.339 43.946,161.244 46.291 C 161.143 48.804,161.136 48.821,160.277 48.948 C 159.001 49.135,158.453 50.096,158.183 52.625 C 157.961 54.692,157.770 55.200,157.215 55.200 C 155.750 55.200,155.174 56.546,154.881 60.652 C 154.603 64.555,154.588 64.601,153.528 64.724 C 152.248 64.872,151.600 67.123,151.600 71.420 C 151.600 73.608,151.494 74.001,150.900 74.006 C 149.099 74.022,148.875 74.633,148.831 79.655 L 148.800 83.111 147.451 83.364 C 145.882 83.658,145.612 84.556,145.604 89.500 C 145.601 92.038,145.359 92.733,144.632 92.300 C 144.407 92.166,142.427 94.040,142.465 94.353 C 142.810 97.227,142.309 102.000,141.662 102.000 C 140.149 102.000,139.577 103.310,139.281 107.452 C 139.004 111.342,138.985 111.402,137.941 111.523 C 136.638 111.673,136.447 112.260,136.127 117.100 C 135.921 120.218,135.776 120.800,135.203 120.800 C 133.914 120.800,133.200 122.131,133.200 124.531 C 133.200 126.653,133.018 126.993,131.953 126.865 C 131.641 126.828,130.057 128.499,130.024 128.900 C 130.011 129.065,130.000 130.800,130.000 132.755 L 130.000 136.311 128.651 136.564 C 127.082 136.858,126.812 137.756,126.804 142.700 C 126.802 144.295,126.665 145.614,126.500 145.631 C 124.241 145.861,123.600 147.458,123.600 152.855 C 123.600 154.868,123.495 155.200,122.862 155.200 C 121.349 155.200,120.777 156.510,120.481 160.652 C 120.203 164.555,120.188 164.601,119.128 164.724 C 117.851 164.871,117.200 167.122,117.200 171.388 C 117.200 173.894,117.180 173.941,116.000 174.200 C 115.340 174.345,114.778 174.629,114.750 174.832 C 114.722 175.034,114.655 175.380,114.600 175.600 C 114.545 175.820,114.478 177.600,114.450 179.555 L 114.400 183.111 113.051 183.364 C 111.482 183.658,111.212 184.556,111.204 189.500 C 111.200 192.258,111.054 192.601,109.948 192.463 C 108.960 192.340,108.357 194.156,108.126 197.946 C 107.916 201.392,107.778 202.000,107.202 202.000 C 105.751 202.000,105.173 203.357,104.881 207.452 C 104.604 211.342,104.585 211.402,103.541 211.523 C 102.240 211.673,102.047 212.262,101.729 217.061 C 101.492 220.649,101.465 220.727,100.399 220.940 C 99.125 221.195,98.812 222.405,98.804 227.100 C 98.800 229.855,98.656 230.198,97.553 230.065 C 97.241 230.028,95.657 231.699,95.624 232.100 C 95.611 232.265,95.600 234.000,95.600 235.955 L 95.600 239.511 94.248 239.765 C 92.639 240.066,92.400 240.829,92.400 245.660 L 92.400 248.820 91.179 249.064 C 90.254 249.249,89.905 249.575,89.738 250.410 L 89.518 251.511 82.594 251.662 C 75.145 251.825,74.215 252.090,73.922 254.142 C 73.847 254.669,73.464 255.048,72.929 255.124 C 71.615 255.311,71.041 256.255,70.600 258.953 C 70.236 261.182,70.106 261.411,69.141 261.523 C 67.839 261.673,67.647 262.261,67.328 267.081 C 67.090 270.688,67.063 270.767,65.991 271.002 C 64.843 271.254,64.415 272.467,64.404 275.500 C 64.401 276.622,64.042 277.064,63.432 276.700 C 63.207 276.566,61.227 278.440,61.265 278.753 C 61.281 278.889,61.273 280.645,61.247 282.655 L 61.200 286.311 59.835 286.567 L 58.470 286.823 58.216 290.312 C 58.076 292.230,57.925 294.250,57.881 294.800 C 57.819 295.559,57.544 295.830,56.738 295.923 C 55.608 296.054,55.465 296.359,54.991 299.648 L 54.725 301.497 49.662 301.718 C 43.517 301.987,42.883 302.154,42.723 303.541 L 42.600 304.600 37.600 304.834 C 31.336 305.126,30.484 305.350,30.323 306.738 C 30.207 307.738,30.032 307.821,27.305 308.167 C 24.439 308.531,24.409 308.548,24.161 309.867 C 23.932 311.086,23.787 311.200,22.455 311.204 C 19.017 311.215,18.036 311.601,17.764 313.051 C 17.541 314.239,17.187 314.630,16.632 314.300 C 16.407 314.166,14.427 316.040,14.465 316.353 C 14.569 317.221,14.240 317.541,13.000 317.774 C 11.906 317.979,11.599 318.229,11.594 318.918 C 11.585 320.198,11.161 320.665,9.723 320.976 C 8.652 321.209,8.427 321.458,8.323 322.527 C 8.231 323.482,7.982 323.831,7.329 323.924 C 6.015 324.111,5.441 325.055,5.000 327.753 C 4.634 329.991,4.508 330.211,3.528 330.324 C 2.431 330.451,1.600 332.648,1.600 335.420 C 1.600 336.133,1.382 336.400,0.800 336.400 C 0.012 336.400,-0.000 336.667,-0.000 354.768 L -0.000 373.136 2.651 373.420 C 9.612 374.166,16.800 373.243,16.800 371.605 C 16.800 370.550,16.907 370.491,19.300 370.221 C 21.879 369.931,23.200 369.178,23.200 367.998 C 23.200 367.422,23.808 367.284,27.254 367.074 C 31.088 366.840,33.171 366.123,32.617 365.227 C 32.020 364.262,33.379 364.029,39.876 363.982 C 47.490 363.926,48.400 363.629,48.400 361.200 C 48.400 360.934,99.636 360.799,201.300 360.796 C 364.386 360.791,357.034 360.866,357.398 359.209 C 357.633 358.137,357.712 358.110,361.319 357.872 C 366.267 357.544,366.800 357.363,366.800 356.005 C 366.800 354.950,366.907 354.891,369.300 354.621 C 371.872 354.331,373.200 353.578,373.200 352.409 C 373.200 351.890,373.831 351.644,376.034 351.303 C 379.228 350.809,379.161 350.843,379.403 349.584 C 379.583 348.649,380.342 347.917,380.823 348.214 C 380.966 348.303,381.501 347.931,382.012 347.388 C 382.522 346.844,382.812 346.400,382.656 346.400 C 382.500 346.400,382.565 346.040,382.800 345.600 C 383.047 345.138,383.638 344.800,384.196 344.800 C 384.986 344.800,385.212 344.542,385.427 343.396 C 385.631 342.312,385.930 341.935,386.745 341.741 C 388.444 341.336,388.726 340.893,389.017 338.175 C 389.236 336.137,389.434 335.600,389.967 335.600 C 390.841 335.600,391.600 334.826,391.600 333.934 C 391.600 333.546,391.960 333.035,392.400 332.800 C 392.840 332.565,393.200 332.500,393.200 332.656 C 393.200 334.397,395.080 330.791,395.156 328.903 C 395.240 326.825,395.732 325.787,396.427 326.217 C 397.412 326.825,398.206 324.558,398.337 320.759 C 398.462 317.180,398.548 316.800,399.237 316.800 C 399.977 316.800,400.000 316.206,400.000 296.800 L 400.000 276.800 394.900 276.804 C 387.763 276.811,386.909 276.989,386.571 278.549 C 386.264 279.962,385.793 280.385,384.518 280.394 C 383.829 280.399,383.579 280.706,383.374 281.800 C 383.114 283.183,383.087 283.200,381.055 283.205 C 378.273 283.213,377.200 283.549,377.200 284.414 C 377.200 285.637,376.746 286.400,376.019 286.400 C 375.185 286.400,374.000 287.620,374.000 288.480 C 374.000 288.940,373.364 289.168,371.500 289.379 C 368.879 289.674,367.600 290.423,367.600 291.662 C 367.600 292.313,364.302 292.818,363.432 292.300 C 363.207 292.166,361.227 294.040,361.265 294.353 C 361.379 295.301,361.052 295.601,359.900 295.604 C 356.621 295.616,355.633 296.018,355.364 297.451 L 355.111 298.800 351.555 298.800 C 349.600 298.800,347.938 298.755,347.861 298.700 C 347.557 298.480,346.295 299.825,345.947 300.739 C 345.442 302.067,345.264 301.744,345.153 299.293 C 345.067 297.416,343.709 295.058,342.968 295.500 C 342.287 295.906,342.073 295.110,341.934 291.647 C 341.771 287.573,341.340 286.400,340.010 286.400 C 339.421 286.400,339.281 285.847,339.073 282.700 C 338.753 277.860,338.562 277.273,337.259 277.123 C 336.294 277.011,336.164 276.782,335.800 274.553 C 335.364 271.885,334.714 270.800,333.551 270.800 C 332.891 270.800,332.385 266.064,332.735 263.153 C 332.772 262.841,331.101 261.257,330.700 261.224 C 330.535 261.211,330.220 261.200,330.000 261.200 C 329.780 261.200,329.598 260.615,329.596 259.900 C 329.585 256.726,329.173 255.658,327.851 255.371 C 326.443 255.065,326.015 254.593,326.006 253.333 C 325.997 252.092,323.264 251.600,316.380 251.600 L 310.800 251.600 310.753 249.700 C 310.727 248.655,310.719 247.689,310.735 247.553 C 310.779 247.186,308.779 245.382,308.468 245.508 C 308.320 245.568,308.073 243.881,307.919 241.760 C 307.627 237.760,307.038 236.400,305.597 236.400 C 305.024 236.400,304.879 235.818,304.673 232.700 C 304.353 227.860,304.162 227.273,302.859 227.123 C 301.815 227.002,301.796 226.942,301.519 223.052 C 301.223 218.910,300.651 217.600,299.138 217.600 C 298.475 217.600,298.400 217.233,298.400 214.000 C 298.400 212.020,298.387 210.265,298.371 210.100 C 298.305 209.403,297.009 208.400,296.175 208.400 C 295.311 208.400,295.269 208.240,295.137 204.441 C 295.007 200.672,294.349 198.726,293.252 198.863 C 292.121 199.004,292.000 198.662,291.994 195.300 C 291.988 191.475,291.458 189.869,290.141 189.679 C 289.352 189.565,289.290 189.251,289.083 184.279 C 288.819 177.920,288.657 177.284,287.259 177.123 C 286.215 177.002,286.196 176.942,285.919 173.052 C 285.623 168.910,285.051 167.600,283.538 167.600 C 282.875 167.600,282.800 167.233,282.800 164.000 C 282.800 162.020,282.787 160.265,282.771 160.100 C 282.705 159.403,281.409 158.400,280.575 158.400 C 279.711 158.400,279.669 158.240,279.537 154.441 C 279.407 150.672,278.749 148.726,277.652 148.863 C 276.533 149.003,276.400 148.661,276.400 145.650 C 276.400 141.024,276.139 140.094,274.754 139.790 C 273.629 139.543,273.600 139.472,273.600 136.988 C 273.600 132.722,272.949 130.471,271.672 130.324 C 270.612 130.201,270.597 130.155,270.319 126.252 C 270.027 122.153,269.450 120.800,267.994 120.800 C 267.393 120.800,267.288 120.132,267.111 115.207 C 266.898 109.288,266.621 108.400,264.989 108.400 C 264.108 108.400,264.070 108.257,263.937 104.441 C 263.807 100.672,263.149 98.726,262.052 98.863 C 260.919 99.005,260.800 98.665,260.806 95.300 C 260.810 93.016,260.940 92.002,261.180 92.381 C 261.382 92.700,261.475 93.079,261.386 93.223 C 261.213 93.502,263.150 95.468,263.432 95.300 C 263.525 95.245,265.200 95.200,267.155 95.200 L 270.711 95.200 270.964 96.549 C 271.258 98.118,272.156 98.388,277.100 98.396 C 278.730 98.398,280.022 98.575,280.050 98.800 C 280.078 99.020,280.145 99.380,280.200 99.600 C 280.255 99.820,280.322 100.165,280.350 100.367 C 280.425 100.920,284.105 101.600,287.020 101.600 C 289.261 101.600,289.600 101.697,289.600 102.338 C 289.600 103.851,290.910 104.423,295.052 104.719 C 298.949 104.996,299.002 105.014,299.123 106.066 C 299.283 107.445,299.814 107.625,304.500 107.893 C 307.816 108.083,308.400 108.218,308.400 108.796 C 308.400 109.452,309.485 110.713,310.100 110.771 C 310.265 110.787,312.000 110.800,313.955 110.800 L 317.511 110.800 317.764 112.149 C 318.058 113.718,318.956 113.988,323.900 113.996 C 326.658 114.000,327.001 114.146,326.863 115.252 C 326.628 117.136,342.375 118.032,344.348 116.247 C 344.806 115.832,345.094 115.352,344.987 115.179 C 344.735 114.772,345.968 113.533,346.374 113.784 C 346.544 113.889,347.063 113.571,347.527 113.078 C 349.320 111.169,348.280 97.838,346.427 98.983 C 345.997 99.249,345.155 98.572,345.053 97.879 C 344.938 97.098,343.595 95.556,343.227 95.783 C 342.501 96.232,341.737 95.045,341.631 93.300 C 341.614 93.025,341.255 92.800,340.833 92.800 C 339.565 92.800,338.800 92.355,338.800 91.619 C 338.800 90.782,337.699 89.737,336.605 89.537 C 336.167 89.456,335.744 89.033,335.663 88.595 C 335.463 87.501,334.418 86.400,333.581 86.400 C 332.848 86.400,332.400 85.635,332.400 84.385 C 332.400 83.846,332.008 83.563,331.000 83.374 C 330.230 83.229,329.600 82.951,329.600 82.755 C 329.600 81.940,329.514 81.760,328.718 80.912 C 328.259 80.424,327.744 80.111,327.574 80.216 C 327.168 80.467,325.935 79.228,326.187 78.821 C 326.442 78.408,325.236 77.367,324.100 77.020 C 323.605 76.870,323.200 76.426,323.200 76.035 C 323.200 75.184,322.107 74.139,321.005 73.937 C 320.567 73.856,320.144 73.433,320.063 72.995 C 319.859 71.883,318.874 70.867,317.858 70.722 C 317.217 70.631,316.969 70.275,316.876 69.314 C 316.768 68.199,316.567 67.993,315.376 67.769 C 314.619 67.627,314.000 67.351,314.000 67.155 C 314.000 66.340,313.914 66.160,313.118 65.312 C 312.659 64.824,312.144 64.511,311.974 64.616 C 311.571 64.865,310.335 63.629,310.584 63.226 C 310.777 62.914,308.880 60.914,308.568 61.100 C 308.011 61.432,307.658 61.036,307.431 59.824 C 307.208 58.634,307.000 58.432,305.890 58.324 C 304.977 58.236,304.565 57.969,304.462 57.400 C 304.261 56.287,303.277 55.268,302.262 55.122 C 301.781 55.053,301.345 54.651,301.263 54.200 C 301.062 53.095,300.018 52.000,299.165 52.000 C 298.774 52.000,298.330 51.595,298.180 51.100 C 297.852 50.024,296.800 48.753,296.427 48.983 C 295.997 49.249,295.155 48.572,295.053 47.879 C 294.938 47.098,293.595 45.556,293.227 45.783 C 292.501 46.232,291.737 45.045,291.631 43.300 C 291.614 43.025,291.255 42.800,290.833 42.800 C 289.565 42.800,288.800 42.355,288.800 41.619 C 288.800 40.782,287.699 39.737,286.605 39.537 C 286.167 39.456,285.744 39.033,285.663 38.595 C 285.463 37.501,284.418 36.400,283.581 36.400 C 282.848 36.400,282.400 35.635,282.400 34.385 C 282.400 33.846,282.008 33.563,281.000 33.374 C 279.767 33.142,279.367 32.791,279.700 32.232 C 279.834 32.007,277.960 30.027,277.647 30.065 C 274.761 30.412,273.281 29.958,273.036 28.651 C 272.814 27.469,272.599 27.271,271.291 27.055 C 269.666 26.787,189.687 26.815,187.913 27.085 M261.934 42.239 C 262.435 42.590,263.944 43.308,265.286 43.834 C 266.628 44.360,268.029 45.064,268.400 45.400 C 268.771 45.736,270.192 46.448,271.557 46.983 C 274.521 48.145,275.658 49.030,280.505 53.953 C 282.537 56.017,284.628 58.087,285.151 58.553 C 286.407 59.671,290.378 63.646,291.441 64.849 C 291.904 65.372,294.019 67.463,296.141 69.495 C 298.263 71.527,300.000 73.375,300.000 73.601 C 300.000 73.827,300.537 74.339,301.194 74.738 C 302.305 75.413,304.341 77.790,305.494 79.757 C 305.766 80.221,305.991 81.901,305.994 83.491 L 306.000 86.381 303.964 87.991 C 301.645 89.824,301.683 89.813,300.492 88.980 C 299.202 88.076,295.279 86.800,293.791 86.800 C 293.085 86.800,292.041 86.433,291.471 85.984 C 290.194 84.980,286.283 83.600,284.712 83.600 C 284.073 83.600,282.418 83.054,281.034 82.387 C 279.650 81.719,277.367 80.969,275.959 80.720 C 274.552 80.470,273.100 80.011,272.733 79.701 C 269.896 77.298,248.981 75.960,243.492 77.830 C 239.560 79.170,238.782 87.357,242.185 91.600 C 242.449 91.930,242.863 93.315,243.104 94.678 C 243.492 96.867,244.426 99.363,245.546 101.200 C 245.747 101.530,246.111 102.880,246.355 104.200 C 246.599 105.520,247.259 107.500,247.822 108.600 C 248.385 109.700,249.186 112.197,249.601 114.148 C 250.046 116.234,250.778 118.332,251.379 119.239 C 251.961 120.119,252.400 121.356,252.400 122.116 C 252.400 123.545,253.913 127.770,254.961 129.266 C 255.313 129.768,255.600 130.740,255.600 131.426 C 255.600 132.730,256.666 136.141,257.716 138.200 C 258.052 138.860,258.521 140.480,258.757 141.800 C 258.993 143.120,259.729 145.260,260.393 146.556 C 261.317 148.360,261.600 149.444,261.600 151.184 C 261.600 153.767,262.480 157.141,263.691 159.200 C 264.143 159.970,264.749 161.816,265.037 163.301 C 265.325 164.787,266.109 167.153,266.780 168.559 C 267.451 169.964,268.000 171.640,268.000 172.281 C 268.000 173.575,269.566 177.845,270.561 179.266 C 270.913 179.768,271.200 180.740,271.200 181.426 C 271.200 182.978,272.513 186.867,273.526 188.315 C 273.944 188.913,274.402 190.477,274.547 191.800 C 274.700 193.201,275.304 195.199,275.997 196.600 C 277.661 199.961,278.312 205.142,277.672 209.945 C 276.211 220.919,277.311 227.175,280.935 228.503 C 283.968 229.614,286.642 232.105,287.427 234.549 C 287.789 235.677,288.516 237.271,289.043 238.091 C 289.569 238.912,290.000 240.092,290.000 240.714 C 290.000 242.028,291.472 246.636,292.261 247.789 C 293.850 250.114,291.835 254.873,288.339 257.050 L 286.200 258.382 273.473 258.391 L 260.747 258.400 259.273 257.315 C 258.463 256.718,256.435 254.828,254.767 253.115 C 253.085 251.387,251.393 249.997,250.967 249.993 C 250.545 249.990,249.480 249.543,248.600 249.000 C 247.720 248.457,246.190 247.605,245.200 247.107 L 243.400 246.200 200.669 246.095 C 154.176 245.980,155.986 245.901,153.000 248.170 C 152.340 248.671,151.080 249.325,150.200 249.623 C 149.174 249.971,147.596 251.175,145.800 252.982 C 144.260 254.532,142.191 256.385,141.201 257.100 L 139.403 258.400 126.709 258.400 L 114.016 258.400 111.850 257.015 C 108.513 254.880,106.263 249.522,107.973 247.780 C 108.545 247.198,110.400 241.397,110.400 240.193 C 110.400 239.606,110.751 238.680,111.180 238.135 C 111.609 237.589,112.234 236.201,112.569 235.049 C 112.983 233.622,113.806 232.261,115.148 230.777 L 117.119 228.600 121.460 228.583 C 128.299 228.557,129.200 227.446,129.200 219.038 C 129.200 213.014,128.633 211.043,126.380 209.232 C 125.511 208.534,124.800 207.783,124.800 207.565 C 124.800 207.346,124.422 206.657,123.960 206.032 L 123.121 204.896 123.921 203.348 C 124.846 201.559,125.445 199.668,125.806 197.400 C 125.947 196.520,126.589 194.720,127.235 193.400 C 127.880 192.080,128.606 189.920,128.849 188.600 C 129.091 187.280,129.453 185.930,129.654 185.600 C 130.786 183.743,131.704 181.264,132.174 178.796 C 132.467 177.259,132.968 175.597,133.288 175.101 C 134.178 173.723,135.200 170.415,135.200 168.913 C 135.200 168.173,135.557 167.080,135.993 166.484 C 136.997 165.111,138.400 161.041,138.400 159.499 C 138.400 158.853,138.767 157.808,139.216 157.177 C 140.282 155.681,141.600 151.819,141.600 150.194 C 141.600 149.489,142.143 147.852,142.807 146.556 C 143.471 145.260,144.211 143.120,144.451 141.800 C 144.692 140.480,145.052 139.130,145.252 138.800 C 146.137 137.341,146.887 135.335,147.471 132.864 C 147.818 131.399,148.511 129.300,149.012 128.200 C 150.254 125.470,150.800 123.589,150.800 122.033 C 150.800 121.313,151.167 120.208,151.616 119.577 C 152.614 118.176,154.001 114.252,153.998 112.837 C 153.997 112.267,154.647 110.516,155.442 108.948 C 156.259 107.334,156.975 105.249,157.089 104.148 C 157.201 103.076,157.813 101.120,158.451 99.800 C 159.089 98.480,159.822 96.230,160.079 94.800 C 160.337 93.370,160.880 91.764,161.285 91.231 C 161.691 90.699,162.224 89.467,162.469 88.493 C 162.714 87.520,163.520 85.843,164.261 84.766 C 165.871 82.425,166.800 79.134,166.800 75.770 C 166.800 73.893,166.995 73.060,167.621 72.265 C 168.072 71.691,168.730 70.362,169.083 69.311 C 169.436 68.260,170.046 66.985,170.437 66.478 C 170.829 65.971,171.528 64.417,171.992 63.025 C 172.455 61.632,173.180 60.180,173.603 59.797 C 174.026 59.415,174.642 58.179,174.972 57.051 C 175.568 55.014,178.291 50.936,179.525 50.233 C 179.879 50.031,180.920 49.293,181.837 48.592 C 182.755 47.892,184.306 47.117,185.284 46.871 C 186.263 46.625,187.527 46.058,188.095 45.612 C 188.662 45.165,189.574 44.800,190.121 44.800 C 191.567 44.800,196.004 43.342,197.400 42.408 C 199.075 41.287,260.346 41.126,261.934 42.239 M153.889 210.302 C 151.238 213.231,151.301 224.958,153.981 227.383 C 155.555 228.807,158.461 228.078,159.499 226.000 C 160.747 223.500,160.682 213.965,159.400 211.400 C 158.438 209.475,155.218 208.834,153.889 210.302 M185.089 210.302 C 182.438 213.231,182.501 224.958,185.181 227.383 C 186.403 228.489,189.513 228.077,190.560 226.671 C 191.841 224.948,191.841 212.651,190.560 210.929 C 189.474 209.471,186.182 209.094,185.089 210.302 M216.454 210.135 C 214.556 212.422,214.079 222.665,215.716 226.000 C 216.736 228.078,219.643 228.809,221.219 227.383 C 223.888 224.967,223.963 213.232,221.327 210.320 C 220.535 209.444,217.135 209.315,216.454 210.135 M247.654 210.135 C 245.756 212.422,245.279 222.665,246.916 226.000 C 247.936 228.078,250.843 228.809,252.419 227.383 C 255.088 224.967,255.163 213.232,252.527 210.320 C 251.735 209.444,248.335 209.315,247.654 210.135 M240.807 252.144 C 241.573 252.662,242.650 253.220,243.200 253.383 C 247.451 254.639,251.361 258.556,253.000 263.201 C 253.321 264.109,253.947 265.364,254.392 265.988 C 255.655 267.762,255.655 307.438,254.392 309.212 C 253.947 309.836,253.321 311.091,253.000 311.999 C 251.361 316.644,247.451 320.561,243.200 321.817 C 242.650 321.980,241.573 322.538,240.807 323.056 L 239.414 324.000 200.099 324.000 L 160.783 324.000 159.291 323.014 C 158.471 322.471,157.170 321.809,156.400 321.542 C 152.210 320.089,149.011 316.747,147.222 311.954 C 146.760 310.719,146.027 309.386,145.592 308.992 C 144.822 308.296,144.800 307.695,144.800 287.600 C 144.800 267.505,144.822 266.904,145.592 266.208 C 146.027 265.814,146.760 264.481,147.222 263.246 C 149.015 258.440,152.302 255.019,156.432 253.655 C 157.202 253.401,158.455 252.754,159.216 252.216 L 160.600 251.239 200.007 251.220 L 239.414 251.200 240.807 252.144 M135.001 268.103 C 136.114 268.832,137.568 270.286,138.297 271.399 L 139.600 273.391 139.600 287.600 L 139.600 301.809 138.297 303.801 C 137.568 304.914,136.114 306.368,135.001 307.097 L 133.009 308.400 104.660 308.400 L 76.311 308.400 74.317 306.731 L 72.324 305.062 72.462 301.763 C 72.578 298.995,72.746 298.308,73.510 297.495 C 74.451 296.494,76.000 291.801,76.000 289.950 C 76.000 289.371,76.269 288.675,76.597 288.402 C 77.242 287.867,79.200 282.092,79.200 280.727 C 79.200 280.269,79.546 279.333,79.969 278.647 C 80.393 277.961,81.115 276.410,81.575 275.200 C 82.721 272.187,84.843 269.426,87.106 268.005 L 89.000 266.815 111.005 266.808 L 133.009 266.800 135.001 268.103 M313.292 268.149 C 315.641 269.652,317.528 272.245,318.993 275.982 C 319.504 277.287,320.210 278.765,320.561 279.266 C 320.913 279.768,321.200 280.740,321.200 281.426 C 321.200 283.024,322.527 286.893,323.584 288.377 C 324.033 289.008,324.404 290.036,324.410 290.662 C 324.428 292.814,325.234 295.403,326.394 297.034 C 328.539 300.053,328.382 305.135,326.096 306.630 C 325.493 307.024,324.762 307.584,324.471 307.873 C 324.044 308.299,318.501 308.400,295.579 308.400 L 267.216 308.400 265.011 306.989 C 263.584 306.077,262.524 305.027,262.008 304.017 C 261.570 303.157,261.029 302.341,260.806 302.204 C 260.544 302.042,260.400 296.872,260.400 287.600 C 260.400 278.328,260.544 273.158,260.806 272.996 C 261.029 272.859,261.570 272.042,262.009 271.183 C 262.502 270.216,263.607 269.092,264.903 268.239 L 267.000 266.858 289.092 266.829 L 311.184 266.800 313.292 268.149 M381.748 305.300 C 384.289 306.930,384.944 312.786,382.894 315.558 C 382.403 316.222,381.635 317.747,381.186 318.946 C 380.737 320.146,380.125 321.331,379.825 321.579 C 379.525 321.828,378.874 323.059,378.377 324.316 C 377.433 326.704,375.699 329.392,374.000 331.101 C 370.790 334.330,367.459 336.808,365.246 337.615 C 363.923 338.098,362.540 338.824,362.174 339.229 C 361.807 339.634,360.313 340.357,358.854 340.835 C 357.394 341.312,355.916 341.950,355.569 342.252 C 355.221 342.553,354.489 342.800,353.941 342.800 C 352.436 342.800,348.777 343.958,347.200 344.934 L 345.800 345.800 195.400 346.000 L 45.000 346.200 42.736 347.115 C 41.491 347.618,40.254 348.293,39.987 348.615 C 39.621 349.057,38.512 349.201,35.451 349.206 C 31.012 349.212,26.960 349.989,24.980 351.212 C 19.090 354.853,13.238 346.851,17.378 340.818 C 17.913 340.038,18.720 338.410,19.172 337.200 C 20.540 333.531,27.943 326.271,31.400 325.207 C 32.280 324.936,33.633 324.288,34.406 323.768 C 35.179 323.247,36.852 322.464,38.123 322.027 C 39.394 321.589,40.900 320.864,41.471 320.416 C 42.041 319.967,43.085 319.600,43.791 319.600 C 45.279 319.600,49.202 318.324,50.492 317.420 C 51.280 316.869,56.271 316.800,95.390 316.800 L 139.403 316.800 141.201 318.101 C 142.191 318.817,144.170 320.601,145.600 322.067 C 147.247 323.754,148.860 324.990,150.000 325.438 C 150.990 325.826,152.340 326.547,153.000 327.041 C 155.979 329.268,154.224 329.188,200.050 329.194 C 246.115 329.201,243.863 329.308,247.278 326.944 C 248.091 326.382,249.519 325.659,250.452 325.337 C 251.599 324.942,253.060 323.820,254.973 321.863 C 256.528 320.274,258.463 318.484,259.273 317.887 L 260.747 316.800 305.553 316.800 L 350.359 316.800 353.533 315.797 C 355.278 315.246,356.929 314.526,357.202 314.197 C 357.475 313.869,358.088 313.600,358.565 313.600 C 360.471 313.600,364.310 312.283,366.203 310.979 C 367.305 310.221,368.385 309.600,368.603 309.600 C 368.967 309.600,374.648 306.947,378.000 305.212 C 379.866 304.246,380.113 304.251,381.748 305.300 " stroke="none" fill="#57007f" fill-rule="evenodd"></path><path id="path2" d="M186.414 27.574 C 186.186 27.999,186.019 28.764,186.041 29.274 C 186.071 29.936,186.194 29.780,186.476 28.723 C 186.784 27.563,187.097 27.212,187.934 27.083 L 189.000 26.920 187.914 26.860 C 187.207 26.821,186.684 27.070,186.414 27.574 M271.666 27.083 C 272.503 27.212,272.816 27.563,273.124 28.723 C 273.406 29.780,273.529 29.936,273.559 29.274 C 273.627 27.743,272.890 26.793,271.686 26.860 L 270.600 26.920 271.666 27.083 M176.938 30.617 C 176.566 31.588,177.002 31.682,177.798 30.802 C 178.460 30.070,178.465 30.000,177.849 30.000 C 177.478 30.000,177.068 30.278,176.938 30.617 M278.602 30.802 C 279.398 31.682,279.834 31.588,279.462 30.617 C 279.332 30.278,278.922 30.000,278.551 30.000 C 277.935 30.000,277.940 30.070,278.602 30.802 M173.769 34.183 C 173.633 34.723,173.615 35.398,173.729 35.683 C 173.852 35.988,173.950 35.884,173.968 35.431 C 173.986 35.009,174.298 34.334,174.662 33.931 C 175.272 33.257,175.273 33.200,174.670 33.200 C 174.308 33.200,173.905 33.640,173.769 34.183 M281.676 33.448 C 282.048 33.559,282.429 34.090,282.525 34.630 C 282.676 35.487,282.691 35.472,282.649 34.508 C 282.614 33.720,282.373 33.384,281.800 33.326 C 281.223 33.268,281.188 33.302,281.676 33.448 M167.829 36.629 C 167.483 36.974,167.200 37.657,167.200 38.146 C 167.200 38.803,166.862 39.134,165.900 39.417 C 164.958 39.695,164.585 40.049,164.547 40.706 C 164.509 41.354,164.543 41.398,164.668 40.858 C 164.767 40.427,165.389 39.947,166.121 39.738 C 166.967 39.497,167.441 39.087,167.522 38.528 C 167.688 37.388,168.747 36.504,170.200 36.293 C 171.306 36.133,171.285 36.115,169.929 36.060 C 169.055 36.024,168.202 36.255,167.829 36.629 M283.458 36.277 C 284.490 36.479,285.464 37.505,285.663 38.600 C 285.745 39.051,286.181 39.453,286.662 39.522 C 287.654 39.664,288.634 40.656,288.912 41.800 C 289.064 42.422,289.118 42.361,289.154 41.529 C 289.211 40.210,288.265 39.200,286.971 39.200 C 286.210 39.200,286.000 38.990,286.000 38.229 C 286.000 36.933,284.988 35.988,283.671 36.054 C 282.792 36.099,282.754 36.139,283.458 36.277 M197.400 42.408 C 196.004 43.342,191.567 44.800,190.121 44.800 C 189.574 44.800,188.662 45.165,188.095 45.612 C 187.527 46.058,186.263 46.625,185.284 46.871 C 184.306 47.117,182.755 47.892,181.837 48.592 C 180.920 49.293,179.879 50.031,179.525 50.233 C 178.291 50.936,175.568 55.014,174.972 57.051 C 174.642 58.179,174.026 59.415,173.603 59.797 C 173.180 60.180,172.455 61.632,171.992 63.025 C 171.528 64.417,170.829 65.971,170.437 66.478 C 170.046 66.985,169.436 68.260,169.083 69.311 C 168.730 70.362,168.072 71.691,167.621 72.265 C 166.995 73.060,166.800 73.893,166.800 75.770 C 166.800 79.134,165.871 82.425,164.261 84.766 C 163.520 85.843,162.714 87.520,162.469 88.493 C 162.224 89.467,161.691 90.699,161.285 91.231 C 160.880 91.764,160.337 93.370,160.079 94.800 C 159.822 96.230,159.089 98.480,158.451 99.800 C 157.813 101.120,157.201 103.076,157.089 104.148 C 156.975 105.249,156.259 107.334,155.442 108.948 C 154.647 110.516,153.997 112.267,153.998 112.837 C 154.001 114.252,152.614 118.176,151.616 119.577 C 151.167 120.208,150.800 121.313,150.800 122.033 C 150.800 123.589,150.254 125.470,149.012 128.200 C 148.511 129.300,147.818 131.399,147.471 132.864 C 146.887 135.335,146.137 137.341,145.252 138.800 C 145.052 139.130,144.692 140.480,144.451 141.800 C 144.211 143.120,143.471 145.260,142.807 146.556 C 142.143 147.852,141.600 149.489,141.600 150.194 C 141.600 151.819,140.282 155.681,139.216 157.177 C 138.767 157.808,138.400 158.853,138.400 159.499 C 138.400 161.041,136.997 165.111,135.993 166.484 C 135.557 167.080,135.200 168.173,135.200 168.913 C 135.200 170.415,134.178 173.723,133.288 175.101 C 132.968 175.597,132.467 177.259,132.174 178.796 C 131.704 181.264,130.786 183.743,129.654 185.600 C 129.453 185.930,129.091 187.280,128.849 188.600 C 128.606 189.920,127.880 192.080,127.235 193.400 C 126.589 194.720,125.947 196.520,125.806 197.400 C 125.445 199.668,124.846 201.559,123.921 203.348 L 123.121 204.896 123.960 206.032 C 124.422 206.657,124.800 207.346,124.800 207.565 C 124.800 207.783,125.511 208.534,126.380 209.232 C 128.633 211.043,129.200 213.014,129.200 219.038 C 129.200 227.446,128.299 228.557,121.460 228.583 L 117.119 228.600 115.148 230.777 C 113.806 232.261,112.983 233.622,112.569 235.049 C 112.234 236.201,111.609 237.589,111.180 238.135 C 110.751 238.680,110.400 239.606,110.400 240.193 C 110.400 241.397,108.545 247.198,107.973 247.780 C 106.263 249.522,108.513 254.880,111.850 257.015 L 114.016 258.400 126.709 258.400 L 139.403 258.400 141.201 257.100 C 142.191 256.385,144.260 254.532,145.800 252.982 C 147.596 251.175,149.174 249.971,150.200 249.623 C 151.080 249.325,152.340 248.671,153.000 248.170 C 155.986 245.901,154.176 245.980,200.669 246.095 L 243.400 246.200 245.200 247.107 C 246.190 247.605,247.720 248.457,248.600 249.000 C 249.480 249.543,250.545 249.990,250.967 249.993 C 251.393 249.997,253.085 251.387,254.767 253.115 C 256.435 254.828,258.463 256.718,259.273 257.315 L 260.747 258.400 273.473 258.391 L 286.200 258.382 288.339 257.050 C 291.835 254.873,293.850 250.114,292.261 247.789 C 291.472 246.636,290.000 242.028,290.000 240.714 C 290.000 240.092,289.569 238.912,289.043 238.091 C 288.516 237.271,287.789 235.677,287.427 234.549 C 286.642 232.105,283.968 229.614,280.935 228.503 C 277.311 227.175,276.211 220.919,277.672 209.945 C 278.312 205.142,277.661 199.961,275.997 196.600 C 275.304 195.199,274.700 193.201,274.547 191.800 C 274.402 190.477,273.944 188.913,273.526 188.315 C 272.513 186.867,271.200 182.978,271.200 181.426 C 271.200 180.740,270.913 179.768,270.561 179.266 C 269.566 177.845,268.000 173.575,268.000 172.281 C 268.000 171.640,267.451 169.964,266.780 168.559 C 266.109 167.153,265.325 164.787,265.037 163.301 C 264.749 161.816,264.143 159.970,263.691 159.200 C 262.480 157.141,261.600 153.767,261.600 151.184 C 261.600 149.444,261.317 148.360,260.393 146.556 C 259.729 145.260,258.993 143.120,258.757 141.800 C 258.521 140.480,258.052 138.860,257.716 138.200 C 256.666 136.141,255.600 132.730,255.600 131.426 C 255.600 130.740,255.313 129.768,254.961 129.266 C 253.913 127.770,252.400 123.545,252.400 122.116 C 252.400 121.356,251.961 120.119,251.379 119.239 C 250.778 118.332,250.046 116.234,249.601 114.148 C 249.186 112.197,248.385 109.700,247.822 108.600 C 247.259 107.500,246.599 105.520,246.355 104.200 C 246.111 102.880,245.747 101.530,245.546 101.200 C 244.426 99.363,243.492 96.867,243.104 94.678 C 242.863 93.315,242.449 91.930,242.185 91.600 C 238.782 87.357,239.560 79.170,243.492 77.830 C 248.981 75.960,269.896 77.298,272.733 79.701 C 273.100 80.011,274.552 80.470,275.959 80.720 C 277.367 80.969,279.650 81.719,281.034 82.387 C 282.418 83.054,284.073 83.600,284.712 83.600 C 286.283 83.600,290.194 84.980,291.471 85.984 C 292.041 86.433,293.085 86.800,293.791 86.800 C 295.279 86.800,299.202 88.076,300.492 88.980 C 301.683 89.813,301.645 89.824,303.964 87.991 L 306.000 86.381 305.994 83.491 C 305.991 81.901,305.766 80.221,305.494 79.757 C 304.341 77.790,302.305 75.413,301.194 74.738 C 300.537 74.339,300.000 73.827,300.000 73.601 C 300.000 73.375,298.263 71.527,296.141 69.495 C 294.019 67.463,291.904 65.372,291.441 64.849 C 290.378 63.646,286.407 59.671,285.151 58.553 C 284.628 58.087,282.537 56.017,280.505 53.953 C 275.658 49.030,274.521 48.145,271.557 46.983 C 270.192 46.448,268.771 45.736,268.400 45.400 C 268.029 45.064,266.628 44.360,265.286 43.834 C 263.944 43.308,262.435 42.590,261.934 42.239 C 260.346 41.126,199.075 41.287,197.400 42.408 M161.338 43.017 C 160.966 43.988,161.402 44.082,162.198 43.202 C 162.860 42.470,162.865 42.400,162.249 42.400 C 161.878 42.400,161.468 42.678,161.338 43.017 M290.675 42.686 C 291.157 42.775,291.633 43.111,291.735 43.432 C 291.851 43.802,291.896 43.757,291.856 43.308 C 291.815 42.849,291.443 42.586,290.797 42.561 C 289.976 42.530,289.954 42.551,290.675 42.686 M294.202 46.402 C 294.998 47.282,295.434 47.188,295.062 46.217 C 294.932 45.878,294.522 45.600,294.151 45.600 C 293.535 45.600,293.540 45.670,294.202 46.402 M158.178 50.179 C 158.035 50.937,158.013 51.792,158.128 52.079 C 158.243 52.365,158.351 52.074,158.368 51.431 C 158.386 50.789,158.698 49.934,159.062 49.531 C 159.664 48.867,159.665 48.800,159.080 48.800 C 158.663 48.800,158.345 49.285,158.178 50.179 M297.248 49.454 C 297.604 49.864,298.003 50.470,298.135 50.800 C 298.267 51.130,298.335 50.862,298.287 50.203 C 298.226 49.363,297.962 48.962,297.400 48.857 C 296.653 48.717,296.643 48.756,297.248 49.454 M299.058 51.877 C 300.090 52.079,301.064 53.105,301.263 54.200 C 301.345 54.651,301.781 55.053,302.262 55.122 C 303.277 55.268,304.261 56.287,304.462 57.400 C 304.563 57.955,304.944 58.215,305.708 58.249 C 306.722 58.294,306.730 58.284,305.805 58.122 C 305.065 57.993,304.800 57.698,304.800 57.002 C 304.800 55.783,303.805 54.800,302.571 54.800 C 301.810 54.800,301.600 54.590,301.600 53.829 C 301.600 52.533,300.588 51.588,299.271 51.654 C 298.392 51.699,298.354 51.739,299.058 51.877 M155.429 55.429 C 155.055 55.802,154.824 56.655,154.860 57.529 C 154.915 58.885,154.933 58.906,155.093 57.800 C 155.302 56.360,156.172 55.306,157.342 55.077 C 158.046 54.939,158.008 54.899,157.129 54.854 C 156.539 54.825,155.774 55.083,155.429 55.429 M307.246 58.800 C 307.265 59.130,307.424 59.850,307.600 60.400 L 307.920 61.400 307.954 60.400 C 307.973 59.850,307.813 59.130,307.600 58.800 C 307.255 58.267,307.216 58.267,307.246 58.800 M309.802 62.002 C 310.598 62.882,311.034 62.788,310.662 61.817 C 310.532 61.478,310.122 61.200,309.751 61.200 C 309.135 61.200,309.140 61.270,309.802 62.002 M152.014 65.174 C 151.786 65.599,151.619 66.454,151.643 67.074 C 151.678 67.988,151.756 67.885,152.061 66.525 C 152.374 65.133,152.620 64.822,153.519 64.685 L 154.600 64.520 153.514 64.460 C 152.807 64.421,152.284 64.670,152.014 65.174 M313.002 65.202 C 313.798 66.082,314.234 65.988,313.862 65.017 C 313.732 64.678,313.322 64.400,312.951 64.400 C 312.335 64.400,312.340 64.470,313.002 65.202 M314.800 67.600 C 316.342 68.094,317.164 68.094,316.400 67.600 C 316.070 67.387,315.350 67.227,314.800 67.246 L 313.800 67.280 314.800 67.600 M316.961 69.600 C 316.989 70.302,317.255 70.636,317.858 70.722 C 318.874 70.867,319.859 71.883,320.063 72.995 C 320.144 73.433,320.567 73.856,321.005 73.937 C 322.097 74.137,323.122 75.112,323.323 76.142 C 323.461 76.846,323.501 76.808,323.546 75.929 C 323.612 74.612,322.667 73.600,321.371 73.600 C 320.610 73.600,320.400 73.390,320.400 72.629 C 320.400 71.395,319.417 70.400,318.198 70.400 C 317.534 70.400,317.204 70.133,317.088 69.500 C 316.944 68.717,316.928 68.730,316.961 69.600 M149.500 74.032 C 149.115 74.256,148.803 74.656,148.806 74.920 C 148.811 75.264,148.905 75.254,149.140 74.883 C 149.321 74.599,149.993 74.209,150.634 74.017 C 151.437 73.777,151.551 73.662,151.000 73.647 C 150.560 73.634,149.885 73.808,149.500 74.032 M324.400 77.065 C 324.730 77.197,325.336 77.596,325.746 77.952 C 326.444 78.557,326.483 78.547,326.343 77.800 C 326.238 77.238,325.837 76.974,324.997 76.913 C 324.338 76.865,324.070 76.933,324.400 77.065 M328.602 80.802 C 329.398 81.682,329.834 81.588,329.462 80.617 C 329.332 80.278,328.922 80.000,328.551 80.000 C 327.935 80.000,327.940 80.070,328.602 80.802 M145.754 83.777 C 145.632 84.094,145.617 84.679,145.720 85.077 C 145.846 85.563,145.922 85.449,145.954 84.729 C 145.982 84.072,146.271 83.588,146.700 83.476 C 147.356 83.304,147.355 83.290,146.687 83.246 C 146.296 83.221,145.875 83.459,145.754 83.777 M331.676 83.448 C 332.048 83.559,332.429 84.090,332.525 84.630 C 332.676 85.487,332.691 85.472,332.649 84.508 C 332.614 83.720,332.373 83.384,331.800 83.326 C 331.223 83.268,331.188 83.302,331.676 83.448 M333.458 86.277 C 334.490 86.479,335.464 87.505,335.663 88.600 C 335.745 89.051,336.181 89.453,336.662 89.522 C 337.654 89.664,338.634 90.656,338.912 91.800 C 339.064 92.422,339.118 92.361,339.154 91.529 C 339.211 90.210,338.265 89.200,336.971 89.200 C 336.210 89.200,336.000 88.990,336.000 88.229 C 336.000 86.933,334.988 85.988,333.671 86.054 C 332.792 86.099,332.754 86.139,333.458 86.277 M142.538 93.017 C 142.166 93.988,142.602 94.082,143.398 93.202 C 144.060 92.470,144.065 92.400,143.449 92.400 C 143.078 92.400,142.668 92.678,142.538 93.017 M340.675 92.686 C 341.157 92.775,341.633 93.111,341.735 93.432 C 341.851 93.802,341.896 93.757,341.856 93.308 C 341.815 92.849,341.443 92.586,340.797 92.561 C 339.976 92.530,339.954 92.551,340.675 92.686 M261.200 94.151 C 261.200 94.522,261.478 94.932,261.817 95.062 C 262.788 95.434,262.882 94.998,262.002 94.202 C 261.270 93.540,261.200 93.535,261.200 94.151 M270.441 96.024 C 270.381 97.517,271.251 98.512,272.422 98.292 C 273.389 98.111,273.388 98.108,272.340 98.054 C 271.469 98.010,271.208 97.732,270.881 96.500 C 270.557 95.280,270.475 95.191,270.441 96.024 M344.202 96.402 C 344.998 97.282,345.434 97.188,345.062 96.217 C 344.932 95.878,344.522 95.600,344.151 95.600 C 343.535 95.600,343.540 95.670,344.202 96.402 M262.848 99.454 C 263.204 99.864,263.603 100.470,263.735 100.800 C 263.867 101.130,263.935 100.862,263.887 100.203 C 263.826 99.363,263.562 98.962,263.000 98.857 C 262.253 98.717,262.243 98.756,262.848 99.454 M347.248 99.454 C 347.604 99.864,348.003 100.470,348.135 100.800 C 348.267 101.130,348.335 100.862,348.287 100.203 C 348.226 99.363,347.962 98.962,347.400 98.857 C 346.653 98.717,346.643 98.756,347.248 99.454 M280.006 100.286 C 279.998 100.967,281.338 101.607,282.674 101.560 C 283.634 101.526,283.566 101.465,282.217 101.149 C 281.346 100.945,280.494 100.558,280.323 100.289 C 280.081 99.908,280.011 99.907,280.006 100.286 M139.829 102.229 C 139.455 102.602,139.224 103.455,139.260 104.329 C 139.315 105.685,139.333 105.706,139.493 104.600 C 139.702 103.160,140.572 102.106,141.742 101.877 C 142.446 101.739,142.408 101.699,141.529 101.654 C 140.939 101.625,140.174 101.883,139.829 102.229 M289.254 102.471 C 289.178 103.971,290.169 104.812,291.929 104.740 C 293.285 104.685,293.306 104.667,292.200 104.507 C 290.760 104.298,289.706 103.428,289.477 102.258 C 289.339 101.554,289.299 101.592,289.254 102.471 M298.860 106.086 C 298.791 107.339,299.750 108.025,301.474 107.954 C 302.261 107.921,302.359 107.856,301.800 107.738 C 301.360 107.645,300.607 107.485,300.126 107.383 C 299.545 107.260,299.197 106.831,299.086 106.099 L 298.920 105.000 298.860 106.086 M264.871 108.284 C 266.236 108.492,266.693 109.059,266.903 110.802 L 267.072 112.200 267.136 110.729 C 267.213 108.967,266.372 107.976,264.871 108.060 L 263.800 108.120 264.871 108.284 M308.052 108.400 C 307.971 109.587,308.505 110.800,309.109 110.800 C 309.660 110.800,309.660 110.728,309.103 110.100 C 308.762 109.715,308.395 109.040,308.288 108.600 C 308.179 108.154,308.075 108.066,308.052 108.400 M317.241 111.624 C 317.181 113.117,318.051 114.112,319.222 113.892 C 320.189 113.711,320.188 113.708,319.140 113.654 C 318.269 113.610,318.008 113.332,317.681 112.100 C 317.357 110.880,317.275 110.791,317.241 111.624 M136.414 111.974 C 136.186 112.399,136.014 113.344,136.032 114.074 C 136.067 115.560,136.218 115.300,136.581 113.125 C 136.784 111.908,137.016 111.622,137.913 111.485 L 139.000 111.320 137.914 111.260 C 137.207 111.221,136.684 111.470,136.414 111.974 M347.402 113.198 C 346.740 113.930,346.735 114.000,347.351 114.000 C 347.722 114.000,348.132 113.722,348.262 113.383 C 348.634 112.412,348.198 112.318,347.402 113.198 M326.800 116.120 C 326.800 116.817,328.959 117.419,330.260 117.083 C 330.668 116.978,330.386 116.872,329.631 116.846 C 328.879 116.821,327.934 116.502,327.531 116.138 C 326.867 115.536,326.800 115.535,326.800 116.120 M344.456 116.133 C 344.172 116.474,343.459 116.830,342.870 116.924 C 342.282 117.018,342.490 117.044,343.333 116.981 C 345.033 116.855,345.358 116.674,345.127 115.981 C 345.020 115.660,344.808 115.708,344.456 116.133 M133.700 120.665 C 133.425 120.776,133.200 121.150,133.200 121.495 C 133.200 122.064,133.267 122.065,133.900 121.503 C 134.285 121.162,134.960 120.795,135.400 120.688 C 136.044 120.531,136.005 120.490,135.200 120.478 C 134.650 120.470,133.975 120.554,133.700 120.665 M267.858 120.677 C 269.028 120.906,269.898 121.960,270.107 123.400 C 270.267 124.506,270.285 124.485,270.340 123.129 C 270.412 121.369,269.571 120.378,268.071 120.454 C 267.192 120.499,267.154 120.539,267.858 120.677 M130.138 127.417 C 129.766 128.388,130.202 128.482,130.998 127.602 C 131.660 126.870,131.665 126.800,131.049 126.800 C 130.678 126.800,130.268 127.078,130.138 127.417 M271.681 130.285 C 272.580 130.422,272.826 130.733,273.139 132.125 C 273.444 133.485,273.522 133.588,273.557 132.674 C 273.623 130.948,272.938 129.991,271.686 130.060 L 270.600 130.120 271.681 130.285 M127.438 136.522 C 126.973 136.863,126.788 137.386,126.908 138.022 C 127.089 138.989,127.092 138.988,127.146 137.940 C 127.190 137.069,127.468 136.808,128.700 136.481 C 129.920 136.157,130.009 136.075,129.176 136.041 C 128.614 136.019,127.831 136.235,127.438 136.522 M274.700 139.699 C 275.593 139.985,276.015 140.379,276.046 140.958 C 276.089 141.734,276.108 141.739,276.290 141.026 C 276.521 140.119,275.435 139.181,274.224 139.241 C 273.643 139.270,273.783 139.405,274.700 139.699 M124.014 146.374 C 123.786 146.799,123.620 147.744,123.644 148.474 C 123.684 149.693,123.716 149.657,124.035 148.029 C 124.226 147.055,124.611 146.113,124.891 145.935 C 125.271 145.694,125.277 145.611,124.914 145.606 C 124.647 145.603,124.242 145.948,124.014 146.374 M278.448 149.454 C 278.804 149.864,279.203 150.470,279.335 150.800 C 279.467 151.130,279.535 150.862,279.487 150.203 C 279.426 149.363,279.162 148.962,278.600 148.857 C 277.853 148.717,277.843 148.756,278.448 149.454 M121.029 155.429 C 120.655 155.802,120.424 156.655,120.460 157.529 C 120.515 158.885,120.533 158.906,120.693 157.800 C 120.902 156.360,121.772 155.306,122.942 155.077 C 123.646 154.939,123.608 154.899,122.729 154.854 C 122.139 154.825,121.374 155.083,121.029 155.429 M280.400 158.291 C 280.950 158.391,281.715 158.754,282.100 159.098 C 282.726 159.657,282.800 159.659,282.800 159.109 C 282.800 158.468,281.578 157.975,280.200 158.060 C 279.606 158.096,279.657 158.156,280.400 158.291 M117.614 165.174 C 117.386 165.599,117.219 166.454,117.243 167.074 C 117.278 167.988,117.356 167.885,117.661 166.525 C 117.974 165.133,118.220 164.822,119.119 164.685 L 120.200 164.520 119.114 164.460 C 118.407 164.421,117.884 164.670,117.614 165.174 M283.458 167.477 C 284.628 167.706,285.498 168.760,285.707 170.200 C 285.867 171.306,285.885 171.285,285.940 169.929 C 286.012 168.169,285.171 167.178,283.671 167.254 C 282.792 167.299,282.754 167.339,283.458 167.477 M115.100 174.032 C 114.715 174.256,114.403 174.656,114.406 174.920 C 114.410 175.257,114.500 175.269,114.706 174.960 C 114.868 174.718,115.540 174.327,116.200 174.092 C 117.059 173.785,117.173 173.658,116.600 173.644 C 116.160 173.633,115.485 173.808,115.100 174.032 M287.287 177.085 C 288.184 177.222,288.416 177.508,288.619 178.725 C 288.982 180.900,289.133 181.160,289.168 179.674 C 289.214 177.744,288.575 176.789,287.286 176.860 L 286.200 176.920 287.287 177.085 M111.354 183.777 C 111.232 184.094,111.217 184.679,111.320 185.077 C 111.446 185.563,111.522 185.449,111.554 184.729 C 111.582 184.072,111.871 183.588,112.300 183.476 C 112.956 183.304,112.955 183.290,112.287 183.246 C 111.896 183.221,111.475 183.459,111.354 183.777 M289.997 189.557 C 290.545 189.710,291.217 190.277,291.491 190.817 C 291.940 191.706,291.989 191.721,291.994 190.980 C 292.002 189.861,291.243 189.192,290.020 189.240 L 289.000 189.280 289.997 189.557 M108.181 193.760 C 108.041 194.508,108.012 195.453,108.117 195.860 C 108.222 196.268,108.328 195.986,108.354 195.231 C 108.379 194.479,108.698 193.534,109.062 193.131 C 109.664 192.467,109.665 192.400,109.080 192.400 C 108.665 192.400,108.346 192.882,108.181 193.760 M294.048 199.454 C 294.404 199.864,294.803 200.470,294.935 200.800 C 295.067 201.130,295.135 200.862,295.087 200.203 C 295.026 199.363,294.762 198.962,294.200 198.857 C 293.453 198.717,293.443 198.756,294.048 199.454 M105.429 202.229 C 105.055 202.602,104.824 203.455,104.860 204.329 C 104.915 205.685,104.933 205.706,105.093 204.600 C 105.302 203.160,106.172 202.106,107.342 201.877 C 108.046 201.739,108.008 201.699,107.129 201.654 C 106.539 201.625,105.774 201.883,105.429 202.229 M296.000 208.291 C 296.550 208.391,297.315 208.754,297.700 209.098 C 298.326 209.657,298.400 209.659,298.400 209.109 C 298.400 208.468,297.178 207.975,295.800 208.060 C 295.206 208.096,295.257 208.156,296.000 208.291 M159.400 211.400 C 160.682 213.965,160.747 223.500,159.499 226.000 C 158.461 228.078,155.555 228.807,153.981 227.383 C 151.301 224.958,151.238 213.231,153.889 210.302 C 155.218 208.834,158.438 209.475,159.400 211.400 M190.560 210.929 C 191.841 212.651,191.841 224.948,190.560 226.671 C 189.513 228.077,186.403 228.489,185.181 227.383 C 182.501 224.958,182.438 213.231,185.089 210.302 C 186.182 209.094,189.474 209.471,190.560 210.929 M221.327 210.320 C 223.963 213.232,223.888 224.967,221.219 227.383 C 219.643 228.809,216.736 228.078,215.716 226.000 C 214.079 222.665,214.556 212.422,216.454 210.135 C 217.135 209.315,220.535 209.444,221.327 210.320 M252.527 210.320 C 255.163 213.232,255.088 224.967,252.419 227.383 C 250.843 228.809,247.936 228.078,246.916 226.000 C 245.279 222.665,245.756 212.422,247.654 210.135 C 248.335 209.315,251.735 209.444,252.527 210.320 M102.014 211.974 C 101.786 212.399,101.614 213.344,101.632 214.074 C 101.667 215.560,101.818 215.300,102.181 213.125 C 102.384 211.908,102.616 211.622,103.513 211.485 L 104.600 211.320 103.514 211.260 C 102.807 211.221,102.284 211.470,102.014 211.974 M299.058 217.477 C 300.228 217.706,301.098 218.760,301.307 220.200 C 301.467 221.306,301.485 221.285,301.540 219.929 C 301.612 218.169,300.771 217.178,299.271 217.254 C 298.392 217.299,298.354 217.339,299.058 217.477 M99.438 220.922 C 98.973 221.263,98.788 221.786,98.908 222.422 C 99.085 223.366,99.093 223.362,99.146 222.311 C 99.189 221.447,99.467 221.146,100.500 220.848 C 101.369 220.597,101.527 220.460,100.976 220.436 C 100.524 220.416,99.831 220.635,99.438 220.922 M302.887 227.085 C 303.784 227.222,304.016 227.508,304.219 228.725 C 304.582 230.900,304.733 231.160,304.768 229.674 C 304.814 227.744,304.175 226.789,302.886 226.860 L 301.800 226.920 302.887 227.085 M95.738 230.617 C 95.366 231.588,95.802 231.682,96.598 230.802 C 97.260 230.070,97.265 230.000,96.649 230.000 C 96.278 230.000,95.868 230.278,95.738 230.617 M305.458 236.277 C 306.628 236.506,307.498 237.560,307.707 239.000 C 307.867 240.106,307.885 240.085,307.940 238.729 C 308.012 236.969,307.171 235.978,305.671 236.054 C 304.792 236.099,304.754 236.139,305.458 236.277 M93.033 239.726 C 92.603 240.041,92.392 240.564,92.510 241.026 C 92.688 241.726,92.712 241.718,92.754 240.940 C 92.788 240.299,93.182 239.978,94.300 239.681 C 95.520 239.357,95.609 239.275,94.776 239.241 C 94.214 239.219,93.429 239.437,93.033 239.726 M309.802 246.402 C 310.598 247.282,311.034 247.188,310.662 246.217 C 310.532 245.878,310.122 245.600,309.751 245.600 C 309.135 245.600,309.140 245.670,309.802 246.402 M89.614 249.574 C 89.386 249.999,89.216 250.674,89.236 251.074 C 89.256 251.473,89.438 251.227,89.640 250.527 C 89.884 249.685,90.311 249.196,90.904 249.082 L 91.800 248.909 90.914 248.854 C 90.407 248.823,89.851 249.131,89.614 249.574 M159.216 252.216 C 158.455 252.754,157.202 253.401,156.432 253.655 C 152.302 255.019,149.015 258.440,147.222 263.246 C 146.760 264.481,146.027 265.814,145.592 266.208 C 144.822 266.904,144.800 267.505,144.800 287.600 C 144.800 307.695,144.822 308.296,145.592 308.992 C 146.027 309.386,146.760 310.719,147.222 311.954 C 149.011 316.747,152.210 320.089,156.400 321.542 C 157.170 321.809,158.471 322.471,159.291 323.014 L 160.783 324.000 200.099 324.000 L 239.414 324.000 240.807 323.056 C 241.573 322.538,242.650 321.980,243.200 321.817 C 247.451 320.561,251.361 316.644,253.000 311.999 C 253.321 311.091,253.947 309.836,254.392 309.212 C 255.655 307.438,255.655 267.762,254.392 265.988 C 253.947 265.364,253.321 264.109,253.000 263.201 C 251.361 258.556,247.451 254.639,243.200 253.383 C 242.650 253.220,241.573 252.662,240.807 252.144 L 239.414 251.200 200.007 251.220 L 160.600 251.239 159.216 252.216 M74.229 252.229 C 73.883 252.574,73.600 253.294,73.600 253.829 C 73.600 254.590,73.390 254.800,72.629 254.800 C 71.205 254.800,70.391 255.824,70.460 257.529 C 70.515 258.885,70.533 258.906,70.693 257.800 C 70.904 256.340,71.789 255.287,72.942 255.122 C 73.464 255.048,73.848 254.664,73.922 254.142 C 74.087 252.989,75.140 252.104,76.600 251.893 C 77.706 251.733,77.685 251.715,76.329 251.660 C 75.455 251.624,74.602 251.855,74.229 252.229 M324.300 252.066 C 325.762 252.394,326.008 252.598,326.054 253.524 C 326.108 254.573,326.114 254.576,326.292 253.622 C 326.522 252.400,325.504 251.584,323.824 251.643 C 322.737 251.681,322.791 251.728,324.300 252.066 M327.700 255.281 C 328.932 255.608,329.210 255.869,329.254 256.740 C 329.308 257.788,329.311 257.789,329.492 256.822 C 329.712 255.651,328.717 254.781,327.224 254.841 C 326.391 254.875,326.480 254.957,327.700 255.281 M67.614 261.974 C 67.386 262.399,67.214 263.344,67.232 264.074 C 67.267 265.560,67.418 265.300,67.781 263.125 C 67.984 261.908,68.216 261.622,69.113 261.485 L 70.200 261.320 69.114 261.260 C 68.407 261.221,67.884 261.470,67.614 261.974 M331.802 262.002 C 332.598 262.882,333.034 262.788,332.662 261.817 C 332.532 261.478,332.122 261.200,331.751 261.200 C 331.135 261.200,331.140 261.270,331.802 262.002 M87.106 268.005 C 84.843 269.426,82.721 272.187,81.575 275.200 C 81.115 276.410,80.393 277.961,79.969 278.647 C 79.546 279.333,79.200 280.269,79.200 280.727 C 79.200 282.092,77.242 287.867,76.597 288.402 C 76.269 288.675,76.000 289.371,76.000 289.950 C 76.000 291.801,74.451 296.494,73.510 297.495 C 72.746 298.308,72.578 298.995,72.462 301.763 L 72.324 305.062 74.317 306.731 L 76.311 308.400 104.660 308.400 L 133.009 308.400 135.001 307.097 C 136.114 306.368,137.568 304.914,138.297 303.801 L 139.600 301.809 139.600 287.600 L 139.600 273.391 138.297 271.399 C 137.568 270.286,136.114 268.832,135.001 268.103 L 133.009 266.800 111.005 266.808 L 89.000 266.815 87.106 268.005 M264.903 268.239 C 263.607 269.092,262.502 270.216,262.009 271.183 C 261.570 272.042,261.029 272.859,260.806 272.996 C 260.544 273.158,260.400 278.328,260.400 287.600 C 260.400 296.872,260.544 302.042,260.806 302.204 C 261.029 302.341,261.570 303.157,262.008 304.017 C 262.524 305.027,263.584 306.077,265.011 306.989 L 267.216 308.400 295.579 308.400 C 318.501 308.400,324.044 308.299,324.471 307.873 C 324.762 307.584,325.493 307.024,326.096 306.630 C 328.382 305.135,328.539 300.053,326.394 297.034 C 325.234 295.403,324.428 292.814,324.410 290.662 C 324.404 290.036,324.033 289.008,323.584 288.377 C 322.527 286.893,321.200 283.024,321.200 281.426 C 321.200 280.740,320.913 279.768,320.561 279.266 C 320.210 278.765,319.504 277.287,318.993 275.982 C 317.528 272.245,315.641 269.652,313.292 268.149 L 311.184 266.800 289.092 266.829 L 267.000 266.858 264.903 268.239 M227.686 270.600 C 228.495 271.150,229.358 271.600,229.603 271.600 C 230.284 271.600,234.340 275.580,234.644 276.546 C 234.792 277.016,235.338 278.027,235.856 278.793 C 237.351 281.000,237.309 294.265,235.800 296.486 C 235.250 297.295,234.800 298.158,234.800 298.403 C 234.800 299.084,230.820 303.140,229.854 303.444 C 229.384 303.592,228.373 304.138,227.607 304.656 L 226.214 305.600 200.165 305.600 L 174.115 305.600 171.765 304.300 C 169.438 303.013,165.600 299.511,165.600 298.676 C 165.600 298.438,165.105 297.529,164.500 296.656 L 163.400 295.068 163.400 287.568 C 163.400 280.589,163.458 279.988,164.236 278.934 C 164.695 278.310,165.389 277.129,165.777 276.309 C 166.590 274.590,168.469 272.878,171.600 271.000 L 173.800 269.681 200.007 269.641 L 226.214 269.600 227.686 270.600 M65.038 270.922 C 64.573 271.263,64.388 271.786,64.508 272.422 L 64.691 273.400 64.746 272.358 C 64.787 271.555,65.099 271.220,66.100 270.899 C 67.017 270.605,67.157 270.470,66.576 270.441 C 66.124 270.418,65.431 270.635,65.038 270.922 M333.458 270.677 C 334.628 270.906,335.498 271.960,335.707 273.400 C 335.867 274.506,335.885 274.485,335.940 273.129 C 336.012 271.369,335.171 270.378,333.671 270.454 C 332.792 270.499,332.754 270.539,333.458 270.677 M61.338 277.417 C 60.966 278.388,61.402 278.482,62.198 277.602 C 62.860 276.870,62.865 276.800,62.249 276.800 C 61.878 276.800,61.468 277.078,61.338 277.417 M337.287 277.085 C 338.184 277.222,338.416 277.508,338.619 278.725 C 338.982 280.900,339.133 281.160,339.168 279.674 C 339.214 277.744,338.575 276.789,337.286 276.860 L 336.200 276.920 337.287 277.085 M386.414 277.574 C 386.186 277.999,386.019 278.764,386.041 279.274 C 386.071 279.936,386.194 279.780,386.476 278.723 C 386.784 277.563,387.097 277.212,387.934 277.083 L 389.000 276.920 387.914 276.860 C 387.207 276.821,386.684 277.070,386.414 277.574 M383.338 280.617 C 383.208 280.957,383.213 281.347,383.351 281.484 C 383.488 281.621,383.600 281.445,383.600 281.093 C 383.600 280.702,384.028 280.388,384.700 280.287 L 385.800 280.120 384.687 280.060 C 384.011 280.023,383.482 280.242,383.338 280.617 M178.000 281.270 C 175.104 282.094,173.897 285.229,174.735 289.752 C 175.614 294.493,175.102 294.400,200.306 294.400 C 224.063 294.400,223.909 294.419,224.972 291.301 C 226.481 286.872,225.363 282.403,222.501 281.428 C 220.313 280.683,180.563 280.542,178.000 281.270 M376.954 283.777 C 376.832 284.094,376.817 284.679,376.920 285.077 C 377.046 285.563,377.122 285.449,377.154 284.729 C 377.182 284.072,377.471 283.588,377.900 283.476 C 378.556 283.304,378.555 283.290,377.887 283.246 C 377.496 283.221,377.075 283.459,376.954 283.777 M58.800 286.400 C 58.036 286.894,58.858 286.894,60.400 286.400 L 61.400 286.080 60.400 286.046 C 59.850 286.027,59.130 286.187,58.800 286.400 M339.800 286.289 C 340.943 286.570,341.527 287.129,341.722 288.129 C 341.871 288.897,341.897 288.880,341.946 287.980 C 342.015 286.684,341.321 285.987,340.020 286.046 C 339.190 286.084,339.149 286.129,339.800 286.289 M374.229 286.629 C 373.883 286.974,373.625 287.739,373.654 288.329 C 373.699 289.208,373.739 289.246,373.877 288.542 C 374.074 287.533,375.075 286.562,376.200 286.288 C 376.822 286.136,376.761 286.082,375.929 286.046 C 375.339 286.021,374.574 286.283,374.229 286.629 M58.101 288.600 C 58.105 289.480,58.187 289.793,58.283 289.295 C 58.379 288.798,58.375 288.078,58.275 287.695 C 58.175 287.313,58.096 287.720,58.101 288.600 M367.829 289.829 C 367.483 290.174,367.225 290.939,367.254 291.529 C 367.299 292.408,367.339 292.446,367.477 291.742 C 367.706 290.572,368.760 289.702,370.200 289.493 C 371.306 289.333,371.285 289.315,369.929 289.260 C 369.055 289.224,368.202 289.455,367.829 289.829 M361.338 293.017 C 360.966 293.988,361.402 294.082,362.198 293.202 C 362.860 292.470,362.865 292.400,362.249 292.400 C 361.878 292.400,361.468 292.678,361.338 293.017 M55.214 296.374 C 54.986 296.799,54.814 297.744,54.832 298.474 C 54.867 299.960,55.018 299.700,55.381 297.525 C 55.584 296.308,55.816 296.022,56.713 295.885 L 57.800 295.720 56.714 295.660 C 56.007 295.621,55.484 295.870,55.214 296.374 M344.202 296.402 C 344.998 297.282,345.434 297.188,345.062 296.217 C 344.932 295.878,344.522 295.600,344.151 295.600 C 343.535 295.600,343.540 295.670,344.202 296.402 M355.214 296.374 C 354.986 296.799,354.819 297.564,354.841 298.074 C 354.871 298.736,354.994 298.580,355.276 297.523 C 355.584 296.363,355.897 296.012,356.734 295.883 L 357.800 295.720 356.714 295.660 C 356.007 295.621,355.484 295.870,355.214 296.374 M345.867 299.067 C 345.720 299.213,345.614 299.798,345.632 300.367 C 345.650 300.979,345.753 301.156,345.884 300.800 C 346.005 300.470,346.379 299.885,346.714 299.500 C 347.337 298.785,346.550 298.383,345.867 299.067 M43.038 302.122 C 42.573 302.463,42.388 302.986,42.508 303.622 C 42.686 304.571,42.693 304.568,42.746 303.518 C 42.792 302.593,43.018 302.400,44.300 302.185 C 46.531 301.812,46.761 301.667,45.176 301.632 C 44.394 301.614,43.431 301.835,43.038 302.122 M378.000 305.212 C 374.648 306.947,368.967 309.600,368.603 309.600 C 368.385 309.600,367.305 310.221,366.203 310.979 C 364.310 312.283,360.471 313.600,358.565 313.600 C 358.088 313.600,357.475 313.869,357.202 314.197 C 356.929 314.526,355.278 315.246,353.533 315.797 L 350.359 316.800 305.553 316.800 L 260.747 316.800 259.273 317.887 C 258.463 318.484,256.528 320.274,254.973 321.863 C 253.060 323.820,251.599 324.942,250.452 325.337 C 249.519 325.659,248.091 326.382,247.278 326.944 C 243.863 329.308,246.115 329.201,200.050 329.194 C 154.224 329.188,155.979 329.268,153.000 327.041 C 152.340 326.547,150.990 325.826,150.000 325.438 C 148.860 324.990,147.247 323.754,145.600 322.067 C 144.170 320.601,142.191 318.817,141.201 318.101 L 139.403 316.800 95.390 316.800 C 56.271 316.800,51.280 316.869,50.492 317.420 C 49.202 318.324,45.279 319.600,43.791 319.600 C 43.085 319.600,42.041 319.967,41.471 320.416 C 40.900 320.864,39.394 321.589,38.123 322.027 C 36.852 322.464,35.179 323.247,34.406 323.768 C 33.633 324.288,32.280 324.936,31.400 325.207 C 27.943 326.271,20.540 333.531,19.172 337.200 C 18.720 338.410,17.913 340.038,17.378 340.818 C 13.238 346.851,19.090 354.853,24.980 351.212 C 26.960 349.989,31.012 349.212,35.451 349.206 C 38.512 349.201,39.621 349.057,39.987 348.615 C 40.254 348.293,41.491 347.618,42.736 347.115 L 45.000 346.200 195.400 346.000 L 345.800 345.800 347.200 344.934 C 348.777 343.958,352.436 342.800,353.941 342.800 C 354.489 342.800,355.221 342.553,355.569 342.252 C 355.916 341.950,357.394 341.312,358.854 340.835 C 360.313 340.357,361.807 339.634,362.174 339.229 C 362.540 338.824,363.923 338.098,365.246 337.615 C 367.459 336.808,370.790 334.330,374.000 331.101 C 375.699 329.392,377.433 326.704,378.377 324.316 C 378.874 323.059,379.525 321.828,379.825 321.579 C 380.125 321.331,380.737 320.146,381.186 318.946 C 381.635 317.747,382.403 316.222,382.894 315.558 C 383.956 314.122,384.397 309.097,383.620 307.290 C 382.610 304.941,380.226 304.059,378.000 305.212 M30.638 305.322 C 30.173 305.663,29.988 306.186,30.108 306.822 C 30.286 307.776,30.292 307.773,30.346 306.724 C 30.392 305.798,30.638 305.594,32.100 305.266 C 33.609 304.928,33.663 304.881,32.576 304.843 C 31.904 304.819,31.031 305.035,30.638 305.322 M25.505 308.283 C 26.002 308.379,26.722 308.375,27.105 308.275 C 27.487 308.175,27.080 308.096,26.200 308.101 C 25.320 308.105,25.007 308.187,25.505 308.283 M23.849 309.015 C 23.712 309.373,23.616 310.056,23.636 310.533 C 23.662 311.147,23.785 311.008,24.059 310.056 C 24.457 308.672,24.294 307.858,23.849 309.015 M17.614 311.974 C 17.386 312.399,17.219 313.164,17.241 313.674 C 17.271 314.336,17.394 314.180,17.676 313.123 C 17.984 311.963,18.297 311.612,19.134 311.483 L 20.200 311.320 19.114 311.260 C 18.407 311.221,17.884 311.470,17.614 311.974 M14.538 315.017 C 14.166 315.988,14.602 316.082,15.398 315.202 C 16.060 314.470,16.065 314.400,15.449 314.400 C 15.078 314.400,14.668 314.678,14.538 315.017 M11.838 317.722 C 11.373 318.063,11.188 318.586,11.308 319.222 C 11.489 320.189,11.492 320.188,11.546 319.140 C 11.590 318.269,11.868 318.008,13.100 317.681 C 14.320 317.357,14.409 317.275,13.576 317.241 C 13.014 317.219,12.231 317.435,11.838 317.722 M8.800 320.800 C 8.036 321.294,8.858 321.294,10.400 320.800 L 11.400 320.480 10.400 320.446 C 9.850 320.427,9.130 320.587,8.800 320.800 M8.046 322.500 C 8.009 323.385,7.810 323.600,7.029 323.600 C 5.605 323.600,4.791 324.624,4.860 326.329 C 4.915 327.685,4.933 327.706,5.093 326.600 C 5.304 325.140,6.261 324.000,7.275 324.000 C 8.125 324.000,8.558 323.194,8.280 322.123 C 8.158 321.650,8.077 321.780,8.046 322.500 M398.046 324.369 C 398.021 324.681,397.702 325.266,397.338 325.669 C 396.722 326.350,396.722 326.400,397.351 326.400 C 398.133 326.400,398.549 325.561,398.280 324.523 C 398.169 324.094,398.074 324.031,398.046 324.369 M2.014 330.774 C 1.786 331.199,1.619 332.054,1.643 332.674 C 1.678 333.588,1.756 333.485,2.061 332.125 C 2.374 330.733,2.620 330.422,3.519 330.285 L 4.600 330.120 3.514 330.060 C 2.807 330.021,2.284 330.270,2.014 330.774 M394.202 331.998 C 393.540 332.730,393.535 332.800,394.151 332.800 C 394.522 332.800,394.932 332.522,395.062 332.183 C 395.434 331.212,394.998 331.118,394.202 331.998 M391.654 333.851 C 391.593 334.808,390.983 335.420,389.800 335.711 C 389.166 335.866,389.218 335.917,390.051 335.954 C 391.343 336.011,392.120 335.150,391.885 333.922 C 391.721 333.063,391.705 333.058,391.654 333.851 M388.864 339.451 C 388.796 340.783,388.293 341.393,387.000 341.711 C 386.366 341.866,386.418 341.917,387.251 341.954 C 388.640 342.015,389.292 341.155,389.091 339.526 L 388.928 338.200 388.864 339.451 M385.473 343.275 C 385.229 344.474,384.971 344.780,384.087 344.915 L 383.000 345.080 384.086 345.140 C 385.317 345.208,386.136 344.104,385.912 342.679 C 385.809 342.025,385.697 342.177,385.473 343.275 M381.802 347.598 C 381.140 348.330,381.135 348.400,381.751 348.400 C 382.122 348.400,382.532 348.122,382.662 347.783 C 383.034 346.812,382.598 346.718,381.802 347.598 M379.140 350.379 C 379.062 350.615,378.188 350.967,377.199 351.160 C 375.438 351.505,375.430 351.513,376.824 351.556 C 378.233 351.600,380.038 350.704,379.541 350.208 C 379.399 350.066,379.219 350.143,379.140 350.379 M373.200 352.338 C 373.200 353.340,372.053 354.296,370.600 354.507 C 369.494 354.667,369.515 354.685,370.871 354.740 C 372.576 354.809,373.600 353.995,373.600 352.571 C 373.600 352.037,373.510 351.600,373.400 351.600 C 373.290 351.600,373.200 351.932,373.200 352.338 M364.400 357.600 L 363.000 357.895 364.400 357.941 C 365.170 357.967,366.070 357.813,366.400 357.600 C 367.127 357.130,366.633 357.130,364.400 357.600 M357.448 359.076 C 357.218 360.052,356.895 360.391,356.073 360.516 L 355.000 360.680 356.086 360.740 C 357.266 360.805,358.167 359.682,357.900 358.479 C 357.805 358.052,357.637 358.274,357.448 359.076 M47.402 363.198 C 46.740 363.930,46.735 364.000,47.351 364.000 C 47.722 364.000,48.132 363.722,48.262 363.383 C 48.634 362.412,48.198 362.318,47.402 363.198 M32.055 366.134 C 31.771 366.476,30.968 366.831,30.270 366.924 C 29.571 367.017,29.774 367.048,30.720 366.994 C 32.593 366.885,32.966 366.697,32.727 365.981 C 32.620 365.660,32.408 365.708,32.055 366.134 M23.200 367.938 C 23.200 368.940,22.053 369.896,20.600 370.107 C 19.494 370.267,19.515 370.285,20.871 370.340 C 22.576 370.409,23.600 369.595,23.600 368.171 C 23.600 367.637,23.510 367.200,23.400 367.200 C 23.290 367.200,23.200 367.532,23.200 367.938 M14.400 373.200 L 13.000 373.495 14.400 373.541 C 15.170 373.567,16.070 373.413,16.400 373.200 C 17.127 372.730,16.633 372.730,14.400 373.200 M0.500 373.476 C 0.885 373.576,1.515 373.576,1.900 373.476 C 2.285 373.375,1.970 373.293,1.200 373.293 C 0.430 373.293,0.115 373.375,0.500 373.476 " stroke="none" fill="#000000" fill-rule="evenodd"></path></g></svg>