<?xml version="1.0" standalone="no"?>
<!DOCTYPE svg PUBLIC "-//W3C//DTD SVG 20010904//EN"
 "http://www.w3.org/TR/2001/REC-SVG-20010904/DTD/svg10.dtd">
<svg version="1.0" xmlns="http://www.w3.org/2000/svg"
 width="512.000000pt" height="512.000000pt" viewBox="0 0 512.000000 512.000000"
 preserveAspectRatio="xMidYMid meet">

<g transform="translate(0.000000,512.000000) scale(0.100000,-0.100000)"
fill="#000000" stroke="none">
<path d="M1595 4910 c-15 -16 -17 -30 -11 -81 3 -33 15 -82 27 -107 62 -138
66 -207 16 -260 -13 -15 -34 -47 -45 -72 -11 -25 -40 -69 -65 -98 -25 -28 -49
-62 -52 -73 -13 -41 -96 -138 -233 -275 -138 -137 -231 -216 -271 -229 -11 -3
-45 -27 -73 -52 -29 -25 -73 -54 -98 -65 -25 -11 -57 -32 -72 -45 -53 -50
-122 -46 -260 16 -25 12 -74 24 -107 27 -79 9 -101 -8 -101 -74 0 -74 32 -105
135 -131 22 -6 56 -22 74 -35 18 -14 46 -28 62 -31 35 -8 38 -12 54 -78 7 -29
22 -86 34 -127 11 -41 21 -92 21 -112 0 -20 7 -70 17 -110 24 -105 24 -551 0
-656 -10 -40 -17 -90 -17 -112 0 -21 -6 -60 -14 -86 -8 -27 -22 -76 -31 -109
-29 -109 -28 -107 -67 -121 -21 -7 -53 -24 -71 -38 -19 -15 -40 -26 -48 -26
-38 0 -96 -25 -121 -52 -23 -24 -28 -39 -28 -78 0 -69 21 -85 101 -76 33 3 82
15 107 27 131 60 209 64 260 17 15 -14 47 -35 72 -46 25 -11 69 -40 98 -65 28
-25 62 -49 73 -52 12 -4 47 -27 78 -50 72 -55 368 -351 376 -376 4 -11 10 -19
15 -19 4 0 18 -21 30 -47 12 -26 40 -68 62 -93 23 -25 50 -65 61 -90 10 -25
31 -57 45 -72 47 -51 43 -129 -17 -260 -12 -25 -24 -74 -27 -107 -9 -80 7
-101 78 -101 41 0 54 5 78 28 16 16 33 49 39 73 11 43 27 79 56 129 9 14 19
37 24 51 8 22 21 29 98 48 48 12 108 29 132 37 25 8 62 14 83 14 21 0 71 6
111 14 40 8 109 17 155 20 45 3 91 10 101 16 25 13 117 13 141 0 11 -6 68 -14
127 -20 171 -15 284 -34 435 -73 116 -30 114 -29 122 -64 4 -16 20 -46 35 -68
16 -22 31 -58 35 -80 17 -87 54 -125 127 -125 67 0 84 22 76 100 -4 34 -21 93
-38 133 -20 44 -34 95 -37 132 -4 57 -2 64 25 96 17 19 39 54 50 79 11 25 39
66 62 92 23 25 48 62 56 81 8 19 20 41 28 49 7 7 20 23 29 36 22 32 188 203
278 287 89 83 132 115 172 132 16 7 51 31 76 54 26 23 67 51 92 62 25 10 57
31 72 45 51 47 129 43 260 -17 25 -12 74 -24 107 -27 80 -9 101 7 101 78 0 41
-5 54 -28 78 -26 26 -85 50 -123 50 -9 0 -24 9 -34 20 -9 10 -38 27 -64 36
-25 10 -49 20 -54 24 -15 13 -64 220 -87 365 -35 224 -37 552 -5 700 8 39 15
88 15 111 0 22 6 60 14 85 8 24 25 84 37 132 14 57 28 91 38 94 24 8 93 41
121 58 14 8 45 20 69 26 24 6 57 23 73 39 23 24 28 37 28 78 0 71 -21 87 -101
78 -33 -3 -82 -15 -107 -27 -138 -62 -207 -66 -260 -16 -15 13 -47 34 -72 44
-25 11 -65 38 -90 60 -25 22 -64 49 -86 60 -49 24 -51 25 -157 123 -169 155
-326 329 -342 379 -3 11 -27 45 -52 73 -25 29 -54 73 -66 98 -11 25 -33 60
-50 79 -27 32 -29 39 -25 96 3 37 17 88 37 132 40 92 51 185 26 213 -29 32
-105 28 -143 -8 -27 -25 -52 -83 -52 -121 0 -8 -11 -29 -26 -48 -14 -18 -31
-50 -38 -71 -14 -39 -12 -38 -121 -67 -33 -9 -82 -23 -109 -31 -26 -8 -64 -14
-84 -14 -19 0 -74 -7 -121 -15 -144 -24 -253 -37 -321 -37 -68 0 -177 13 -321
37 -47 8 -101 15 -120 15 -19 0 -68 10 -109 21 -41 12 -98 27 -127 34 -66 16
-70 19 -78 54 -3 16 -17 44 -31 62 -13 18 -29 52 -35 74 -17 69 -31 95 -59
115 -38 27 -110 27 -135 0z m442 -521 c15 -6 68 -20 117 -30 78 -17 134 -19
456 -19 322 0 378 2 456 19 49 10 102 24 117 30 16 6 33 9 38 5 17 -10 10 -85
-11 -113 -10 -15 -28 -52 -40 -82 -24 -64 -41 -85 -99 -127 -34 -25 -54 -32
-90 -32 -25 0 -75 -7 -111 -16 -48 -12 -116 -16 -260 -16 -144 0 -212 4 -260
16 -36 9 -85 16 -110 16 -83 0 -161 73 -204 192 -9 25 -24 52 -32 58 -20 17
-19 110 2 110 1 0 15 -5 31 -11z m-238 -137 c16 -16 34 -49 41 -79 8 -29 24
-64 37 -79 29 -35 31 -91 3 -127 -12 -14 -26 -41 -32 -59 -19 -55 -96 -147
-263 -313 -166 -167 -258 -244 -313 -263 -18 -6 -45 -20 -59 -32 -35 -27 -86
-26 -126 3 -18 13 -50 29 -72 35 -24 7 -57 28 -79 51 l-38 39 43 23 c37 18 98
66 211 163 9 9 34 24 55 35 50 25 299 274 324 324 11 21 27 46 35 55 85 98
154 186 159 204 9 28 24 48 37 48 5 0 22 -12 37 -28z m1694 -17 c16 -32 83
-118 164 -210 10 -11 25 -36 34 -55 21 -46 273 -297 319 -319 19 -9 44 -24 55
-34 92 -81 178 -148 210 -164 21 -10 40 -23 42 -29 8 -23 -39 -63 -97 -82 -33
-12 -72 -30 -87 -41 -34 -27 -92 -27 -126 -1 -14 12 -41 26 -59 32 -55 19
-147 96 -313 263 -167 166 -244 258 -263 313 -6 18 -20 45 -32 59 -28 36 -26
92 3 127 13 15 29 50 37 79 13 53 60 112 83 105 6 -3 20 -22 30 -43z m-492
-412 c14 -14 -21 -144 -47 -175 -12 -15 -25 -41 -29 -58 -9 -39 -33 -54 -120
-76 -138 -34 -406 -17 -481 31 -12 8 -26 33 -32 58 -7 24 -18 50 -27 57 -8 7
-24 44 -36 83 -18 61 -19 72 -7 81 18 13 766 12 779 -1z m-965 -121 c9 -31 21
-62 26 -69 16 -20 48 -136 48 -175 0 -27 -7 -44 -29 -66 -16 -16 -36 -45 -44
-65 -16 -37 -30 -56 -79 -105 -46 -46 -66 -62 -96 -74 -15 -7 -44 -27 -65 -45
-44 -39 -86 -43 -168 -14 -30 11 -88 32 -129 46 -41 15 -79 30 -83 35 -5 4 8
17 27 30 20 12 36 26 36 31 0 5 19 18 43 30 56 28 368 340 396 397 12 23 25
42 30 42 5 0 19 16 31 35 12 19 26 33 31 30 5 -4 16 -32 25 -63z m1230 3 c12
-11 29 -36 39 -55 26 -50 341 -363 393 -389 23 -12 42 -25 42 -30 0 -5 16 -19
35 -31 19 -12 33 -26 30 -31 -4 -5 -32 -16 -63 -25 -31 -9 -68 -24 -82 -34
-41 -28 -128 -53 -164 -46 -18 4 -48 20 -67 37 -19 17 -48 37 -66 44 -17 7
-40 21 -51 30 -67 58 -110 109 -128 150 -7 17 -26 45 -43 64 -39 44 -40 85 -5
178 14 37 34 93 43 124 26 81 31 87 50 58 9 -13 25 -33 37 -44z m-492 -391
c23 -9 21 -75 -4 -106 -10 -14 -28 -49 -39 -79 -12 -30 -35 -71 -52 -91 -26
-32 -37 -38 -69 -38 -32 0 -43 6 -69 38 -17 20 -40 61 -52 91 -11 30 -29 65
-39 79 -23 28 -27 97 -7 105 18 8 312 8 331 1z m-536 -129 c20 -17 34 -41 42
-75 7 -28 23 -66 36 -86 36 -52 33 -109 -8 -151 -27 -27 -39 -33 -76 -33 -29
0 -53 7 -69 20 -15 11 -51 28 -82 36 -52 16 -111 59 -111 83 0 5 15 20 33 32
38 27 73 57 95 83 10 10 24 26 33 35 8 9 26 31 38 49 12 17 26 32 31 32 5 0
22 -11 38 -25z m813 -7 c12 -18 30 -40 38 -49 9 -9 23 -25 33 -35 22 -26 57
-56 96 -83 17 -12 32 -26 32 -31 0 -27 -54 -68 -109 -84 -32 -9 -70 -25 -84
-36 -16 -13 -40 -20 -68 -20 -35 0 -49 6 -76 32 -27 27 -33 39 -33 76 0 29 7
53 20 69 11 15 28 51 36 82 16 52 59 111 83 111 5 0 20 -15 32 -32z m-2091
-26 c111 -53 180 -134 180 -211 0 -25 7 -75 16 -111 12 -48 16 -115 16 -260 0
-145 -4 -212 -16 -260 -9 -36 -16 -86 -16 -111 0 -48 -32 -104 -89 -156 -36
-33 -157 -89 -208 -95 -53 -7 -68 7 -52 48 6 16 20 69 30 118 17 78 19 134 19
456 0 322 -2 378 -19 456 -10 49 -24 102 -30 118 -8 19 -8 32 -1 40 15 19 95
4 170 -32z m3474 29 c4 -5 1 -22 -5 -38 -6 -15 -20 -68 -30 -117 -17 -78 -19
-134 -19 -456 0 -322 2 -378 19 -456 10 -49 24 -102 30 -117 6 -16 9 -33 5
-38 -9 -15 -90 -11 -104 5 -6 8 -33 23 -58 32 -117 43 -192 122 -192 205 0 24
-7 73 -16 109 -23 92 -23 429 0 520 9 36 16 85 16 109 0 83 75 162 192 205 25
9 52 24 58 32 14 16 95 20 104 5z m-2983 -232 c30 -6 66 -22 81 -34 15 -13 41
-26 58 -30 17 -4 37 -16 45 -28 48 -76 65 -345 31 -482 -22 -87 -37 -111 -76
-120 -17 -4 -43 -17 -58 -30 -15 -12 -51 -28 -81 -34 -30 -6 -60 -16 -66 -21
-33 -27 -36 14 -36 400 0 386 3 427 36 400 6 -5 36 -15 66 -21z m2414 11 c11
-17 8 -771 -3 -782 -12 -12 -145 26 -162 47 -7 9 -33 20 -57 27 -54 13 -65 30
-88 128 -34 141 -17 400 31 476 7 12 28 24 47 28 19 4 47 16 62 27 23 19 120
56 152 58 6 1 15 -4 18 -9z m-1146 -190 c26 -34 43 -50 96 -94 29 -23 30 -27
30 -106 0 -79 -1 -83 -30 -106 -53 -44 -70 -60 -96 -95 -26 -34 -26 -34 -109
-34 -83 0 -83 0 -109 34 -26 35 -43 51 -95 94 -23 19 -30 33 -34 75 -8 84 3
119 50 152 23 17 52 46 65 66 32 46 54 54 137 51 66 -3 71 -5 95 -37z m-747
-40 c14 -10 49 -28 79 -39 30 -12 71 -35 92 -52 31 -26 37 -37 37 -69 0 -32
-6 -43 -37 -69 -21 -17 -62 -40 -92 -52 -30 -11 -65 -29 -79 -39 -31 -25 -97
-27 -106 -4 -8 20 -8 308 0 328 9 23 75 21 106 -4z m1382 4 c3 -9 6 -82 6
-164 0 -82 -3 -155 -6 -164 -9 -23 -75 -21 -106 4 -14 10 -49 28 -79 39 -30
12 -71 35 -91 52 -32 26 -38 37 -38 69 0 32 6 43 38 69 20 17 61 40 91 52 30
11 65 29 79 39 31 25 97 27 106 4z m-1047 -466 c27 -27 33 -39 33 -76 0 -29
-7 -53 -20 -69 -11 -15 -28 -51 -36 -82 -16 -52 -59 -111 -83 -111 -5 0 -20
15 -32 33 -12 17 -30 39 -38 48 -9 9 -23 25 -33 35 -22 26 -57 56 -95 83 -18
12 -33 27 -33 32 0 24 59 67 112 83 30 9 66 25 79 36 16 13 39 19 69 20 36 0
50 -6 77 -32z m757 8 c20 -13 58 -29 86 -36 46 -11 100 -54 100 -80 0 -5 -15
-19 -32 -31 -18 -12 -40 -30 -49 -38 -9 -9 -25 -23 -35 -32 -18 -15 -43 -45
-85 -101 -11 -16 -25 -28 -30 -28 -24 0 -67 59 -83 111 -8 31 -25 67 -36 82
-13 16 -20 40 -20 68 0 35 6 49 32 76 41 42 99 46 152 9z m-385 -173 c17 -21
40 -62 52 -92 11 -30 29 -65 39 -79 25 -31 27 -97 4 -106 -20 -8 -308 -8 -328
0 -23 9 -21 75 4 106 10 14 28 49 39 79 12 30 35 71 52 92 26 31 37 37 69 37
32 0 43 -6 69 -37z m907 -39 c27 -10 60 -25 74 -34 14 -10 51 -25 82 -34 31
-9 59 -20 63 -25 3 -5 -11 -19 -30 -31 -19 -12 -35 -26 -35 -31 0 -5 -19 -18
-42 -30 -55 -28 -369 -341 -397 -396 -12 -24 -25 -43 -30 -43 -5 0 -19 -16
-31 -36 -13 -19 -26 -32 -30 -27 -5 4 -20 42 -35 83 -14 41 -35 99 -46 129
-28 80 -25 120 12 162 17 19 38 51 46 72 8 20 19 37 24 37 4 0 14 12 22 26 14
27 123 114 143 114 6 0 22 11 36 25 31 31 76 55 104 55 11 0 43 -7 70 -16z
m-1795 -25 c19 -17 48 -37 66 -44 17 -7 40 -22 51 -32 11 -10 30 -27 43 -39
38 -33 71 -76 85 -109 7 -16 26 -45 43 -64 23 -25 31 -44 31 -70 0 -38 -32
-154 -48 -174 -5 -7 -17 -38 -26 -69 -9 -31 -20 -59 -25 -63 -5 -3 -19 11 -31
30 -12 19 -26 35 -31 35 -5 0 -18 19 -30 43 -26 51 -339 367 -389 392 -19 10
-44 27 -55 39 -11 12 -31 28 -45 37 l-25 17 25 10 c14 6 45 17 70 25 25 8 74
27 110 41 91 35 137 34 181 -5z m-572 -203 c19 -14 46 -28 62 -31 16 -4 31
-11 35 -16 3 -5 24 -21 46 -35 52 -33 371 -352 429 -429 25 -34 51 -75 57 -93
6 -18 20 -45 32 -59 28 -35 26 -94 -3 -130 -13 -15 -31 -54 -40 -85 -17 -56
-57 -103 -81 -95 -6 2 -19 21 -29 42 -16 32 -83 118 -164 210 -10 11 -25 36
-34 55 -21 46 -273 297 -319 319 -19 9 -44 24 -55 34 -95 84 -180 150 -210
162 -19 9 -35 21 -35 28 0 25 66 77 116 92 28 8 59 24 69 35 26 28 82 26 124
-4z m2918 1 c15 -13 54 -31 85 -40 56 -17 103 -57 95 -81 -2 -6 -21 -19 -43
-30 -21 -10 -69 -45 -105 -77 -37 -33 -71 -59 -77 -59 -5 0 -15 -7 -23 -16 -7
-8 -29 -24 -48 -34 -49 -24 -310 -286 -330 -330 -9 -19 -24 -44 -34 -55 -81
-92 -148 -178 -164 -210 -10 -21 -23 -40 -29 -42 -24 -8 -64 39 -81 95 -9 31
-27 70 -40 85 -29 36 -31 95 -3 130 12 14 26 41 32 59 19 55 96 147 263 313
166 167 258 244 313 263 18 6 45 20 59 32 35 28 94 26 130 -3z m-1332 -214
c87 -19 111 -34 120 -73 4 -17 17 -43 29 -58 26 -31 61 -161 47 -175 -12 -12
-771 -11 -783 1 -12 12 26 145 47 162 9 7 20 33 27 57 12 51 32 67 103 84 130
30 281 31 410 2z m70 -509 c33 -8 81 -14 106 -14 36 0 56 -7 90 -32 58 -42 75
-63 99 -127 12 -30 30 -67 40 -82 21 -28 28 -103 11 -113 -5 -4 -22 -1 -38 5
-15 6 -68 20 -117 30 -78 17 -134 19 -456 19 -322 0 -378 -2 -456 -19 -49 -10
-102 -24 -117 -30 -16 -6 -33 -9 -38 -5 -15 9 -11 90 6 104 8 6 24 37 35 68
41 110 120 182 199 182 25 0 64 5 86 11 110 29 430 31 550 3z"/>
</g>
</svg>
