<svg id="svg" version="1.1" xmlns="http://www.w3.org/2000/svg" xmlns:xlink="http://www.w3.org/1999/xlink" width="400" height="400" viewBox="0, 0, 400,400"><g id="svgg"><path id="path0" d="M397.600 96.400 C 397.600 96.620,397.060 96.800,396.400 96.800 C 395.637 96.800,395.200 97.004,395.200 97.361 C 395.200 97.748,394.459 98.007,392.800 98.200 C 391.480 98.353,390.400 98.641,390.400 98.839 C 390.400 99.038,389.860 99.200,389.200 99.200 C 388.400 99.200,388.000 99.400,388.000 99.800 C 388.000 100.197,387.603 100.400,386.824 100.400 C 386.177 100.400,385.549 100.559,385.429 100.753 C 385.309 100.948,384.218 101.231,383.005 101.382 C 381.792 101.534,380.542 101.915,380.228 102.229 C 379.914 102.543,379.194 102.800,378.629 102.800 C 378.063 102.800,377.600 102.960,377.600 103.156 C 377.600 103.352,377.015 103.606,376.300 103.720 C 374.408 104.023,373.870 104.177,373.200 104.609 C 371.718 105.564,370.638 106.000,369.754 106.000 C 369.229 106.000,368.800 106.180,368.800 106.400 C 368.800 106.620,368.344 106.800,367.787 106.800 C 367.231 106.800,366.679 107.051,366.561 107.357 C 366.436 107.684,365.462 108.025,364.205 108.182 C 362.752 108.364,361.725 108.763,361.011 109.425 C 360.432 109.961,359.548 110.400,359.046 110.400 C 358.544 110.400,357.998 110.535,357.833 110.700 C 357.669 110.865,357.144 111.042,356.667 111.092 C 354.109 111.365,352.716 111.754,352.526 112.247 C 352.410 112.551,351.894 112.800,351.381 112.800 C 350.867 112.800,350.348 112.960,350.227 113.156 C 350.106 113.351,349.331 113.623,348.504 113.759 C 347.677 113.895,346.682 114.062,346.294 114.129 C 345.905 114.197,345.374 114.466,345.114 114.726 C 344.853 114.987,344.327 115.200,343.944 115.200 C 343.561 115.200,343.136 115.380,343.000 115.600 C 342.864 115.820,342.403 116.000,341.976 116.000 C 341.549 116.000,341.200 116.180,341.200 116.400 C 341.200 116.620,340.654 116.800,339.987 116.800 C 339.302 116.800,338.679 117.050,338.554 117.375 C 338.420 117.726,337.475 118.058,336.135 118.225 C 334.851 118.386,333.849 118.729,333.725 119.050 C 333.609 119.353,333.264 119.600,332.957 119.600 C 332.651 119.600,332.400 119.780,332.400 120.000 C 332.400 120.220,331.770 120.400,331.000 120.400 C 330.230 120.400,329.600 120.557,329.600 120.748 C 329.600 120.940,328.707 121.215,327.616 121.360 C 326.525 121.505,325.517 121.810,325.376 122.039 C 325.235 122.267,324.858 122.354,324.539 122.232 C 324.215 122.107,324.066 122.184,324.203 122.405 C 324.337 122.622,324.024 122.800,323.504 122.800 C 322.985 122.800,322.386 122.974,322.173 123.187 C 321.961 123.399,321.205 123.617,320.493 123.672 C 319.782 123.726,319.200 123.923,319.200 124.109 C 319.200 124.295,319.020 124.336,318.800 124.200 C 318.580 124.064,318.400 124.173,318.400 124.443 C 318.400 124.713,318.287 124.821,318.149 124.683 C 318.011 124.545,317.404 124.688,316.800 125.000 C 316.196 125.312,315.589 125.455,315.451 125.317 C 315.313 125.179,315.200 125.277,315.200 125.533 C 315.200 125.790,314.761 126.000,314.224 126.000 C 313.687 126.000,313.136 126.180,313.000 126.400 C 312.864 126.620,312.425 126.800,312.025 126.800 C 311.625 126.800,311.093 127.048,310.841 127.350 C 310.590 127.653,309.661 128.016,308.777 128.157 C 307.893 128.299,307.067 128.681,306.942 129.007 C 306.817 129.333,306.294 129.600,305.781 129.600 C 305.267 129.600,304.736 129.780,304.600 130.000 C 304.464 130.220,303.834 130.400,303.200 130.400 C 302.566 130.400,301.925 130.597,301.777 130.838 C 301.628 131.078,301.081 131.194,300.562 131.095 C 299.906 130.969,299.549 131.130,299.394 131.620 C 299.240 132.103,298.449 132.470,296.885 132.783 C 295.628 133.035,294.111 133.341,293.513 133.464 C 292.915 133.587,292.218 133.937,291.964 134.244 C 291.710 134.550,291.274 134.800,290.994 134.800 C 290.481 134.800,289.200 137.518,289.200 138.608 C 289.200 138.934,288.900 139.200,288.533 139.200 C 288.167 139.200,287.987 139.321,288.135 139.468 C 288.282 139.616,288.136 140.143,287.811 140.640 C 287.485 141.137,287.101 142.276,286.958 143.172 C 286.815 144.067,286.495 144.800,286.247 144.800 C 285.998 144.800,285.560 145.385,285.271 146.100 C 284.983 146.815,284.579 147.713,284.374 148.095 C 284.168 148.477,284.000 149.042,284.000 149.352 C 284.000 149.661,283.747 150.012,283.438 150.130 C 283.128 150.249,282.755 150.896,282.607 151.568 C 282.459 152.241,282.172 152.894,281.969 153.019 C 281.766 153.145,281.600 153.597,281.600 154.024 C 281.600 154.451,281.330 154.800,281.000 154.800 C 280.667 154.800,280.400 155.156,280.400 155.600 C 280.400 156.040,280.240 156.400,280.045 156.400 C 279.849 156.400,279.574 157.012,279.434 157.760 C 279.294 158.508,278.914 159.340,278.589 159.609 C 278.265 159.878,278.000 160.357,278.000 160.673 C 278.000 160.989,277.816 161.133,277.590 160.994 C 277.365 160.855,277.211 160.889,277.249 161.070 C 277.411 161.849,276.670 164.760,276.329 164.684 C 275.897 164.587,274.000 167.751,274.000 168.568 C 274.000 168.868,273.740 169.214,273.422 169.336 C 273.104 169.458,272.724 170.197,272.578 170.979 C 272.431 171.761,272.151 172.400,271.955 172.400 C 271.760 172.400,271.600 172.730,271.600 173.132 C 271.600 173.535,271.150 174.106,270.600 174.400 C 269.971 174.737,269.600 175.282,269.600 175.872 C 269.600 176.386,269.240 177.116,268.800 177.493 C 268.360 177.870,268.000 178.408,268.000 178.689 C 268.000 178.970,267.841 179.200,267.647 179.200 C 267.333 179.200,267.150 179.607,266.837 181.000 C 266.788 181.220,266.354 181.619,265.874 181.886 C 265.393 182.153,265.126 182.378,265.280 182.386 C 265.687 182.406,264.444 185.263,263.619 186.200 C 263.232 186.640,262.574 187.622,262.158 188.383 C 261.741 189.144,260.979 190.169,260.464 190.663 C 259.949 191.156,259.644 191.748,259.787 191.979 C 259.930 192.211,259.763 192.400,259.415 192.400 C 259.067 192.400,258.564 192.895,258.296 193.500 C 258.028 194.105,257.582 194.838,257.305 195.129 C 257.027 195.419,256.800 195.904,256.800 196.206 C 256.800 196.508,256.466 196.990,256.057 197.277 C 255.649 197.565,255.178 198.233,255.011 198.762 C 254.843 199.292,254.290 200.111,253.781 200.583 C 253.272 201.055,252.743 201.888,252.606 202.435 C 252.468 202.982,251.961 203.603,251.478 203.815 C 250.995 204.027,250.543 204.601,250.473 205.092 C 250.404 205.582,249.819 206.360,249.173 206.819 C 248.528 207.279,248.000 207.915,248.000 208.233 C 248.000 209.033,245.708 211.088,243.900 211.908 C 243.075 212.282,242.400 212.795,242.400 213.047 C 242.400 213.609,236.937 214.181,235.207 213.802 C 234.543 213.656,234.000 213.281,234.000 212.968 C 234.000 212.656,233.865 212.421,233.700 212.447 C 232.487 212.639,232.014 212.283,231.774 211.000 C 231.629 210.230,231.351 209.600,231.155 209.600 C 230.960 209.600,230.800 208.889,230.800 208.020 C 230.800 207.106,230.569 206.305,230.253 206.120 C 229.739 205.819,229.555 204.495,228.546 193.832 C 228.423 192.530,228.070 191.213,227.761 190.904 C 227.397 190.540,227.200 189.448,227.200 187.795 C 227.200 186.394,227.020 185.136,226.800 185.000 C 226.580 184.864,226.400 183.244,226.400 181.400 C 226.400 179.430,226.222 177.937,225.968 177.780 C 225.690 177.608,225.586 176.112,225.676 173.579 C 225.801 170.083,225.738 169.625,225.108 169.460 C 224.497 169.300,224.400 168.783,224.400 165.680 C 224.400 161.834,223.810 160.712,222.790 162.618 C 222.509 163.143,222.129 163.479,221.944 163.366 C 221.760 163.252,221.709 163.420,221.832 163.739 C 221.954 164.058,221.862 164.438,221.627 164.583 C 221.392 164.728,221.200 165.287,221.200 165.824 C 221.200 166.361,221.020 166.800,220.800 166.800 C 220.580 166.800,220.398 167.115,220.396 167.500 C 220.394 167.885,219.854 168.625,219.196 169.145 C 218.538 169.665,218.000 170.399,218.000 170.777 C 218.000 171.155,217.550 171.706,217.000 172.000 C 216.426 172.307,216.000 172.890,215.999 173.368 C 215.998 173.847,215.489 174.540,214.800 175.000 C 214.141 175.440,213.602 176.025,213.601 176.300 C 213.601 176.575,213.448 176.800,213.261 176.800 C 212.729 176.800,211.200 178.244,211.200 178.747 C 211.200 179.148,210.372 179.389,209.489 179.244 C 209.318 179.216,209.073 179.464,208.946 179.796 C 208.819 180.128,208.374 180.400,207.957 180.400 C 207.541 180.400,207.200 180.670,207.200 181.000 C 207.200 181.400,206.800 181.600,206.000 181.600 C 205.340 181.600,204.800 181.780,204.800 182.000 C 204.800 182.236,203.383 182.400,201.349 182.400 L 197.898 182.400 198.151 184.100 C 198.438 186.035,199.673 193.002,200.826 199.200 C 201.540 203.038,202.893 210.658,204.804 221.600 C 205.207 223.910,205.924 227.870,206.397 230.400 C 206.870 232.930,207.402 235.900,207.579 237.000 C 207.755 238.100,208.367 241.430,208.938 244.400 C 210.677 253.446,213.389 268.359,214.794 276.600 C 217.644 293.317,218.202 295.617,219.245 294.972 C 219.440 294.851,219.600 294.403,219.600 293.976 C 219.600 293.549,219.772 293.200,219.983 293.200 C 220.194 293.200,220.841 292.390,221.421 291.400 C 222.001 290.410,222.639 289.600,222.838 289.600 C 223.037 289.600,223.200 289.330,223.200 289.000 C 223.200 288.670,223.380 288.400,223.600 288.400 C 223.820 288.400,224.000 288.212,224.000 287.982 C 224.000 287.752,224.450 287.114,225.000 286.564 C 225.550 286.014,226.000 285.419,226.000 285.243 C 226.000 284.725,227.453 283.200,227.947 283.200 C 228.196 283.200,228.400 283.012,228.400 282.783 C 228.400 282.554,228.586 282.149,228.814 281.883 C 229.041 281.617,229.504 281.040,229.843 280.600 C 230.182 280.160,230.328 280.053,230.168 280.362 C 229.976 280.731,230.035 280.826,230.338 280.638 C 230.592 280.481,230.800 280.093,230.800 279.776 C 230.800 279.459,230.977 279.200,231.192 279.200 C 231.408 279.200,231.700 278.739,231.842 278.176 C 231.999 277.548,232.304 277.231,232.629 277.356 C 232.939 277.475,233.080 277.351,232.967 277.059 C 232.862 276.783,233.332 276.028,234.012 275.379 C 234.692 274.731,235.462 273.962,235.724 273.672 C 235.986 273.381,236.533 272.841,236.939 272.472 C 239.480 270.162,241.600 267.947,241.600 267.603 C 241.600 266.891,244.471 264.000,245.179 264.000 C 245.556 264.000,246.106 263.550,246.400 263.000 C 246.694 262.450,247.080 262.000,247.258 262.000 C 247.435 262.000,248.154 261.369,248.856 260.599 C 249.557 259.828,250.213 259.279,250.313 259.380 C 250.543 259.610,251.600 258.573,251.600 258.117 C 251.600 257.771,253.045 256.400,253.411 256.400 C 253.521 256.400,254.445 255.590,255.464 254.600 C 256.483 253.610,257.478 252.800,257.675 252.800 C 258.048 252.800,258.622 252.373,260.120 250.981 C 260.604 250.531,261.586 249.818,262.300 249.395 C 263.015 248.973,263.600 248.486,263.600 248.314 C 263.600 248.141,263.870 248.000,264.200 248.000 C 264.530 248.000,264.800 247.820,264.800 247.600 C 264.800 247.380,265.070 247.200,265.400 247.200 C 265.730 247.200,266.000 247.020,266.000 246.800 C 266.000 246.580,266.261 246.400,266.580 246.400 C 266.899 246.400,267.304 246.156,267.480 245.858 C 267.656 245.559,268.475 244.999,269.300 244.612 C 270.125 244.225,270.802 243.704,270.805 243.454 C 270.807 243.204,271.565 242.640,272.488 242.200 C 273.411 241.760,274.605 240.995,275.142 240.500 C 275.678 240.005,276.390 239.600,276.723 239.600 C 277.057 239.600,278.066 239.173,278.965 238.651 C 279.864 238.129,281.050 237.564,281.600 237.395 C 282.150 237.227,282.961 236.709,283.403 236.244 C 284.258 235.345,286.872 234.000,287.765 234.000 C 288.060 234.000,288.526 233.730,288.800 233.400 C 289.074 233.070,289.636 232.800,290.049 232.800 C 290.462 232.800,290.800 232.620,290.800 232.400 C 290.800 232.180,291.149 232.000,291.576 232.000 C 292.003 232.000,292.459 231.828,292.589 231.617 C 292.719 231.407,293.097 231.339,293.428 231.466 C 293.759 231.593,294.338 231.433,294.715 231.109 C 295.734 230.235,298.276 229.444,301.100 229.123 C 301.375 229.092,301.600 228.922,301.600 228.746 C 301.600 228.569,301.870 228.529,302.200 228.655 C 302.530 228.782,302.800 228.715,302.800 228.506 C 302.800 228.050,305.482 227.200,306.923 227.200 C 307.489 227.200,308.064 227.020,308.200 226.800 C 308.336 226.580,309.162 226.400,310.036 226.400 C 311.027 226.400,311.706 226.190,311.840 225.841 C 311.992 225.444,313.193 225.201,316.000 225.000 C 318.902 224.792,320.005 224.563,320.171 224.132 C 320.341 223.689,321.055 223.560,323.098 223.603 C 326.790 223.682,326.580 223.731,327.860 222.500 C 328.881 221.519,329.008 221.118,329.035 218.800 C 329.084 214.684,329.662 208.636,330.048 208.220 C 330.242 208.011,330.400 207.175,330.400 206.363 C 330.400 205.455,330.619 204.802,330.969 204.667 C 331.304 204.539,331.454 204.128,331.334 203.670 C 331.222 203.241,331.326 202.769,331.565 202.622 C 331.804 202.474,332.000 201.744,332.000 201.000 C 332.000 200.256,332.180 199.536,332.400 199.400 C 332.620 199.264,332.806 198.578,332.813 197.876 C 332.820 197.174,333.090 196.251,333.413 195.824 C 333.736 195.396,334.000 194.721,334.000 194.324 C 334.000 193.926,334.167 193.600,334.371 193.600 C 334.575 193.600,334.866 192.610,335.017 191.400 C 335.202 189.925,335.475 189.200,335.846 189.200 C 336.212 189.200,336.400 188.726,336.400 187.800 C 336.400 187.030,336.541 186.400,336.713 186.400 C 336.885 186.400,337.264 185.591,337.556 184.603 C 337.868 183.547,338.259 182.913,338.505 183.065 C 338.735 183.207,338.812 183.142,338.675 182.921 C 338.538 182.699,338.684 182.176,339.000 181.759 C 339.316 181.342,339.580 180.426,339.587 179.724 C 339.594 179.022,339.780 178.336,340.000 178.200 C 340.220 178.064,340.400 177.603,340.400 177.176 C 340.400 176.749,340.648 176.400,340.950 176.400 C 341.498 176.400,342.000 174.752,342.000 172.950 C 342.000 172.428,342.180 172.000,342.400 172.000 C 342.620 172.000,342.800 171.749,342.800 171.443 C 342.800 171.136,343.070 170.782,343.400 170.655 C 343.730 170.529,344.000 170.059,344.000 169.613 C 344.000 169.166,344.172 168.800,344.382 168.800 C 344.592 168.800,344.882 168.170,345.026 167.400 C 345.177 166.598,345.526 166.000,345.845 166.000 C 346.170 166.000,346.400 165.587,346.400 165.000 C 346.400 164.450,346.550 164.000,346.732 164.000 C 346.915 164.000,347.320 163.505,347.632 162.900 C 347.945 162.295,348.427 161.620,348.705 161.400 C 348.982 161.180,349.283 160.615,349.373 160.145 C 349.553 159.206,350.222 157.922,351.300 156.449 C 351.685 155.923,352.000 155.169,352.000 154.775 C 352.000 154.381,352.450 153.704,353.000 153.271 C 353.550 152.839,354.000 152.313,354.000 152.104 C 354.000 151.368,355.294 149.139,355.844 148.928 C 356.150 148.810,356.400 148.416,356.400 148.052 C 356.400 147.688,356.850 147.052,357.400 146.639 C 357.950 146.226,358.400 145.665,358.400 145.393 C 358.400 145.121,358.670 144.674,359.000 144.400 C 359.330 144.126,359.600 143.474,359.600 142.951 C 359.600 142.372,359.835 142.000,360.200 142.000 C 360.530 142.000,360.800 141.730,360.800 141.400 C 360.800 141.070,360.980 140.800,361.200 140.800 C 361.420 140.800,361.600 140.524,361.600 140.187 C 361.600 139.851,361.863 139.474,362.185 139.350 C 362.506 139.227,362.885 138.761,363.027 138.315 C 363.168 137.869,363.805 136.959,364.442 136.293 C 365.079 135.627,365.600 134.878,365.600 134.629 C 365.600 134.380,365.960 133.917,366.400 133.600 C 366.840 133.283,367.200 132.783,367.200 132.488 C 367.200 132.194,367.365 132.055,367.566 132.179 C 367.767 132.303,368.345 131.735,368.851 130.917 C 369.357 130.099,370.092 129.108,370.485 128.715 C 370.878 128.322,371.200 127.850,371.200 127.666 C 371.200 127.482,372.010 126.510,373.000 125.506 C 373.990 124.502,374.800 123.468,374.800 123.209 C 374.800 122.949,375.880 121.732,377.200 120.503 C 378.520 119.275,379.600 118.029,379.600 117.735 C 379.600 117.441,379.831 117.200,380.114 117.200 C 380.396 117.200,380.941 116.670,381.323 116.022 C 381.706 115.374,382.730 114.159,383.598 113.322 C 384.466 112.485,385.406 111.566,385.688 111.280 C 385.970 110.994,386.550 110.454,386.977 110.080 C 387.404 109.706,388.273 108.905,388.908 108.300 C 389.542 107.695,390.258 107.200,390.497 107.200 C 390.737 107.200,390.828 107.095,390.700 106.967 C 390.449 106.715,390.730 106.361,393.371 103.600 C 394.963 101.936,396.907 100.374,397.382 100.378 C 398.151 100.384,399.600 98.343,399.600 97.254 C 399.600 96.183,399.454 96.000,398.600 96.000 C 398.050 96.000,397.600 96.180,397.600 96.400 " stroke="none" fill="#14bbfb" fill-rule="evenodd"></path><path id="path1" d="M0.915 96.676 C 0.771 97.053,0.865 97.422,1.128 97.509 C 1.388 97.596,1.600 97.829,1.600 98.026 C 1.600 98.608,5.013 102.000,5.598 102.000 C 5.892 102.000,6.024 102.109,5.891 102.243 C 5.757 102.376,6.852 103.681,8.325 105.143 C 9.797 106.604,11.632 108.603,12.401 109.585 C 14.136 111.798,17.459 115.200,17.887 115.200 C 18.062 115.200,18.425 115.695,18.695 116.300 C 18.964 116.905,20.358 118.624,21.792 120.121 C 23.226 121.617,24.400 122.985,24.400 123.160 C 24.400 123.334,24.985 124.111,25.700 124.886 C 27.123 126.427,27.887 127.367,30.000 130.175 C 30.770 131.199,31.985 132.683,32.700 133.474 C 33.415 134.265,34.000 135.113,34.000 135.360 C 34.000 135.606,34.343 136.022,34.762 136.283 C 35.181 136.545,35.944 137.600,36.457 138.629 C 36.971 139.657,37.618 140.586,37.895 140.692 C 38.173 140.798,38.400 141.136,38.400 141.443 C 38.400 141.749,38.580 142.000,38.800 142.000 C 39.020 142.000,39.200 142.260,39.200 142.577 C 39.200 142.895,39.518 143.390,39.906 143.677 C 40.295 143.965,40.831 144.695,41.098 145.300 C 41.364 145.905,41.767 146.400,41.991 146.400 C 42.216 146.400,42.400 146.642,42.400 146.939 C 42.400 147.235,42.760 147.893,43.200 148.400 C 43.640 148.907,44.000 149.503,44.000 149.723 C 44.000 149.944,44.450 150.714,45.000 151.436 C 45.550 152.157,46.000 152.949,46.000 153.197 C 46.000 153.445,46.180 153.536,46.400 153.400 C 46.620 153.264,46.800 153.504,46.800 153.934 C 46.800 154.363,47.053 154.812,47.362 154.930 C 47.672 155.049,48.040 155.674,48.182 156.319 C 48.324 156.964,48.746 157.831,49.120 158.246 C 49.494 158.661,50.306 159.990,50.925 161.200 C 52.244 163.778,52.907 164.923,53.242 165.200 C 53.375 165.310,53.704 166.075,53.973 166.900 C 54.242 167.725,54.583 168.401,54.731 168.403 C 55.066 168.407,56.000 170.377,56.000 171.080 C 56.000 171.366,56.180 171.600,56.400 171.600 C 56.620 171.600,56.800 171.941,56.800 172.357 C 56.800 172.774,57.031 173.203,57.313 173.311 C 57.594 173.419,58.056 174.407,58.337 175.506 C 58.619 176.605,59.163 178.110,59.547 178.852 C 59.931 179.593,60.595 181.280,61.022 182.600 C 61.450 183.920,62.025 185.238,62.300 185.529 C 62.575 185.819,62.800 186.394,62.800 186.805 C 62.800 187.216,62.963 187.654,63.163 187.777 C 63.362 187.900,63.649 188.905,63.801 190.011 C 63.954 191.116,64.330 192.273,64.639 192.582 C 64.948 192.890,65.200 193.685,65.200 194.348 C 65.200 195.011,65.380 195.664,65.600 195.800 C 65.820 195.936,66.000 196.566,66.000 197.200 C 66.000 197.834,66.180 198.464,66.400 198.600 C 66.620 198.736,66.800 199.458,66.800 200.204 C 66.800 200.950,67.047 201.704,67.348 201.880 C 68.004 202.263,68.552 209.413,68.460 216.400 C 68.387 221.954,68.700 222.800,70.825 222.800 C 71.780 222.800,72.397 223.015,72.545 223.400 C 72.714 223.841,73.409 224.000,75.164 224.000 C 76.478 224.000,77.650 224.157,77.768 224.348 C 77.886 224.539,79.776 224.823,81.968 224.978 C 84.640 225.168,86.108 225.448,86.425 225.830 C 86.685 226.144,87.495 226.400,88.225 226.400 C 88.955 226.400,89.664 226.580,89.800 226.800 C 89.936 227.020,90.444 227.200,90.929 227.200 C 91.414 227.200,92.799 227.579,94.006 228.042 C 95.213 228.506,97.040 229.091,98.067 229.343 C 99.094 229.595,100.069 229.935,100.234 230.100 C 100.398 230.265,100.938 230.400,101.433 230.400 C 101.928 230.400,102.397 230.590,102.474 230.822 C 102.551 231.054,103.421 231.417,104.407 231.629 C 106.162 232.006,107.600 232.536,108.800 233.249 C 109.130 233.445,109.670 233.713,110.000 233.845 C 110.330 233.978,111.167 234.336,111.860 234.643 C 112.554 234.949,113.389 235.200,113.718 235.200 C 114.046 235.200,114.418 235.470,114.545 235.800 C 114.671 236.130,115.045 236.400,115.375 236.400 C 116.053 236.400,118.513 237.716,119.953 238.849 C 120.478 239.262,121.244 239.600,121.654 239.600 C 122.064 239.600,122.400 239.780,122.400 240.000 C 122.400 240.220,122.670 240.400,123.000 240.400 C 123.330 240.400,123.960 240.760,124.400 241.200 C 124.840 241.640,125.650 242.000,126.200 242.000 C 126.750 242.000,127.200 242.180,127.200 242.400 C 127.200 242.620,127.470 242.800,127.800 242.800 C 128.130 242.800,128.403 243.025,128.406 243.300 C 128.411 243.674,128.497 243.666,128.751 243.266 C 129.008 242.860,129.141 242.930,129.306 243.561 C 129.501 244.306,131.341 245.428,132.100 245.265 C 132.265 245.229,132.400 245.470,132.400 245.800 C 132.400 246.130,132.625 246.401,132.900 246.401 C 133.175 246.402,135.074 247.662,137.119 249.201 C 139.165 250.741,140.995 252.000,141.186 252.000 C 141.377 252.000,141.593 252.136,141.667 252.303 C 141.864 252.752,145.060 255.199,145.458 255.206 C 145.646 255.210,146.737 256.065,147.883 257.106 C 149.028 258.148,150.633 259.540,151.450 260.200 C 152.266 260.860,153.688 262.165,154.611 263.100 C 155.533 264.035,156.493 264.800,156.744 264.800 C 156.995 264.800,157.200 265.070,157.200 265.400 C 157.200 265.730,157.377 266.000,157.593 266.000 C 157.809 266.000,158.831 266.810,159.865 267.800 C 160.898 268.790,161.891 269.600,162.072 269.600 C 162.252 269.600,162.400 269.796,162.400 270.036 C 162.400 270.538,163.267 271.511,168.100 276.427 C 170.025 278.385,171.600 280.086,171.600 280.207 C 171.600 280.328,172.095 280.940,172.700 281.566 C 175.752 284.727,177.201 286.366,177.211 286.667 C 177.217 286.850,177.961 287.808,178.866 288.795 C 179.770 289.782,180.943 291.276,181.472 292.114 C 182.001 292.952,182.680 293.733,182.981 293.848 C 183.282 293.963,183.637 294.495,183.772 295.029 C 183.906 295.563,184.192 296.000,184.408 296.000 C 184.623 296.000,184.805 296.225,184.811 296.500 C 184.817 296.775,185.357 297.525,186.011 298.167 C 186.665 298.808,187.200 299.530,187.200 299.771 C 187.200 300.011,187.605 300.666,188.100 301.225 C 188.993 302.235,189.249 302.596,190.849 305.100 C 191.305 305.815,191.841 306.400,192.040 306.400 C 192.238 306.400,192.400 306.642,192.400 306.939 C 192.400 307.235,192.760 307.893,193.200 308.400 C 193.640 308.907,194.000 309.556,194.000 309.841 C 194.000 310.127,194.236 310.504,194.523 310.680 C 194.811 310.856,195.283 311.585,195.572 312.300 C 195.861 313.015,196.255 313.600,196.449 313.600 C 196.642 313.600,196.800 313.960,196.800 314.400 C 196.800 314.850,197.067 315.200,197.410 315.200 C 197.768 315.200,198.119 315.696,198.260 316.400 C 198.392 317.060,198.658 317.600,198.850 317.600 C 199.043 317.600,199.200 317.870,199.200 318.200 C 199.200 318.530,199.384 318.800,199.610 318.800 C 199.835 318.800,200.191 319.250,200.400 319.800 C 201.180 321.852,203.245 321.060,204.573 318.200 C 204.981 317.320,205.559 316.456,205.858 316.280 C 206.156 316.104,206.400 315.720,206.400 315.426 C 206.400 315.132,207.076 313.836,207.902 312.546 C 208.727 311.256,209.633 309.840,209.913 309.400 C 210.194 308.960,210.529 308.285,210.658 307.900 C 210.788 307.515,211.052 307.200,211.247 307.200 C 211.441 307.200,211.600 306.954,211.600 306.654 C 211.600 306.354,212.135 305.499,212.789 304.754 C 213.442 304.009,214.200 302.868,214.472 302.217 C 214.743 301.567,215.288 300.712,215.683 300.317 C 216.077 299.923,216.400 299.330,216.400 299.000 C 216.400 298.670,216.535 298.394,216.700 298.387 C 217.307 298.362,218.513 296.317,218.079 296.049 C 217.845 295.904,217.186 293.359,216.614 290.393 C 216.043 287.427,215.414 284.190,215.218 283.200 C 214.904 281.623,214.388 278.846,212.765 270.000 C 212.543 268.790,212.205 266.990,212.013 266.000 C 211.470 263.189,210.902 260.032,209.387 251.400 C 208.615 247.000,207.726 241.960,207.412 240.200 C 207.097 238.440,206.555 235.380,206.208 233.400 C 205.860 231.420,205.399 228.900,205.183 227.800 C 204.787 225.790,203.554 219.070,202.761 214.600 C 202.526 213.280,202.165 211.390,201.957 210.400 C 201.539 208.410,200.104 200.514,198.539 191.600 C 197.979 188.410,197.423 184.817,197.304 183.615 C 197.109 181.657,196.522 180.400,195.800 180.400 C 195.659 180.400,195.273 180.130,194.943 179.800 C 194.613 179.470,193.996 179.200,193.571 179.200 C 193.147 179.200,192.800 179.022,192.800 178.805 C 192.800 178.196,191.485 176.800,190.911 176.800 C 190.630 176.800,190.400 176.545,190.400 176.233 C 190.400 175.922,190.265 175.607,190.100 175.533 C 189.935 175.460,189.530 174.930,189.200 174.356 C 187.792 171.907,185.908 169.200,185.610 169.200 C 185.434 169.200,185.174 168.588,185.034 167.840 C 184.894 167.092,184.334 165.824,183.789 165.022 C 183.245 164.221,182.800 163.369,182.800 163.129 C 182.800 162.240,181.171 161.237,180.268 161.570 C 179.438 161.877,179.395 162.151,179.289 167.837 C 179.228 171.107,179.003 173.957,178.789 174.171 C 178.575 174.385,178.400 175.941,178.400 177.630 C 178.400 179.318,178.151 181.406,177.846 182.270 C 177.541 183.134,177.161 185.721,177.002 188.020 C 176.843 190.319,176.534 192.537,176.316 192.948 C 176.016 193.516,176.041 193.622,176.422 193.386 C 176.780 193.165,176.823 193.238,176.573 193.638 C 176.132 194.345,176.050 194.858,175.930 197.672 C 175.875 198.979,175.657 199.914,175.417 199.872 C 175.184 199.832,174.947 200.725,174.879 201.900 C 174.813 203.055,174.611 204.000,174.431 204.000 C 174.251 204.000,173.983 205.063,173.836 206.363 C 173.665 207.873,173.358 208.807,172.984 208.951 C 172.663 209.074,172.400 209.458,172.400 209.804 C 172.400 210.151,172.224 210.651,172.010 210.917 C 171.795 211.183,171.210 211.904,170.710 212.521 C 169.273 214.291,162.800 214.710,162.800 213.033 C 162.800 212.780,162.297 212.275,161.681 211.912 C 161.066 211.548,160.315 210.789,160.014 210.225 C 159.712 209.661,159.302 209.200,159.104 209.200 C 158.617 209.200,157.600 208.155,157.600 207.656 C 157.600 207.435,157.240 207.140,156.800 207.000 C 156.360 206.860,156.000 206.568,156.000 206.350 C 156.000 205.990,155.122 204.955,151.900 201.513 C 151.295 200.867,150.800 200.238,150.800 200.115 C 150.800 199.992,150.395 199.497,149.900 199.014 C 148.598 197.744,147.600 196.447,147.600 196.023 C 147.600 195.820,147.060 195.270,146.400 194.800 C 145.740 194.330,145.200 193.721,145.200 193.448 C 145.200 193.174,144.660 192.432,144.000 191.800 C 143.340 191.168,142.800 190.480,142.800 190.271 C 142.800 190.062,142.395 189.510,141.900 189.043 C 141.405 188.576,140.746 187.703,140.436 187.104 C 140.126 186.504,139.585 185.695,139.235 185.307 C 138.499 184.491,137.998 183.779,135.073 179.400 C 133.898 177.640,132.821 175.885,132.681 175.500 C 132.540 175.115,132.268 174.800,132.076 174.800 C 131.883 174.800,131.383 174.128,130.963 173.306 C 130.543 172.484,129.975 171.572,129.700 171.278 C 129.425 170.983,129.200 170.486,129.200 170.171 C 129.200 169.857,129.020 169.600,128.800 169.600 C 128.580 169.600,128.400 169.302,128.400 168.938 C 128.400 168.574,127.976 167.719,127.458 167.038 C 126.522 165.809,125.769 164.075,125.921 163.500 C 125.964 163.335,125.820 163.200,125.600 163.200 C 125.380 163.200,125.200 162.840,125.200 162.400 C 125.200 161.960,124.975 161.600,124.700 161.600 C 124.425 161.600,123.853 160.516,123.430 159.191 C 123.007 157.866,122.422 156.584,122.130 156.342 C 121.839 156.100,121.600 155.654,121.600 155.351 C 121.600 155.048,121.440 154.800,121.245 154.800 C 121.050 154.800,120.770 153.992,120.622 153.005 C 120.474 152.017,120.093 150.950,119.776 150.633 C 119.459 150.316,119.200 149.772,119.200 149.423 C 119.200 149.074,119.035 148.477,118.833 148.095 C 118.632 147.713,118.165 146.365,117.796 145.099 C 117.427 143.834,116.963 142.899,116.765 143.021 C 116.567 143.144,116.427 142.829,116.453 142.322 C 116.542 140.621,115.904 136.201,115.550 136.067 C 115.357 135.993,115.200 135.138,115.200 134.167 C 115.200 132.863,115.043 132.400,114.600 132.400 C 114.270 132.400,114.000 132.144,114.000 131.831 C 114.000 131.184,112.073 130.459,110.000 130.327 C 109.230 130.278,108.498 130.093,108.374 129.915 C 108.036 129.431,103.763 128.000,102.659 128.000 C 102.130 128.000,101.474 127.730,101.200 127.400 C 100.926 127.070,100.285 126.800,99.775 126.800 C 99.265 126.800,98.736 126.620,98.600 126.400 C 98.464 126.180,98.001 126.000,97.571 126.000 C 97.141 126.000,96.477 125.844,96.095 125.653 C 94.748 124.979,91.385 123.884,90.096 123.699 C 89.379 123.596,88.694 123.351,88.573 123.156 C 88.452 122.960,87.986 122.800,87.538 122.800 C 87.090 122.800,86.246 122.544,85.662 122.231 C 84.178 121.436,80.650 120.400,79.425 120.400 C 78.861 120.400,78.400 120.234,78.400 120.032 C 78.400 119.829,77.815 119.538,77.100 119.386 C 76.385 119.233,75.620 118.970,75.400 118.802 C 75.180 118.635,73.785 118.371,72.300 118.217 C 70.366 118.016,69.600 117.775,69.600 117.368 C 69.600 117.004,69.170 116.800,68.400 116.800 C 67.740 116.800,67.200 116.620,67.200 116.400 C 67.200 116.180,66.671 116.000,66.024 116.000 C 65.377 116.000,64.736 115.820,64.600 115.600 C 64.464 115.380,63.901 115.200,63.348 115.200 C 62.795 115.200,62.078 114.935,61.754 114.612 C 61.431 114.288,60.274 113.905,59.183 113.760 C 58.092 113.615,57.200 113.340,57.200 113.148 C 57.200 112.957,56.719 112.800,56.131 112.800 C 55.544 112.800,54.779 112.560,54.431 112.267 C 54.084 111.974,52.193 111.348,50.229 110.875 C 48.264 110.403,46.512 109.787,46.335 109.508 C 46.157 109.229,46.009 109.140,46.006 109.310 C 46.003 109.481,45.440 109.331,44.756 108.977 C 43.848 108.508,43.599 108.478,43.833 108.867 C 44.088 109.290,44.033 109.302,43.567 108.926 C 43.244 108.665,42.043 108.327,40.897 108.175 C 39.751 108.023,38.609 107.652,38.358 107.349 C 38.107 107.047,37.474 106.800,36.951 106.800 C 36.428 106.800,36.000 106.620,36.000 106.400 C 36.000 106.180,35.381 106.000,34.624 106.000 C 33.867 106.000,33.136 105.820,33.000 105.600 C 32.864 105.380,32.335 105.200,31.825 105.200 C 31.315 105.200,30.687 104.946,30.429 104.635 C 30.171 104.324,29.069 103.947,27.980 103.797 C 26.892 103.648,25.900 103.362,25.777 103.163 C 25.654 102.963,25.043 102.800,24.419 102.800 C 23.781 102.800,23.185 102.538,23.055 102.200 C 22.929 101.870,22.482 101.600,22.063 101.600 C 21.644 101.600,20.550 101.335,19.632 101.011 C 18.714 100.688,17.347 100.381,16.593 100.330 C 15.840 100.280,15.134 100.005,15.024 99.719 C 14.915 99.434,14.369 99.200,13.813 99.200 C 13.256 99.200,12.800 99.038,12.800 98.839 C 12.800 98.641,11.720 98.353,10.400 98.200 C 9.023 98.040,7.997 97.725,7.994 97.461 C 7.990 97.203,7.811 97.264,7.587 97.600 C 7.237 98.123,7.133 98.111,6.773 97.500 C 6.546 97.115,5.930 96.800,5.404 96.800 C 4.878 96.800,4.336 96.620,4.200 96.400 C 3.772 95.708,1.204 95.924,0.915 96.676 " stroke="none" fill="#fb5c63" fill-rule="evenodd"></path><path id="path2" d="M1.052 95.916 C 0.944 96.090,1.473 96.161,2.228 96.073 C 2.983 95.985,3.600 95.842,3.600 95.756 C 3.600 95.455,1.245 95.603,1.052 95.916 M4.200 96.400 C 4.336 96.620,4.807 96.800,5.247 96.800 C 5.687 96.800,5.936 96.620,5.800 96.400 C 5.664 96.180,5.193 96.000,4.753 96.000 C 4.313 96.000,4.064 96.180,4.200 96.400 M395.800 96.400 C 395.660 96.627,395.996 96.800,396.576 96.800 C 397.139 96.800,397.600 96.620,397.600 96.400 C 397.600 96.180,397.251 96.000,396.824 96.000 C 396.397 96.000,395.936 96.180,395.800 96.400 M6.655 97.400 C 6.935 98.130,7.461 98.179,7.735 97.500 C 7.896 97.100,7.943 97.100,7.968 97.500 C 7.986 97.775,8.292 98.000,8.649 98.000 C 9.180 98.000,9.208 97.891,8.800 97.400 C 8.526 97.070,7.880 96.800,7.364 96.800 C 6.694 96.800,6.491 96.972,6.655 97.400 M393.200 97.400 C 392.926 97.730,392.244 98.000,391.684 98.000 C 391.125 98.000,390.766 98.099,390.887 98.220 C 391.345 98.679,395.200 97.900,395.200 97.348 C 395.200 96.613,393.823 96.649,393.200 97.400 M389.000 98.800 C 388.864 99.020,389.123 99.200,389.576 99.200 C 390.029 99.200,390.400 99.020,390.400 98.800 C 390.400 98.580,390.141 98.400,389.824 98.400 C 389.507 98.400,389.136 98.580,389.000 98.800 M2.202 99.602 C 2.602 100.044,3.011 100.322,3.112 100.221 C 3.328 100.005,2.188 98.800,1.767 98.800 C 1.607 98.800,1.803 99.161,2.202 99.602 M15.030 99.733 C 15.142 100.027,15.494 100.267,15.811 100.267 C 16.246 100.267,16.279 100.136,15.945 99.733 C 15.701 99.440,15.350 99.200,15.164 99.200 C 14.977 99.200,14.917 99.440,15.030 99.733 M386.400 99.800 C 385.979 100.307,386.064 100.400,386.951 100.400 C 387.617 100.400,388.000 100.181,388.000 99.800 C 388.000 99.470,387.752 99.200,387.449 99.200 C 387.146 99.200,386.674 99.470,386.400 99.800 M396.276 100.914 C 394.336 102.442,392.043 104.771,391.560 105.704 C 391.116 106.562,391.128 106.571,391.848 105.921 C 392.262 105.547,393.559 104.377,394.731 103.321 C 397.484 100.841,398.623 99.066,396.276 100.914 M3.600 100.641 C 3.600 101.358,5.487 102.906,5.781 102.430 C 5.928 102.194,5.777 102.000,5.446 102.000 C 5.116 102.000,4.565 101.600,4.223 101.111 C 3.880 100.622,3.600 100.411,3.600 100.641 M382.800 101.010 L 381.400 101.560 383.200 101.329 C 384.190 101.202,385.171 100.941,385.380 100.749 C 385.954 100.222,384.409 100.379,382.800 101.010 M6.000 103.118 C 6.000 103.292,6.720 104.117,7.600 104.951 C 8.480 105.785,9.200 106.341,9.200 106.187 C 9.200 106.033,8.480 105.208,7.600 104.354 C 6.720 103.500,6.000 102.944,6.000 103.118 M36.000 106.400 C 36.000 106.620,36.405 106.797,36.900 106.794 C 37.628 106.789,37.685 106.714,37.200 106.400 C 36.424 105.899,36.000 105.899,36.000 106.400 M367.400 106.400 C 367.264 106.620,367.523 106.800,367.976 106.800 C 368.429 106.800,368.800 106.620,368.800 106.400 C 368.800 106.180,368.541 106.000,368.224 106.000 C 367.907 106.000,367.536 106.180,367.400 106.400 M38.400 107.400 C 38.674 107.730,39.258 108.000,39.698 108.000 C 40.364 108.000,40.414 107.899,40.000 107.400 C 39.726 107.070,39.142 106.800,38.702 106.800 C 38.036 106.800,37.986 106.901,38.400 107.400 M364.800 107.400 C 364.380 107.906,364.459 108.000,365.308 108.000 C 365.862 108.000,366.418 107.730,366.545 107.400 C 366.698 107.000,366.529 106.800,366.036 106.800 C 365.630 106.800,365.074 107.070,364.800 107.400 M360.200 108.800 C 360.064 109.020,359.598 109.200,359.164 109.200 C 358.730 109.200,358.271 109.470,358.145 109.800 C 358.018 110.130,357.529 110.414,357.057 110.430 C 356.586 110.447,355.570 110.719,354.800 111.033 C 353.485 111.571,353.473 111.592,354.600 111.379 C 355.260 111.254,356.190 111.117,356.667 111.076 C 357.144 111.034,357.669 110.865,357.833 110.700 C 357.998 110.535,358.544 110.400,359.046 110.400 C 359.548 110.400,360.444 109.950,361.038 109.400 C 362.048 108.464,362.063 108.400,361.282 108.400 C 360.823 108.400,360.336 108.580,360.200 108.800 M386.970 110.005 C 386.546 110.448,385.966 111.033,385.680 111.305 C 381.890 114.910,380.168 117.017,381.399 116.545 C 381.729 116.418,382.000 116.064,382.000 115.757 C 382.000 115.451,382.230 115.200,382.511 115.200 C 382.792 115.200,383.917 114.184,385.011 112.943 C 386.105 111.701,387.349 110.351,387.775 109.943 C 388.202 109.534,388.368 109.200,388.145 109.200 C 387.922 109.200,387.393 109.562,386.970 110.005 M351.600 112.200 C 351.195 112.688,351.215 112.800,351.708 112.800 C 352.042 112.800,352.418 112.530,352.545 112.200 C 352.671 111.870,352.623 111.600,352.436 111.600 C 352.250 111.600,351.874 111.870,351.600 112.200 M349.000 113.200 C 348.864 113.420,349.023 113.600,349.353 113.600 C 349.683 113.600,350.064 113.420,350.200 113.200 C 350.336 112.980,350.177 112.800,349.847 112.800 C 349.517 112.800,349.136 112.980,349.000 113.200 M16.800 114.963 C 16.800 115.011,17.338 115.566,17.996 116.196 L 19.192 117.342 18.696 116.291 C 18.320 115.496,16.800 114.430,16.800 114.963 M340.000 116.400 C 339.515 116.714,339.572 116.789,340.300 116.794 C 340.795 116.797,341.200 116.620,341.200 116.400 C 341.200 115.899,340.776 115.899,340.000 116.400 M69.600 117.404 C 69.600 117.904,73.493 118.641,73.913 118.220 C 74.034 118.099,73.664 118.000,73.090 118.000 C 72.517 118.000,71.949 117.841,71.830 117.648 C 71.465 117.059,69.600 116.855,69.600 117.404 M337.500 117.076 C 336.563 117.321,336.605 118.000,337.557 118.000 C 337.974 118.000,338.418 117.730,338.545 117.400 C 338.781 116.785,338.705 116.761,337.500 117.076 M332.400 118.761 C 332.070 118.934,331.381 119.294,330.870 119.560 C 330.358 119.827,328.754 120.411,327.305 120.858 C 325.856 121.306,324.417 121.926,324.107 122.236 C 323.364 122.979,324.033 122.962,325.024 122.213 C 325.451 121.890,326.655 121.507,327.700 121.362 C 328.745 121.216,329.600 120.940,329.600 120.748 C 329.600 120.557,330.230 120.400,331.000 120.400 C 331.770 120.400,332.400 120.220,332.400 120.000 C 332.400 119.780,332.651 119.600,332.957 119.600 C 333.264 119.600,333.618 119.330,333.745 119.000 C 333.992 118.356,333.381 118.248,332.400 118.761 M376.699 120.969 C 375.655 121.941,374.800 122.958,374.800 123.228 C 374.800 123.498,374.166 124.335,373.391 125.088 C 371.630 126.797,370.548 128.400,371.154 128.400 C 371.399 128.400,371.600 128.261,371.600 128.091 C 371.600 127.921,372.427 126.886,373.439 125.791 C 375.123 123.967,378.925 119.200,378.696 119.200 C 378.642 119.200,377.744 119.996,376.699 120.969 M22.918 121.847 C 23.313 122.261,23.915 122.960,24.254 123.400 C 24.628 123.885,24.580 123.661,24.132 122.832 C 23.725 122.080,23.124 121.381,22.796 121.280 C 22.348 121.141,22.379 121.282,22.918 121.847 M25.943 125.500 C 26.444 126.215,26.939 126.800,27.041 126.800 C 27.387 126.800,26.450 125.340,25.737 124.767 C 25.236 124.365,25.296 124.578,25.943 125.500 M309.400 127.600 C 309.264 127.820,309.423 128.000,309.753 128.000 C 310.083 128.000,310.464 127.820,310.600 127.600 C 310.736 127.380,310.577 127.200,310.247 127.200 C 309.917 127.200,309.536 127.380,309.400 127.600 M306.200 128.362 C 303.545 129.297,302.195 130.161,303.146 130.315 C 303.667 130.399,304.288 130.272,304.526 130.034 C 304.765 129.795,305.374 129.600,305.880 129.600 C 306.386 129.600,306.800 129.414,306.800 129.187 C 306.800 128.960,307.205 128.611,307.700 128.412 C 308.849 127.951,307.496 127.905,306.200 128.362 M106.800 129.074 C 107.570 129.408,108.290 129.806,108.400 129.958 C 108.510 130.110,109.140 130.260,109.800 130.292 C 110.996 130.350,110.997 130.348,110.000 129.932 C 109.450 129.702,108.522 129.263,107.938 128.957 C 107.354 128.651,106.544 128.415,106.138 128.433 C 105.672 128.453,105.916 128.690,106.800 129.074 M300.000 130.800 C 300.000 131.020,300.349 131.200,300.776 131.200 C 301.203 131.200,301.664 131.020,301.800 130.800 C 301.940 130.573,301.604 130.400,301.024 130.400 C 300.461 130.400,300.000 130.580,300.000 130.800 M114.000 131.800 C 114.000 132.130,114.292 132.400,114.649 132.400 C 115.180 132.400,115.208 132.291,114.800 131.800 C 114.526 131.470,114.234 131.200,114.151 131.200 C 114.068 131.200,114.000 131.470,114.000 131.800 M297.600 131.800 C 297.326 132.130,296.734 132.400,296.284 132.400 C 295.835 132.400,295.575 132.508,295.706 132.640 C 296.136 133.069,299.131 132.356,299.356 131.770 C 299.654 130.995,298.248 131.019,297.600 131.800 M367.200 132.512 C 367.200 132.793,366.840 133.283,366.400 133.600 C 365.960 133.917,365.600 134.380,365.600 134.629 C 365.600 134.878,365.079 135.627,364.442 136.293 C 363.805 136.959,363.168 137.869,363.027 138.315 C 362.885 138.761,362.506 139.227,362.185 139.350 C 361.863 139.474,361.600 139.851,361.600 140.187 C 361.600 140.524,361.420 140.800,361.200 140.800 C 360.980 140.800,360.800 141.070,360.800 141.400 C 360.800 141.730,360.530 142.000,360.200 142.000 C 359.870 142.000,359.600 142.270,359.600 142.600 C 359.600 142.930,359.735 143.198,359.900 143.195 C 360.271 143.189,362.000 140.563,362.000 140.006 C 362.000 139.783,362.178 139.600,362.395 139.600 C 362.613 139.600,363.599 138.475,364.587 137.100 C 365.574 135.725,366.656 134.248,366.991 133.819 C 367.576 133.068,367.816 132.000,367.400 132.000 C 367.290 132.000,367.200 132.230,367.200 132.512 M293.600 133.200 C 293.600 133.701,294.024 133.701,294.800 133.200 C 295.285 132.886,295.228 132.811,294.500 132.806 C 294.005 132.803,293.600 132.980,293.600 133.200 M34.872 136.997 C 35.349 137.545,35.827 137.907,35.934 137.800 C 36.176 137.557,34.798 136.000,34.341 136.000 C 34.156 136.000,34.395 136.449,34.872 136.997 M116.488 142.244 C 116.443 142.794,116.576 143.139,116.784 143.010 C 116.992 142.881,117.363 143.519,117.608 144.428 C 117.852 145.337,118.153 145.980,118.276 145.858 C 118.577 145.556,117.513 142.025,116.989 141.591 C 116.719 141.367,116.541 141.599,116.488 142.244 M285.596 144.406 C 285.124 145.069,284.829 145.834,284.942 146.106 C 285.063 146.400,285.257 146.235,285.420 145.700 C 285.570 145.205,285.942 144.800,286.247 144.800 C 286.551 144.800,286.800 144.440,286.800 144.000 C 286.800 142.922,286.605 142.988,285.596 144.406 M283.887 147.804 C 283.531 148.462,283.030 149.450,282.773 150.000 C 282.517 150.550,281.897 151.855,281.395 152.900 C 280.696 154.357,280.613 154.800,281.042 154.800 C 281.349 154.800,281.600 154.451,281.600 154.024 C 281.600 153.597,281.766 153.145,281.969 153.019 C 282.172 152.894,282.459 152.241,282.607 151.568 C 282.755 150.896,283.128 150.249,283.438 150.130 C 283.747 150.012,284.000 149.610,284.000 149.237 C 284.000 148.865,284.200 148.360,284.445 148.115 C 284.690 147.870,284.810 147.431,284.713 147.139 C 284.603 146.810,284.289 147.064,283.887 147.804 M355.326 149.300 C 354.115 151.184,353.835 152.000,354.400 152.000 C 354.620 152.000,354.800 151.754,354.800 151.454 C 354.800 151.154,355.173 150.434,355.629 149.854 C 356.085 149.274,356.276 148.800,356.053 148.800 C 355.830 148.800,355.503 149.025,355.326 149.300 M352.662 153.531 C 351.923 154.348,351.789 155.200,352.400 155.200 C 352.620 155.200,352.800 154.949,352.800 154.643 C 352.800 154.336,353.070 153.982,353.400 153.855 C 354.035 153.612,354.236 152.800,353.662 152.800 C 353.476 152.800,353.026 153.129,352.662 153.531 M351.196 156.518 C 350.881 157.003,350.386 157.839,350.096 158.376 L 349.568 159.353 350.430 158.576 C 351.237 157.850,352.177 156.044,351.896 155.763 C 351.827 155.693,351.512 156.033,351.196 156.518 M222.187 162.820 C 221.625 163.711,220.953 164.926,220.696 165.520 C 220.438 166.114,219.843 167.140,219.373 167.800 C 217.890 169.882,217.715 170.302,218.622 169.600 C 220.040 168.502,220.400 168.063,220.400 167.429 C 220.400 167.083,220.580 166.800,220.800 166.800 C 221.020 166.800,221.200 166.439,221.200 165.999 C 221.200 164.790,223.323 161.582,223.891 161.932 C 224.185 162.115,224.411 163.590,224.483 165.809 C 224.582 168.847,224.706 169.411,225.300 169.525 C 225.917 169.643,226.000 169.297,226.000 166.603 C 226.000 161.375,224.216 159.606,222.187 162.820 M275.446 164.186 C 274.617 165.451,274.613 166.477,275.441 165.400 C 275.779 164.960,276.224 164.645,276.428 164.700 C 276.633 164.755,276.800 164.440,276.800 164.000 C 276.800 162.915,276.227 162.993,275.446 164.186 M127.260 166.795 C 127.746 167.452,128.215 167.918,128.304 167.830 C 128.549 167.585,127.159 165.600,126.742 165.600 C 126.541 165.600,126.774 166.138,127.260 166.795 M345.026 167.400 C 344.882 168.170,344.592 168.800,344.382 168.800 C 344.172 168.800,344.000 169.166,344.000 169.613 C 344.000 170.059,343.730 170.529,343.400 170.655 C 343.070 170.782,342.800 171.136,342.800 171.443 C 342.800 171.749,342.620 172.000,342.400 172.000 C 342.180 172.000,342.000 172.450,342.000 173.000 C 342.000 173.550,342.180 174.000,342.400 174.000 C 342.620 174.000,342.800 173.651,342.800 173.224 C 342.800 172.797,342.980 172.336,343.201 172.199 C 343.422 172.063,343.964 171.107,344.406 170.076 C 344.849 169.044,345.470 167.705,345.787 167.100 C 346.258 166.199,346.266 166.000,345.826 166.000 C 345.529 166.000,345.172 166.626,345.026 167.400 M272.406 170.100 C 271.890 171.255,271.138 172.629,270.734 173.154 C 269.770 174.406,269.800 174.931,270.800 174.307 C 271.240 174.032,271.600 173.491,271.600 173.104 C 271.600 172.717,271.760 172.400,271.955 172.400 C 272.151 172.400,272.431 171.761,272.578 170.979 C 272.724 170.197,273.104 169.458,273.422 169.336 C 273.740 169.214,274.000 168.864,274.000 168.557 C 274.000 167.404,273.311 168.071,272.406 170.100 M129.219 170.200 C 129.209 170.794,129.923 171.810,130.174 171.559 C 130.294 171.440,130.129 170.995,129.809 170.571 C 129.488 170.147,129.222 169.980,129.219 170.200 M217.311 170.900 C 216.330 172.169,216.284 172.479,217.158 171.933 C 217.621 171.644,218.000 171.181,218.000 170.904 C 218.000 170.267,217.802 170.266,217.311 170.900 M225.637 174.176 C 225.604 176.107,225.754 177.648,225.990 177.794 C 226.258 177.959,226.400 176.868,226.400 174.647 C 226.400 172.777,226.241 171.149,226.047 171.029 C 225.853 170.909,225.669 172.325,225.637 174.176 M56.800 173.524 C 56.800 173.739,57.085 174.024,57.433 174.157 C 57.823 174.307,58.006 174.218,57.908 173.925 C 57.709 173.327,56.800 172.998,56.800 173.524 M214.051 174.991 C 212.270 176.923,212.066 177.303,213.000 176.945 C 213.330 176.818,213.601 176.509,213.601 176.257 C 213.602 176.006,214.141 175.440,214.800 175.000 C 215.459 174.560,215.998 173.975,215.999 173.700 C 216.001 172.944,215.838 173.052,214.051 174.991 M189.600 175.200 C 189.600 175.420,189.780 175.600,190.000 175.600 C 190.220 175.600,190.400 175.870,190.400 176.200 C 190.400 176.530,190.630 176.800,190.911 176.800 C 191.485 176.800,192.800 178.196,192.800 178.805 C 192.800 179.022,193.109 179.200,193.486 179.200 C 193.955 179.200,193.482 178.501,192.000 177.000 C 189.674 174.645,189.600 174.589,189.600 175.200 M340.400 177.120 C 340.400 177.516,340.200 178.040,339.955 178.285 C 339.710 178.530,339.599 178.971,339.707 179.265 C 339.832 179.603,340.060 179.409,340.328 178.739 C 340.560 178.155,340.942 177.560,341.175 177.415 C 341.800 177.029,341.692 176.400,341.000 176.400 C 340.670 176.400,340.400 176.724,340.400 177.120 M211.099 177.777 C 210.339 178.333,210.157 179.200,210.800 179.200 C 211.020 179.200,211.200 178.945,211.200 178.633 C 211.200 178.322,211.425 177.986,211.700 177.888 C 211.975 177.790,212.110 177.610,211.999 177.487 C 211.889 177.365,211.484 177.496,211.099 177.777 M226.428 181.476 C 226.413 183.278,226.580 184.864,226.800 185.000 C 227.296 185.306,227.296 180.153,226.800 179.000 C 226.569 178.462,226.447 179.274,226.428 181.476 M206.400 181.000 C 205.992 181.491,206.020 181.600,206.551 181.600 C 206.908 181.600,207.200 181.330,207.200 181.000 C 207.200 180.670,207.132 180.400,207.049 180.400 C 206.966 180.400,206.674 180.670,206.400 181.000 M197.311 183.700 C 197.513 185.724,198.430 191.159,200.568 203.000 C 201.124 206.080,201.749 209.410,201.957 210.400 C 202.165 211.390,202.526 213.280,202.761 214.600 C 203.554 219.070,204.787 225.790,205.183 227.800 C 205.399 228.900,205.860 231.420,206.208 233.400 C 206.555 235.380,207.097 238.440,207.412 240.200 C 207.726 241.960,208.615 247.000,209.387 251.400 C 210.902 260.032,211.470 263.189,212.013 266.000 C 212.205 266.990,212.543 268.790,212.765 270.000 C 214.388 278.846,214.904 281.623,215.218 283.200 C 216.025 287.263,217.600 295.539,217.600 295.720 C 217.600 296.341,218.736 296.195,219.158 295.518 C 219.434 295.077,219.486 294.823,219.275 294.954 C 218.198 295.619,217.663 293.428,214.794 276.600 C 213.389 268.359,210.677 253.446,208.938 244.400 C 208.367 241.430,207.755 238.100,207.579 237.000 C 207.402 235.900,206.870 232.930,206.397 230.400 C 205.924 227.870,205.207 223.910,204.804 221.600 C 202.893 210.658,201.540 203.038,200.826 199.200 C 199.673 193.002,198.438 186.035,198.151 184.100 L 197.898 182.400 201.349 182.400 C 203.383 182.400,204.800 182.236,204.800 182.000 C 204.800 181.761,203.250 181.600,200.950 181.600 L 197.101 181.600 197.311 183.700 M263.500 184.988 C 263.115 185.517,262.800 186.129,262.800 186.347 C 262.800 186.565,262.568 186.981,262.285 187.271 C 261.669 187.903,260.000 190.589,260.000 190.947 C 260.000 191.414,261.393 189.761,262.167 188.374 C 262.589 187.618,263.354 186.491,263.867 185.869 C 264.804 184.733,265.058 183.989,264.500 184.013 C 264.335 184.019,263.885 184.458,263.500 184.988 M227.252 188.200 C 227.230 189.300,227.387 190.470,227.600 190.800 C 228.093 191.564,228.104 190.128,227.623 187.800 L 227.292 186.200 227.252 188.200 M334.000 194.324 C 334.000 194.721,333.736 195.396,333.413 195.824 C 333.090 196.251,332.820 197.174,332.813 197.876 C 332.806 198.578,332.620 199.264,332.400 199.400 C 332.180 199.536,332.000 200.256,332.000 201.000 C 332.000 201.744,331.804 202.474,331.565 202.622 C 331.326 202.769,331.222 203.241,331.334 203.670 C 331.454 204.128,331.304 204.539,330.969 204.667 C 330.614 204.804,330.400 205.462,330.400 206.419 C 330.400 207.263,330.220 208.064,330.000 208.200 C 329.780 208.336,329.603 209.472,329.606 210.724 C 329.610 212.341,329.725 212.826,330.000 212.400 C 330.213 212.070,330.396 210.990,330.407 210.000 C 330.417 209.010,330.679 207.865,330.990 207.455 C 331.300 207.046,331.675 205.738,331.824 204.550 C 331.972 203.362,332.252 202.291,332.447 202.171 C 332.641 202.051,332.800 201.369,332.800 200.656 C 332.800 199.943,332.981 199.179,333.201 198.959 C 333.523 198.637,334.800 194.501,334.800 193.780 C 334.800 193.681,334.620 193.600,334.400 193.600 C 334.180 193.600,334.000 193.926,334.000 194.324 M256.000 196.600 C 255.717 196.941,255.576 197.309,255.686 197.419 C 255.796 197.529,256.117 197.341,256.400 197.000 C 256.683 196.659,256.824 196.291,256.714 196.181 C 256.604 196.071,256.283 196.259,256.000 196.600 M175.264 197.819 C 174.657 199.150,174.676 199.867,175.318 199.867 C 175.641 199.867,175.858 199.290,175.896 198.333 C 175.969 196.527,175.884 196.458,175.264 197.819 M149.015 198.166 C 149.363 198.698,149.952 199.249,150.323 199.392 C 150.720 199.544,150.513 199.145,149.824 198.426 C 148.410 196.949,148.166 196.871,149.015 198.166 M66.000 199.553 C 66.000 200.213,66.180 200.864,66.400 201.000 C 66.633 201.144,66.800 200.745,66.800 200.047 C 66.800 199.387,66.620 198.736,66.400 198.600 C 66.167 198.456,66.000 198.855,66.000 199.553 M253.437 200.200 C 253.076 200.750,252.876 201.200,252.991 201.200 C 253.258 201.200,254.800 199.666,254.800 199.400 C 254.800 198.854,254.018 199.313,253.437 200.200 M174.243 201.833 C 173.869 202.808,173.955 204.000,174.400 204.000 C 174.620 204.000,174.800 203.370,174.800 202.600 C 174.800 201.082,174.624 200.840,174.243 201.833 M66.800 203.336 C 66.800 204.277,67.064 205.396,67.387 205.824 C 67.926 206.536,67.976 206.415,67.987 204.343 C 67.997 202.697,67.838 202.023,67.400 201.855 C 66.924 201.673,66.800 201.980,66.800 203.336 M251.486 202.930 C 250.073 204.551,248.000 207.258,248.000 207.482 C 248.000 208.100,250.371 205.808,250.473 205.092 C 250.543 204.601,250.994 204.027,251.475 203.816 C 252.192 203.501,253.018 202.084,252.681 201.748 C 252.633 201.700,252.095 202.232,251.486 202.930 M155.318 205.378 C 155.803 206.136,156.440 206.856,156.734 206.978 C 157.028 207.101,156.698 206.481,156.000 205.600 C 154.444 203.635,154.140 203.536,155.318 205.378 M246.580 209.324 C 244.835 211.189,244.675 211.737,246.266 210.400 C 247.852 209.068,248.357 208.371,247.700 208.424 C 247.535 208.437,247.031 208.842,246.580 209.324 M232.000 211.953 C 232.000 212.148,232.370 212.404,232.823 212.522 C 233.498 212.698,233.561 212.635,233.174 212.169 C 232.646 211.532,232.000 211.414,232.000 211.953 M241.467 212.667 C 241.006 213.127,241.175 213.600,241.800 213.600 C 242.130 213.600,242.400 213.330,242.400 213.000 C 242.400 212.375,241.927 212.206,241.467 212.667 M236.100 213.887 C 236.705 213.978,237.695 213.978,238.300 213.887 C 238.905 213.795,238.410 213.720,237.200 213.720 C 235.990 213.720,235.495 213.795,236.100 213.887 M329.072 215.804 C 328.927 216.682,328.830 218.120,328.855 219.000 C 328.889 220.167,328.998 219.848,329.257 217.821 C 329.645 214.797,329.500 213.214,329.072 215.804 M68.413 221.873 C 68.393 222.596,70.595 224.000,71.749 224.000 C 72.497 224.000,72.712 223.837,72.545 223.400 C 72.400 223.023,71.788 222.800,70.901 222.800 C 70.025 222.800,69.286 222.534,68.957 222.100 C 68.665 221.715,68.420 221.613,68.413 221.873 M327.999 222.401 C 327.235 223.461,326.406 223.688,323.066 223.749 C 321.058 223.786,320.216 223.958,320.081 224.361 C 319.894 224.919,323.047 224.811,326.384 224.143 C 327.581 223.904,329.200 222.663,329.200 221.984 C 329.200 221.346,328.612 221.551,327.999 222.401 M75.000 224.423 C 77.206 224.879,78.092 224.872,77.800 224.400 C 77.664 224.180,76.618 224.021,75.476 224.046 L 73.400 224.092 75.000 224.423 M80.305 225.083 C 80.802 225.179,81.522 225.175,81.905 225.075 C 82.287 224.975,81.880 224.896,81.000 224.901 C 80.120 224.905,79.807 224.987,80.305 225.083 M316.705 225.083 C 317.202 225.179,317.922 225.175,318.305 225.075 C 318.687 224.975,318.280 224.896,317.400 224.901 C 316.520 224.905,316.207 224.987,316.705 225.083 M296.131 230.221 C 295.432 230.527,294.747 230.962,294.607 231.189 C 294.207 231.836,295.445 231.668,296.000 231.000 C 296.274 230.670,296.926 230.400,297.449 230.400 C 297.972 230.400,298.400 230.220,298.400 230.000 C 298.400 229.472,297.682 229.542,296.131 230.221 M292.589 231.617 C 292.459 231.828,292.003 232.000,291.576 232.000 C 291.149 232.000,290.800 232.180,290.800 232.400 C 290.800 232.620,290.462 232.800,290.049 232.800 C 289.636 232.800,289.074 233.070,288.800 233.400 C 288.526 233.730,288.009 234.006,287.651 234.014 C 287.293 234.022,286.550 234.286,286.000 234.600 C 283.686 235.923,286.613 235.143,289.630 233.633 C 291.351 232.771,293.084 232.001,293.480 231.921 C 294.148 231.787,294.150 231.757,293.513 231.506 C 293.135 231.357,292.719 231.407,292.589 231.617 M108.400 233.400 C 108.674 233.730,109.078 234.000,109.298 234.000 C 109.521 234.000,109.478 233.735,109.200 233.400 C 108.926 233.070,108.522 232.800,108.302 232.800 C 108.079 232.800,108.122 233.065,108.400 233.400 M110.220 234.372 C 110.429 234.576,111.140 234.862,111.800 235.006 L 113.000 235.269 111.854 234.635 C 110.582 233.930,109.608 233.773,110.220 234.372 M283.843 235.833 C 283.693 236.223,283.782 236.406,284.075 236.308 C 284.673 236.109,285.002 235.200,284.476 235.200 C 284.261 235.200,283.976 235.485,283.843 235.833 M279.000 238.610 C 278.120 239.152,277.130 239.601,276.800 239.607 C 275.973 239.622,274.145 241.078,274.504 241.437 C 274.664 241.597,275.111 241.450,275.498 241.110 C 275.884 240.770,277.132 240.024,278.272 239.453 C 279.411 238.882,280.457 238.232,280.595 238.008 C 280.944 237.443,280.819 237.490,279.000 238.610 M272.576 242.187 C 272.149 242.510,271.980 242.775,272.200 242.775 C 272.420 242.775,272.949 242.510,273.376 242.187 C 273.804 241.864,273.973 241.600,273.753 241.600 C 273.533 241.600,273.004 241.864,272.576 242.187 M126.832 242.238 C 126.798 242.706,127.669 243.505,129.049 244.271 C 129.845 244.714,129.870 244.684,129.454 243.802 C 129.155 243.170,128.912 243.015,128.711 243.330 C 128.488 243.681,128.411 243.673,128.406 243.300 C 128.403 243.025,128.145 242.800,127.833 242.800 C 127.522 242.800,127.176 242.575,127.065 242.300 C 126.948 242.011,126.850 241.985,126.832 242.238 M267.829 245.429 C 266.877 246.380,267.076 246.628,268.100 245.766 C 268.595 245.350,269.075 244.962,269.167 244.904 C 269.258 244.847,269.136 244.800,268.895 244.800 C 268.654 244.800,268.174 245.083,267.829 245.429 M259.719 251.315 C 258.817 252.224,258.034 252.800,257.699 252.800 C 257.300 252.800,254.000 255.826,254.000 256.192 C 254.000 256.332,255.035 255.637,256.300 254.648 C 259.912 251.823,261.032 250.829,260.600 250.830 C 260.380 250.830,259.984 251.049,259.719 251.315 M145.200 255.325 C 145.200 255.393,145.785 255.872,146.500 256.388 L 147.800 257.327 146.830 256.263 C 146.002 255.355,145.200 254.893,145.200 255.325 M252.200 257.276 L 251.400 258.104 252.278 257.650 C 253.202 257.172,253.874 256.383,253.324 256.424 C 253.146 256.437,252.640 256.820,252.200 257.276 M248.872 260.500 C 248.181 261.215,247.252 262.146,246.808 262.570 C 246.363 262.993,246.000 263.465,246.000 263.617 C 246.000 263.909,247.930 262.105,249.570 260.279 C 250.936 258.759,250.388 258.932,248.872 260.500 M153.656 262.600 C 154.382 263.370,155.032 264.000,155.100 264.000 C 155.434 264.000,153.402 261.610,152.907 261.420 C 152.592 261.299,152.929 261.830,153.656 262.600 M243.047 265.601 C 241.448 267.370,241.243 267.822,242.300 267.247 C 243.599 266.540,245.808 264.000,245.125 264.000 C 244.777 264.000,243.842 264.721,243.047 265.601 M236.200 273.200 C 236.060 273.640,235.812 274.000,235.648 274.000 C 235.001 274.000,232.305 277.006,231.865 278.217 C 231.709 278.648,232.843 277.650,234.385 276.000 C 235.926 274.350,237.191 272.865,237.194 272.700 C 237.207 272.057,236.440 272.443,236.200 273.200 M226.954 283.740 C 226.709 284.021,226.276 284.689,225.991 285.225 C 225.707 285.761,225.143 286.491,224.737 286.847 C 224.332 287.203,224.000 287.698,224.000 287.947 C 224.000 288.196,223.820 288.400,223.600 288.400 C 223.380 288.400,223.200 288.670,223.200 289.000 C 223.200 289.330,223.037 289.600,222.838 289.600 C 222.639 289.600,222.001 290.410,221.421 291.400 C 220.841 292.390,220.194 293.200,219.983 293.200 C 219.772 293.200,219.600 293.380,219.600 293.600 C 219.600 294.424,220.235 293.946,221.325 292.299 C 221.944 291.365,223.169 289.700,224.048 288.600 C 226.428 285.622,228.080 283.198,227.719 283.215 C 227.544 283.224,227.199 283.460,226.954 283.740 M174.411 283.662 C 174.405 283.806,175.030 284.678,175.800 285.600 C 176.570 286.522,177.200 287.076,177.200 286.832 C 177.200 286.362,174.429 283.214,174.411 283.662 M185.600 297.783 C 185.600 297.943,185.960 298.531,186.400 299.091 C 186.840 299.650,187.200 299.977,187.200 299.817 C 187.200 299.657,186.840 299.069,186.400 298.509 C 185.960 297.950,185.600 297.623,185.600 297.783 M204.601 318.107 C 203.668 320.224,203.100 320.800,201.949 320.800 C 201.315 320.800,201.167 320.927,201.459 321.219 C 202.270 322.030,203.899 320.807,204.801 318.709 C 205.271 317.616,205.586 316.653,205.502 316.568 C 205.417 316.484,205.012 317.176,204.601 318.107 " stroke="none" fill="#8c8cac" fill-rule="evenodd"></path></g></svg>