<?xml version="1.0" standalone="no"?>
<!DOCTYPE svg PUBLIC "-//W3C//DTD SVG 20010904//EN"
 "http://www.w3.org/TR/2001/REC-SVG-20010904/DTD/svg10.dtd">
<svg version="1.0" xmlns="http://www.w3.org/2000/svg"
 width="200.000000pt" height="200.000000pt" viewBox="0 0 200.000000 200.000000"
 preserveAspectRatio="xMidYMid meet">
<metadata>
Created by potrace 1.16, written by Peter Selinger 2001-2019
</metadata>
<g transform="translate(0.000000,200.000000) scale(0.100000,-0.100000)"
fill="#000000" stroke="none">
<path d="M885 1776 c-205 -47 -361 -176 -436 -357 -21 -50 -23 -76 -30 -334
-7 -303 -16 -356 -65 -415 -17 -20 -38 -32 -64 -36 -50 -8 -72 -33 -68 -75 2
-24 10 -37 28 -46 19 -10 187 -13 750 -13 563 0 731 3 750 13 48 24 31 117
-21 117 -33 0 -69 23 -90 57 -42 68 -50 126 -58 408 -7 246 -10 275 -30 324
-67 163 -214 293 -391 345 -78 23 -203 28 -275 12z m226 -132 c116 -34 227
-113 282 -201 57 -93 60 -109 67 -398 6 -254 8 -274 31 -342 l25 -73 -513 0
c-282 0 -513 2 -513 3 0 2 10 30 22 63 19 53 22 87 28 339 7 313 11 334 85
435 37 51 136 129 191 151 103 41 206 49 295 23z"/>
<path d="M867 1555 c-52 -19 -112 -65 -147 -111 -46 -60 -36 -115 21 -129 23
-6 35 2 85 52 57 56 108 83 161 83 47 0 70 71 35 103 -23 21 -101 21 -155 2z"/>
<path d="M783 449 c-28 -10 -46 -45 -39 -73 9 -36 71 -100 127 -131 47 -25 64
-29 129 -29 89 0 131 17 194 74 56 52 75 100 52 135 -13 20 -25 25 -56 25 -34
0 -42 -4 -55 -29 -21 -41 -69 -73 -120 -79 -52 -5 -116 27 -152 76 -24 33 -49
43 -80 31z"/>
</g>
</svg>
