<?xml version="1.0" encoding="UTF-8" standalone="no"?>
<svg
   xmlns:dc="http://purl.org/dc/elements/1.1/"
   xmlns:cc="http://creativecommons.org/ns#"
   xmlns:rdf="http://www.w3.org/1999/02/22-rdf-syntax-ns#"
   xmlns:svg="http://www.w3.org/2000/svg"
   xmlns="http://www.w3.org/2000/svg"
   xmlns:xlink="http://www.w3.org/1999/xlink"
   xmlns:sodipodi="http://sodipodi.sourceforge.net/DTD/sodipodi-0.dtd"
   xmlns:inkscape="http://www.inkscape.org/namespaces/inkscape"
   version="1.1"
   preserveAspectRatio="xMidYMid meet"
   viewBox="4.370276551388542 83.7487392561049 630.530112427441 480.509084029269"
   width="1000"
   height="762.07"
   id="svg901"
   sodipodi:docname="venuelogo.svg"
   inkscape:version="0.92.4 (33fec40, 2019-01-16)">
  <metadata
     id="metadata905">
    <rdf:RDF>
      <cc:Work
         rdf:about="">
        <dc:format>image/svg+xml</dc:format>
        <dc:type
           rdf:resource="http://purl.org/dc/dcmitype/StillImage" />
      </cc:Work>
    </rdf:RDF>
  </metadata>
  <sodipodi:namedview
     pagecolor="#ffffff"
     bordercolor="#666666"
     borderopacity="1"
     objecttolerance="10"
     gridtolerance="10"
     guidetolerance="10"
     inkscape:pageopacity="0"
     inkscape:pageshadow="2"
     inkscape:window-width="1920"
     inkscape:window-height="1016"
     id="namedview903"
     showgrid="false"
     inkscape:zoom="0.77384892"
     inkscape:cx="386.11988"
     inkscape:cy="425.11814"
     inkscape:window-x="0"
     inkscape:window-y="27"
     inkscape:window-maximized="1"
     inkscape:current-layer="svg901" />
  <defs
     id="defs883">
    <path
       d="M382.99 293.79L508.36 239.64L634.9 185L319.43 562.78L319.43 562.81L319.42 562.8L319.41 562.81L319.42 562.78L206.41 83.75L295.1 189.24L382.99 293.79Z"
       id="jXNBPrOJi" />
    <path
       d="M319.67 564.25L319.65 564.24L319.65 564.26L319.64 564.23L4.37 186.28L130.87 240.98L256.23 295.2L344.17 190.71L432.92 85.25L319.66 564.22L319.67 564.25Z"
       id="c2OrJJQRwC" />
    <path
       d="M383.68 293.49L320.22 561.84L319.43 562.78L319.43 562.81L319.42 562.8L319.41 562.81L319.42 562.78L256.28 295.15L320.24 219.14L382.99 293.79L383.68 293.49Z"
       id="c1tRfLurl" />
  </defs>
  <g
     id="g897">
    <g
       id="g887">
      <use
         height="100%"
         width="100%"
         y="0"
         x="0"
         style="opacity:1;fill:#fc5d60;fill-opacity:1"
         id="use885"
         xlink:href="#jXNBPrOJi" />
    </g>
    <g
       id="g891">
      <use
         height="100%"
         width="100%"
         y="0"
         x="0"
         style="opacity:1;fill:#1daeeb;fill-opacity:1"
         id="use889"
         xlink:href="#c2OrJJQRwC" />
    </g>
    <g
       id="g895">
      <use
         height="100%"
         width="100%"
         y="0"
         x="0"
         style="opacity:1;fill:#8a6699;fill-opacity:1"
         id="use893"
         xlink:href="#c1tRfLurl" />
    </g>
  </g>
</svg>
