<?xml version="1.0" encoding="UTF-8" standalone="no"?>
<svg
   xmlns:dc="http://purl.org/dc/elements/1.1/"
   xmlns:cc="http://creativecommons.org/ns#"
   xmlns:rdf="http://www.w3.org/1999/02/22-rdf-syntax-ns#"
   xmlns:svg="http://www.w3.org/2000/svg"
   xmlns="http://www.w3.org/2000/svg"
   xmlns:sodipodi="http://sodipodi.sourceforge.net/DTD/sodipodi-0.dtd"
   xmlns:inkscape="http://www.inkscape.org/namespaces/inkscape"
   width="64"
   height="64"
   viewBox="0 0 16.933334 16.933334"
   version="1.1"
   id="svg8"
   inkscape:version="1.0.1 (3bc2e813f5, 2020-09-07)"
   sodipodi:docname="notification bell.svg">
  <defs
     id="defs2">
    <inkscape:path-effect
       effect="bspline"
       id="path-effect1010"
       is_visible="true"
       lpeversion="1"
       weight="33.333333"
       steps="2"
       helper_size="0"
       apply_no_weight="true"
       apply_with_weight="true"
       only_selected="false" />
    <inkscape:path-effect
       effect="bspline"
       id="path-effect1005"
       is_visible="true"
       lpeversion="1"
       weight="33.333333"
       steps="2"
       helper_size="0"
       apply_no_weight="true"
       apply_with_weight="true"
       only_selected="false" />
    <inkscape:path-effect
       effect="bspline"
       id="path-effect1001"
       is_visible="true"
       lpeversion="1"
       weight="33.333333"
       steps="2"
       helper_size="0"
       apply_no_weight="true"
       apply_with_weight="true"
       only_selected="false" />
    <inkscape:path-effect
       effect="bspline"
       id="path-effect997"
       is_visible="true"
       lpeversion="1"
       weight="33.333333"
       steps="2"
       helper_size="0"
       apply_no_weight="true"
       apply_with_weight="true"
       only_selected="false" />
    <inkscape:path-effect
       effect="bspline"
       id="path-effect993"
       is_visible="true"
       lpeversion="1"
       weight="33.333333"
       steps="2"
       helper_size="0"
       apply_no_weight="true"
       apply_with_weight="true"
       only_selected="false" />
    <inkscape:path-effect
       effect="bspline"
       id="path-effect989"
       is_visible="true"
       lpeversion="1"
       weight="33.333333"
       steps="2"
       helper_size="0"
       apply_no_weight="true"
       apply_with_weight="true"
       only_selected="false" />
    <inkscape:path-effect
       effect="bspline"
       id="path-effect841"
       is_visible="true"
       lpeversion="1"
       weight="33.333333"
       steps="2"
       helper_size="0"
       apply_no_weight="true"
       apply_with_weight="true"
       only_selected="false" />
  </defs>
  <sodipodi:namedview
     id="base"
     pagecolor="#ffffff"
     bordercolor="#666666"
     borderopacity="1.0"
     inkscape:pageopacity="0.0"
     inkscape:pageshadow="2"
     inkscape:zoom="11.2"
     inkscape:cx="11.934493"
     inkscape:cy="19.941281"
     inkscape:document-units="mm"
     inkscape:current-layer="layer1"
     inkscape:document-rotation="0"
     showgrid="false"
     inkscape:window-width="2880"
     inkscape:window-height="1526"
     inkscape:window-x="2869"
     inkscape:window-y="-11"
     inkscape:window-maximized="1"
     inkscape:object-nodes="false"
     inkscape:object-paths="true"
     units="px"
     fit-margin-top="0"
     fit-margin-left="0"
     fit-margin-right="0"
     fit-margin-bottom="0" />
  <metadata
     id="metadata5">
    <rdf:RDF>
      <cc:Work
         rdf:about="">
        <dc:format>image/svg+xml</dc:format>
        <dc:type
           rdf:resource="http://purl.org/dc/dcmitype/StillImage" />
        <dc:title></dc:title>
      </cc:Work>
    </rdf:RDF>
  </metadata>
  <g
     inkscape:label="Layer 1"
     inkscape:groupmode="layer"
     id="layer1"
     transform="translate(-123.22024,-100.73065)">
    <path
       id="path1003"
       style="fill:none;stroke:#000000;stroke-width:0.718693;stroke-linecap:butt;stroke-linejoin:miter;stroke-miterlimit:4;stroke-dasharray:none;stroke-opacity:1"
       d="m 129.92754,115.01798 c 0.009,0.19252 -0.001,0.61537 0.0955,0.90137 0.10112,0.29703 0.24761,0.60624 0.49282,0.80205 0.3245,0.25912 0.76426,0.39182 1.17943,0.40115 0.36156,0.008 0.75048,-0.0885 1.04184,-0.30281 0.25964,-0.19095 0.42213,-0.50371 0.53432,-0.80586 0.11741,-0.31608 0.12657,-0.78542 0.12669,-1.00356 1.8e-4,-0.21812 -0.0275,-0.21774 -0.61185,-0.21215 -0.58443,0.005 -1.72559,0.0164 -2.29635,0.0219 -0.57075,0.005 -0.57078,0.005 -0.56242,0.19799 z m 0.59375,-11.9419 c -0.0147,-0.10075 -0.13243,-0.41671 -0.11601,-0.6294 0.0185,-0.2395 0.10087,-0.48294 0.23786,-0.68023 0.1057,-0.15225 0.26038,-0.27566 0.42775,-0.35531 0.21411,-0.10189 0.46097,-0.14865 0.69786,-0.13802 0.20155,0.009 0.40243,0.0759 0.58085,0.17018 0.13426,0.0709 0.26103,0.16738 0.35227,0.28873 0.11868,0.1579 0.20971,0.34855 0.23362,0.54464 0.0354,0.28975 0.0214,0.62983 -0.14163,0.86415 -0.16298,0.23433 -0.47166,0.33661 -0.78724,0.36053 -0.31556,0.0239 -0.63816,-0.0305 -0.88085,-0.0993 -0.24268,-0.0688 -0.40545,-0.15216 -0.49035,-0.19233 -0.0848,-0.0402 -0.0925,-0.0365 -0.096,-0.0349 -0.004,0.001 -0.004,0.003 -0.0182,-0.0987 z m -0.71571,11.75018 c 1.22469,-0.009 3.33664,0.0289 5.0016,-0.0597 0.58868,-0.0313 1.1926,-0.009 1.76067,-0.16659 0.23418,-0.065 0.45199,-0.18527 0.6575,-0.31498 0.15747,-0.0994 0.30848,-0.21402 0.43464,-0.351 0.12364,-0.13424 0.23462,-0.28557 0.30781,-0.45274 0.0653,-0.14911 0.12224,-0.3133 0.11054,-0.47566 -0.0114,-0.15195 -0.0829,-0.29813 -0.16609,-0.42576 -0.0524,-0.0804 -0.13676,-0.13486 -0.2032,-0.2042 -0.15584,-0.16263 -0.3108,-0.32631 -0.4582,-0.49662 -0.14423,-0.16666 -0.29495,-0.32969 -0.41661,-0.51348 -0.11741,-0.17747 -0.22163,-0.36586 -0.29923,-0.56403 -0.0861,-0.21985 -0.13163,-0.37351 -0.18125,-0.68474 -0.0496,-0.31123 -0.0977,-0.7455 -0.13947,-1.11909 -0.0415,-0.37165 -0.0817,-0.74358 -0.11028,-1.11645 -0.0388,-0.50598 0.0114,-1.02149 -0.0829,-1.52012 -0.074,-0.39136 -0.18995,-0.78177 -0.37482,-1.13456 -0.17727,-0.33827 -0.42822,-0.63657 -0.69004,-0.91461 -0.25531,-0.27113 -0.53053,-0.5336 -0.84987,-0.72521 -0.22772,-0.13665 -0.54668,-0.25153 -0.74151,-0.29141 -0.19482,-0.0399 -0.31962,-0.0407 -0.41565,-0.0368 -0.096,0.004 -0.16342,0.0128 -0.27088,0.0548 -0.10749,0.042 -0.25214,0.11563 -0.39376,0.1767 -0.14161,0.061 -0.27885,0.10888 -0.46425,0.10672 -0.18539,-0.003 -0.41911,-0.0543 -0.62362,-0.12428 -0.20449,-0.0698 -0.37981,-0.15754 -0.5082,-0.21158 -0.12838,-0.0541 -0.19102,-0.0747 -0.29179,-0.0824 -0.10519,-0.008 -0.21233,0.0114 -0.31435,0.0384 -0.20709,0.0551 -0.40664,0.14289 -0.59245,0.24966 -0.25478,0.14641 -0.48574,0.33365 -0.70482,0.52948 -0.25623,0.22903 -0.51056,0.4683 -0.70745,0.74996 -0.17943,0.25668 -0.31827,0.54419 -0.42042,0.84025 -0.15928,0.46167 -0.22758,0.95164 -0.29184,1.43577 -0.0754,0.56796 -0.0341,1.14731 -0.10888,1.71535 -0.0555,0.42092 -0.12895,0.84206 -0.25102,1.2487 -0.12995,0.43286 -0.32006,0.89594 -0.50907,1.25665 -0.18899,0.36072 -0.34108,0.56456 -0.55862,0.81001 -0.16244,0.18329 -0.44222,0.26701 -0.55035,0.48675 -0.11741,0.23849 -0.1052,0.53471 -0.0542,0.79559 0.0293,0.14968 0.10812,0.28994 0.20067,0.41119 0.10011,0.13126 0.23478,0.23521 0.37198,0.32707 0.20103,0.13458 0.42554,0.23294 0.65076,0.32128 0.3196,0.12542 0.65206,0.21924 0.98722,0.2936 0.28463,0.0631 0.57446,0.10621 0.86516,0.12863 0.46412,0.0359 0.17179,0.0181 1.39648,0.009 z"
       sodipodi:nodetypes="caaaaaccccccaaaaaaaccscccccaaaaaaaaaaacaaaaaacccccccaaaaaaaaacaaaaaaaacc" />
  </g>
</svg>