<?xml version="1.0" encoding="UTF-8" standalone="no"?>
<svg
   xmlns:dc="http://purl.org/dc/elements/1.1/"
   xmlns:cc="http://creativecommons.org/ns#"
   xmlns:rdf="http://www.w3.org/1999/02/22-rdf-syntax-ns#"
   xmlns:svg="http://www.w3.org/2000/svg"
   xmlns="http://www.w3.org/2000/svg"
   xmlns:sodipodi="http://sodipodi.sourceforge.net/DTD/sodipodi-0.dtd"
   xmlns:inkscape="http://www.inkscape.org/namespaces/inkscape"
   width="64"
   height="64"
   viewBox="0 0 16.933333 16.933334"
   version="1.1"
   id="svg32"
   inkscape:version="1.0.1 (3bc2e813f5, 2020-09-07)"
   sodipodi:docname="database export.svg">
  <defs
     id="defs26">
    <inkscape:path-effect
       effect="bspline"
       id="path-effect925"
       is_visible="true"
       lpeversion="1"
       weight="33.333333"
       steps="2"
       helper_size="0"
       apply_no_weight="true"
       apply_with_weight="true"
       only_selected="false" />
    <inkscape:path-effect
       effect="bspline"
       id="path-effect921"
       is_visible="true"
       lpeversion="1"
       weight="33.333333"
       steps="2"
       helper_size="0"
       apply_no_weight="true"
       apply_with_weight="true"
       only_selected="false" />
    <inkscape:path-effect
       effect="bspline"
       id="path-effect917"
       is_visible="true"
       lpeversion="1"
       weight="33.333333"
       steps="2"
       helper_size="0"
       apply_no_weight="true"
       apply_with_weight="true"
       only_selected="false" />
    <inkscape:path-effect
       effect="bspline"
       id="path-effect913"
       is_visible="true"
       lpeversion="1"
       weight="33.333333"
       steps="2"
       helper_size="0"
       apply_no_weight="true"
       apply_with_weight="true"
       only_selected="false" />
    <inkscape:path-effect
       effect="bspline"
       id="path-effect909"
       is_visible="true"
       lpeversion="1"
       weight="33.333333"
       steps="2"
       helper_size="0"
       apply_no_weight="true"
       apply_with_weight="true"
       only_selected="false" />
    <inkscape:path-effect
       effect="bspline"
       id="path-effect905"
       is_visible="true"
       lpeversion="1"
       weight="33.333333"
       steps="2"
       helper_size="0"
       apply_no_weight="true"
       apply_with_weight="true"
       only_selected="false" />
    <inkscape:path-effect
       effect="bspline"
       id="path-effect901"
       is_visible="true"
       lpeversion="1"
       weight="33.333333"
       steps="2"
       helper_size="0"
       apply_no_weight="true"
       apply_with_weight="true"
       only_selected="false" />
    <inkscape:path-effect
       effect="bspline"
       id="path-effect897"
       is_visible="true"
       lpeversion="1"
       weight="33.333333"
       steps="2"
       helper_size="0"
       apply_no_weight="true"
       apply_with_weight="true"
       only_selected="false" />
    <inkscape:path-effect
       effect="bspline"
       id="path-effect893"
       is_visible="true"
       lpeversion="1"
       weight="33.333333"
       steps="2"
       helper_size="0"
       apply_no_weight="true"
       apply_with_weight="true"
       only_selected="false" />
    <inkscape:path-effect
       effect="bspline"
       id="path-effect889"
       is_visible="true"
       lpeversion="1"
       weight="33.333333"
       steps="2"
       helper_size="0"
       apply_no_weight="true"
       apply_with_weight="true"
       only_selected="false" />
    <inkscape:path-effect
       effect="bspline"
       id="path-effect885"
       is_visible="true"
       lpeversion="1"
       weight="33.333333"
       steps="2"
       helper_size="0"
       apply_no_weight="true"
       apply_with_weight="true"
       only_selected="false" />
    <inkscape:path-effect
       effect="bspline"
       id="path-effect881"
       is_visible="true"
       lpeversion="1"
       weight="33.333333"
       steps="2"
       helper_size="0"
       apply_no_weight="true"
       apply_with_weight="true"
       only_selected="false" />
  </defs>
  <sodipodi:namedview
     id="base"
     pagecolor="#ffffff"
     bordercolor="#666666"
     borderopacity="1.0"
     inkscape:pageopacity="0.0"
     inkscape:pageshadow="2"
     inkscape:zoom="3.959798"
     inkscape:cx="50.644062"
     inkscape:cy="67.183979"
     inkscape:document-units="mm"
     inkscape:current-layer="layer1"
     inkscape:document-rotation="0"
     showgrid="false"
     units="px"
     inkscape:window-width="1920"
     inkscape:window-height="1017"
     inkscape:window-x="1912"
     inkscape:window-y="-8"
     inkscape:window-maximized="1" />
  <metadata
     id="metadata29">
    <rdf:RDF>
      <cc:Work
         rdf:about="">
        <dc:format>image/svg+xml</dc:format>
        <dc:type
           rdf:resource="http://purl.org/dc/dcmitype/StillImage" />
        <dc:title></dc:title>
      </cc:Work>
    </rdf:RDF>
  </metadata>
  <g
     inkscape:label="Layer 1"
     inkscape:groupmode="layer"
     id="layer1">
    <path
       id="path923"
       style="fill:none;stroke:#000000;stroke-width:0.565;stroke-linecap:round;stroke-linejoin:round;stroke-miterlimit:4;stroke-dasharray:none;stroke-opacity:1"
       d="m 7.3905982,2.1843714 c 0.28053,-0.0076 0.560831,-0.01522 0.8409,-0.02282 m -4.3162,0.267993 c 0.435995,-0.05652 0.871769,-0.11302 1.25719,-0.15957 0.38542,-0.04655 0.720461,-0.08316 1.055284,-0.119737 m 6.1101548,7.9238776 c 0,0.289806 0,0.57935 0,0.868627 m -1.202713,-0.434314 c 0,0.289806 0,0.57935 0,0.868627 M 9.7988658,10.775698 c 0,0.289806 0,0.57935 0,0.868627 M 8.4625182,10.942741 c 0,0.289806 0,0.57935 0,0.868627 m -1.336348,-0.868627 c 0,0.289806 0,0.57935 0,0.868627 M 0.44443322,9.6398025 c 0.323245,0.245221 0.64619598,0.4902195 0.99143398,0.7073475 0.345237,0.217128 0.712726,0.406439 1.09136,0.556742 0.378635,0.150304 0.768395,0.261664 1.141462,0.367458 0.373066,0.105794 0.72942,0.206018 1.108036,0.267232 0.378617,0.06121 0.779514,0.08349 1.18014,0.105744 M 0.44443322,6.7666554 c 0.24526,0.24526 0.490259,0.490259 0.73527498,0.701825 0.245017,0.211567 0.490008,0.389742 0.790699,0.556748 0.300692,0.167006 0.657045,0.32291 0.985566,0.445387 0.32852,0.122476 0.629191,0.211564 1.030089,0.289491 0.400899,0.07793 0.902019,0.144744 1.458834,0.205987 0.556814,0.06124 1.169293,0.116923 1.820742,0.10576 0.651449,-0.01116 1.341882,-0.08911 1.9710646,-0.19492 0.629183,-0.105805 1.1971192,-0.239437 1.7260652,-0.406487 0.528946,-0.16705 1.018931,-0.367498 1.508792,-0.567895 M 0.51012822,4.1817894 c 0.275872,0.275874 0.55147998,0.551482 0.95311198,0.815225 0.401633,0.263743 0.929214,0.515722 1.488307,0.720426 0.559092,0.204703 1.149668,0.36219 1.775686,0.476344 0.626018,0.114155 1.287463,0.185024 2.000095,0.200751 0.712631,0.01573 1.476441,-0.02364 2.14576,-0.09453 0.6693186,-0.07088 1.2441478,-0.173251 1.7284028,-0.295315 0.484254,-0.122064 0.877973,-0.263803 1.236228,-0.433102 0.358255,-0.169299 0.681106,-0.366159 0.917321,-0.52364 0.236215,-0.157482 0.385828,-0.275598 0.543296,-0.425195 0.157468,-0.149597 0.32283,-0.330707 0.488208,-0.511835 m -2.56781,9.7383776 c -0.289373,0.08904 -0.578916,0.178127 -0.982583,0.261659 -0.4036672,0.08353 -0.9214942,0.161485 -1.6174968,0.211612 -0.696003,0.05013 -1.570181,0.0724 -2.430447,0.03623 -0.860266,-0.03617 -1.706601,-0.13083 -2.335791,-0.236597 -0.629189,-0.105768 -1.04122,-0.222696 -1.369743,-0.353501 -0.328524,-0.130805 -0.573516,-0.275572 -0.818519,-0.431469 -0.245002,-0.155897 -0.489996,-0.322939 -0.68770298,-0.50386 -0.197708,-0.180922 -0.348044,-0.375803 -0.428736,-0.476094 -0.08069,-0.100291 -0.09183,-0.105857 -0.09756,-1.58695 -0.0057,-1.4810926 -0.0057,-4.4377026 -0.003,-5.9494546 0.0028,-1.511752 0.0083,-1.578576 0.01946,-1.66211 0.01112,-0.08353 0.02783,-0.183761 0.208832,-0.367634 0.181003,-0.183872 0.52621898,-0.451135 0.89375798,-0.676659 0.367538,-0.225523 0.757298,-0.409266 1.208356,-0.567956 0.451057,-0.158689 0.963312,-0.292321 1.350322,-0.375834 0.387009,-0.08351 0.648705,-0.116921 1.380939,-0.150319 0.732233,-0.0334 1.934923,-0.06681 2.772953,-0.03893 0.8380286,0.02787 1.3113086,0.116962 1.8124478,0.22555 0.501139,0.108589 1.030099,0.236653 1.469985,0.39818 0.439887,0.161528 0.790672,0.356409 1.069067,0.537404 0.278395,0.180996 0.48441,0.348034 0.648639,0.512327 0.164228,0.164292 0.286723,0.325763 0.361913,0.420406 0.07519,0.09464 0.10303,0.122483 0.133526,0.696013 0.0305,0.573531 0.0639,1.6927 0.09731,2.811618 m -1.353035,0.167028 h 1.937705 v 5.7462956 l 0.751695,-0.751695 1.277884,1.277882 -2.939965,2.939966 -2.990077,-2.990078 1.186008,-1.186008 0.726638,0.726639 z" />
  </g>
</svg>
