<?xml version="1.0" encoding="UTF-8" standalone="no"?>
<svg
   xmlns:dc="http://purl.org/dc/elements/1.1/"
   xmlns:cc="http://creativecommons.org/ns#"
   xmlns:rdf="http://www.w3.org/1999/02/22-rdf-syntax-ns#"
   xmlns:svg="http://www.w3.org/2000/svg"
   xmlns="http://www.w3.org/2000/svg"
   xmlns:sodipodi="http://sodipodi.sourceforge.net/DTD/sodipodi-0.dtd"
   xmlns:inkscape="http://www.inkscape.org/namespaces/inkscape"
   width="64mm"
   height="64mm"
   viewBox="0 0 64 64"
   version="1.1"
   id="svg890"
   inkscape:version="1.0.1 (3bc2e813f5, 2020-09-07)"
   sodipodi:docname="video icon.svg">
  <defs
     id="defs884" />
  <sodipodi:namedview
     id="base"
     pagecolor="#ffffff"
     bordercolor="#666666"
     borderopacity="1.0"
     inkscape:pageopacity="0.0"
     inkscape:pageshadow="2"
     inkscape:zoom="2.8284271"
     inkscape:cx="96.595693"
     inkscape:cy="121.10694"
     inkscape:document-units="mm"
     inkscape:current-layer="layer1"
     inkscape:document-rotation="0"
     showgrid="false"
     inkscape:window-width="1624"
     inkscape:window-height="1020"
     inkscape:window-x="156"
     inkscape:window-y="0"
     inkscape:window-maximized="0" />
  <metadata
     id="metadata887">
    <rdf:RDF>
      <cc:Work
         rdf:about="">
        <dc:format>image/svg+xml</dc:format>
        <dc:type
           rdf:resource="http://purl.org/dc/dcmitype/StillImage" />
        <dc:title></dc:title>
      </cc:Work>
    </rdf:RDF>
  </metadata>
  <g
     inkscape:label="Layer 1"
     inkscape:groupmode="layer"
     id="layer1">
    <g
       id="g953"
       transform="matrix(0.39998504,0,0,0.39333395,-13.544338,-62.341728)"
       style="stroke-width:4.2859424;stroke-miterlimit:4;stroke-dasharray:none">
      <rect
         style="fill:none;stroke:#000000;stroke-width:4.2859424;stroke-linecap:round;stroke-linejoin:miter;stroke-miterlimit:4;stroke-dasharray:none"
         id="rect1453"
         width="89.158424"
         height="52.176483"
         x="70.037888"
         y="213.76323" />
      <g
         id="g924"
         style="stroke-width:4.2859424;stroke-miterlimit:4;stroke-dasharray:none">
        <path
           id="rect1477"
           style="fill:#000000;stroke:#000000;stroke-width:4.2859424;stroke-linecap:round;stroke-linejoin:round;stroke-miterlimit:4;stroke-dasharray:none"
           d="m 84.859473,195.85376 h 4.411254 v 7.9954 h -4.411254 z m 93.800007,1e-5 h 4.41126 v 7.9954 h -4.41126 z m -13.4,0 h 4.41125 v 7.9954 h -4.41125 z m -13.4,0 h 4.41126 v 7.9954 h -4.41126 z m -13.4,0 h 4.41125 v 7.9954 h -4.41125 z m -13.40001,0 h 4.41125 v 7.9954 h -4.41125 z m -13.39999,0 h 4.41126 v 7.9954 h -4.41126 z m -13.399995,0 h 4.411245 v 7.9954 h -4.411245 z m -26.800014,0 h 4.411255 v 7.9954 h -4.411255 z m -13.399994,0 h 4.411255 v 7.9954 h -4.411255 z m -13.400001,0 h 4.411254 v 7.9954 h -4.411254 z" />
        <g
           id="g917"
           transform="translate(3.7280548,27.494404)"
           style="stroke-width:4.2859424;stroke-miterlimit:4;stroke-dasharray:none">
          <path
             id="path1531"
             style="fill:#000000;stroke:#000000;stroke-width:4.2859424;stroke-linecap:round;stroke-linejoin:round;stroke-miterlimit:4;stroke-dasharray:none"
             d="m 81.13142,248.35937 h 4.411254 v 7.9954 H 81.13142 Z m 93.8,10e-6 h 4.41125 v 7.9954 h -4.41125 z m -13.4,0 h 4.41125 v 7.9954 h -4.41125 z m -13.4,0 h 4.41126 v 7.9954 h -4.41126 z m -13.4,0 h 4.41125 v 7.9954 h -4.41125 z m -13.40001,0 h 4.41125 v 7.9954 h -4.41125 z m -13.39999,0 h 4.41126 v 7.9954 h -4.41126 z m -13.39999,0 h 4.41125 v 7.9954 h -4.41125 z m -26.800012,0 h 4.411255 v 7.9954 h -4.411255 z m -13.399994,0 h 4.411255 v 7.9954 h -4.411255 z m -13.400001,0 h 4.411254 v 7.9954 h -4.411254 z" />
          <path
             id="rect836"
             style="fill:none;stroke:#000000;stroke-width:4.2859424;stroke-linecap:round;stroke-linejoin:round;stroke-miterlimit:4;stroke-dasharray:none"
             d="M 35.137046,162.35707 H 185.13705 v 100 H 35.137046 Z" />
        </g>
      </g>
      <path
         sodipodi:type="star"
         style="fill:none;stroke:#000000;stroke-width:4.2859424;stroke-linecap:round;stroke-linejoin:round;stroke-miterlimit:4;stroke-dasharray:none"
         id="path932"
         sodipodi:sides="3"
         sodipodi:cx="110.38806"
         sodipodi:cy="242.1947"
         sodipodi:r1="20.749083"
         sodipodi:r2="10.374541"
         sodipodi:arg1="0.57038328"
         sodipodi:arg2="1.6175808"
         inkscape:flatsided="false"
         inkscape:rounded="0"
         inkscape:randomized="0"
         d="m 127.85244,253.39827 -17.94957,-0.84038 -17.94957,-0.84037 9.70257,-15.1246 9.70257,-15.1246 8.247,15.96497 z"
         inkscape:transform-center-x="-5.1866922"
         inkscape:transform-center-y="0.00066348029"
         transform="rotate(-32.684241,105.91243,242.65561)" />
      <path
         style="fill:none;stroke:#000000;stroke-width:4.2859424;stroke-linecap:butt;stroke-linejoin:miter;stroke-miterlimit:4;stroke-dasharray:none;stroke-opacity:1"
         d="M 70.03769,213.78882 45.489101,213.57289 Z"
         id="path934" />
      <path
         style="fill:none;stroke:#000000;stroke-width:4.2859424;stroke-linecap:butt;stroke-linejoin:miter;stroke-miterlimit:4;stroke-dasharray:none;stroke-opacity:1"
         d="M 70.037888,265.9397 45.488499,265.8545 Z"
         id="path936"
         inkscape:transform-center-x="0.11650171"
         inkscape:transform-center-y="-0.11650171" />
      <path
         style="fill:none;stroke:#000000;stroke-width:4.2859424;stroke-linecap:butt;stroke-linejoin:miter;stroke-miterlimit:4;stroke-dasharray:none;stroke-opacity:1"
         d="M 183.7453,266.10445 159.19632,265.9397 Z"
         id="path938" />
      <path
         style="fill:none;stroke:#000000;stroke-width:4.2859424;stroke-linecap:butt;stroke-linejoin:miter;stroke-miterlimit:4;stroke-dasharray:none;stroke-opacity:1"
         d="m 183.74412,213.47116 -24.5478,0.29207 z"
         id="path940" />
    </g>
  </g>
</svg>
