<?xml version="1.0" encoding="UTF-8" standalone="no"?>
<!DOCTYPE svg PUBLIC "-//W3C//DTD SVG 1.1//EN" "http://www.w3.org/Graphics/SVG/1.1/DTD/svg11.dtd">
<svg version="1.1" xmlns="http://www.w3.org/2000/svg" xmlns:xlink="http://www.w3.org/1999/xlink" preserveAspectRatio="xMidYMid meet" viewBox="0 0 640 640" width="640" height="640"><defs><path d="M435.56 78.67L436.37 78.84L437.14 79.06L437.86 79.36L438.52 79.71L439.13 80.12L439.69 80.6L440.2 81.15L440.66 81.75L441.06 82.42L441.42 83.15L441.72 83.95L441.97 84.8L442.17 85.73L442.32 86.71L442.41 87.76L442.46 88.87L442.45 90.04L442.39 91.28L442.28 92.57L442.12 93.94L441.9 95.36L441.64 96.85L441.29 98.61L440.83 100.86L440.26 103.6L439.58 106.82L438.79 110.53L437.89 114.72L436.88 119.4L435.76 124.56L434.53 130.21L433.19 136.35L431.73 142.97L430.17 150.08L428.5 157.68L426.71 165.76L424.82 174.33L422.81 183.38L420.69 192.92L418.47 202.95L416.13 213.46L413.68 224.46L411.12 235.94L408.45 247.91L405.67 260.37L402.78 273.31L399.78 286.74L396.66 300.65L393.44 315.05L390.11 329.94L386.66 345.31L383.11 361.17L379.44 377.51L375.67 394.34L371.78 411.66L367.78 429.46L363.67 447.75L359.46 466.52L355.13 485.79L350.69 505.53L346.14 525.76L341.47 546.48L341.45 547.01L341.39 547.53L341.32 548.05L341.22 548.55L341.09 549.05L340.95 549.54L340.77 550.02L340.58 550.49L340.36 550.96L340.12 551.42L339.86 551.87L339.57 552.31L339.25 552.75L338.92 553.17L338.56 553.59L338.18 554L337.77 554.41L337.34 554.81L336.88 555.19L336.41 555.57L335.91 555.95L335.38 556.31L334.83 556.67L334.26 557.02L333.66 557.36L333.04 557.69L332.4 558.02L331.74 558.34L331.05 558.65L330.33 558.95L329.59 559.25L329.2 559.4L328.88 559.74L327.98 560.15L327.03 560.37L326.1 560.56L325.18 560.74L324.93 560.79L324.68 560.86L323.77 561.1L322.85 561.33L321.9 561.55L320.91 561.57L320.48 561.41L320.05 561.44L319.26 561.5L318.49 561.54L317.73 561.56L316.99 561.57L316.27 561.56L315.57 561.53L314.88 561.48L314.22 561.41L313.57 561.33L312.93 561.23L312.32 561.12L311.72 560.98L311.15 560.83L310.59 560.66L310.04 560.48L309.52 560.28L309.01 560.06L308.52 559.82L308.05 559.56L307.6 559.29L307.16 559L306.75 558.7L306.35 558.37L305.96 558.03L305.6 557.67L305.25 557.3L304.92 556.9L304.61 556.49L304.32 556.06L304.05 555.62L303.79 555.16L290.54 538.56L277.6 522.35L264.98 506.53L252.66 491.1L240.66 476.06L228.97 461.41L217.59 447.15L206.53 433.27L195.77 419.78L185.33 406.69L175.2 393.98L165.39 381.66L155.88 369.73L146.69 358.18L137.8 347.03L129.23 336.27L120.98 325.89L113.03 315.9L105.4 306.3L98.07 297.1L91.06 288.27L84.37 279.84L77.98 271.8L71.91 264.14L66.14 256.88L60.69 250L55.55 243.51L50.73 237.41L46.21 231.7L42.01 226.38L38.12 221.45L34.54 216.91L31.28 212.75L28.32 208.98L25.68 205.61L23.35 202.62L21.33 200.02L19.62 197.8L18.23 195.98L17.15 194.55L16.26 193.33L15.44 192.14L14.7 190.98L14.03 189.86L13.44 188.78L12.92 187.73L12.47 186.71L12.1 185.73L11.8 184.78L11.58 183.86L11.43 182.98L11.35 182.13L11.35 181.32L11.43 180.54L11.57 179.8L11.79 179.09L12.09 178.41L12.46 177.77L12.9 177.16L13.41 176.59L14 176.05L14.67 175.54L15.41 175.07L16.22 174.63L17.11 174.23L18.07 173.86L19.1 173.53L20.21 173.23L21.39 172.96L22.65 172.73L23.98 172.53L25.38 172.37L26.86 172.24L28.41 172.14L30.04 172.08L31.74 172.05L33.51 172.06L35.36 172.1L37.29 172.18L39.28 172.28L251.2 240.46L411.99 86.5L413.74 85.53L415.44 84.62L417.08 83.78L418.68 83L420.22 82.28L421.71 81.62L423.14 81.03L424.53 80.5L425.87 80.03L427.15 79.63L428.38 79.29L429.56 79.01L430.69 78.8L431.77 78.65L432.79 78.56L433.76 78.53L434.69 78.57L435.56 78.67Z" id="b3eLhFgD6R"></path><path d="M207.84 78.53L208.92 78.68L210.05 78.89L211.23 79.16L212.46 79.5L213.75 79.9L215.08 80.36L216.47 80.88L217.91 81.47L219.4 82.12L220.95 82.83L222.54 83.61L224.19 84.45L225.89 85.35L227.64 86.31L389.03 239.65L600.68 170.66L602.68 170.54L604.6 170.46L606.45 170.41L608.22 170.4L609.92 170.42L611.55 170.47L613.1 170.56L614.58 170.69L615.99 170.84L617.32 171.04L618.57 171.26L619.76 171.53L620.87 171.82L621.9 172.15L622.87 172.52L623.75 172.92L624.57 173.35L625.31 173.82L625.97 174.32L626.57 174.86L627.09 175.43L627.53 176.04L627.9 176.68L628.2 177.35L628.42 178.06L628.57 178.81L628.65 179.58L628.65 180.4L628.57 181.24L628.43 182.13L628.21 183.04L627.91 183.99L627.55 184.98L627.1 186L626.59 187.05L626 188.14L625.34 189.26L624.6 190.42L623.79 191.61L622.9 192.83L621.83 194.27L620.44 196.1L618.74 198.32L616.73 200.93L614.41 203.92L611.78 207.31L608.84 211.09L605.59 215.26L602.03 219.82L598.16 224.76L593.98 230.1L589.49 235.83L584.68 241.95L579.57 248.46L574.15 255.35L568.41 262.64L562.37 270.32L556.01 278.39L549.35 286.85L542.37 295.69L535.09 304.93L527.49 314.56L519.58 324.58L511.36 334.98L502.83 345.78L494 356.97L484.85 368.55L475.39 380.51L465.62 392.87L455.54 405.62L445.14 418.76L434.44 432.29L423.43 446.2L412.11 460.51L400.48 475.21L388.53 490.3L376.28 505.77L363.71 521.64L350.84 537.9L337.65 554.55L337.4 555.01L337.12 555.46L336.83 555.88L336.52 556.3L336.2 556.69L335.85 557.07L335.49 557.43L335.11 557.77L334.71 558.1L334.29 558.4L333.86 558.7L333.41 558.97L332.94 559.23L332.45 559.47L331.94 559.69L331.42 559.89L330.88 560.08L330.32 560.25L329.74 560.4L329.14 560.54L328.53 560.66L327.9 560.76L327.25 560.84L326.58 560.91L325.9 560.96L325.2 560.99L324.48 561.01L323.74 561.01L322.98 560.99L322.21 560.95L321.41 560.9L320.99 560.86L320.55 561.03L319.57 561.01L318.62 560.79L317.69 560.56L316.79 560.33L316.54 560.26L316.28 560.21L315.37 560.04L314.43 559.84L313.48 559.64L312.58 559.22L312.26 558.89L311.86 558.74L311.13 558.44L310.41 558.14L309.72 557.84L309.05 557.52L308.41 557.2L307.79 556.87L307.19 556.53L306.62 556.18L306.07 555.82L305.54 555.46L305.04 555.09L304.56 554.71L304.1 554.32L303.67 553.93L303.26 553.53L302.88 553.12L302.52 552.7L302.18 552.27L301.87 551.84L301.57 551.4L301.31 550.95L301.06 550.49L300.84 550.02L300.65 549.55L300.48 549.07L300.33 548.58L300.2 548.08L300.1 547.58L300.02 547.07L299.97 546.55L299.93 546.02L295.19 525.32L290.57 505.1L286.05 485.37L281.65 466.13L277.35 447.37L273.18 429.1L269.11 411.31L265.16 394.01L261.32 377.19L257.59 360.86L253.97 345.02L250.47 329.66L247.08 314.79L243.8 300.4L240.63 286.5L237.58 273.08L234.64 260.15L231.81 247.71L229.09 235.75L226.49 224.27L224 213.28L221.62 202.78L219.35 192.76L217.2 183.23L215.16 174.19L213.23 165.63L211.41 157.55L209.71 149.96L208.12 142.86L206.64 136.24L205.27 130.11L204.02 124.46L202.88 119.3L201.85 114.63L200.93 110.44L200.13 106.73L199.44 103.52L198.86 100.78L198.39 98.54L198.04 96.77L197.77 95.29L197.55 93.86L197.38 92.5L197.27 91.2L197.2 89.97L197.19 88.79L197.23 87.68L197.32 86.64L197.46 85.65L197.66 84.73L197.91 83.87L198.21 83.08L198.56 82.34L198.96 81.67L199.41 81.06L199.92 80.52L200.48 80.04L201.09 79.62L201.75 79.26L202.47 78.97L203.23 78.74L204.05 78.57L204.92 78.47L205.84 78.43L206.81 78.45L207.84 78.53Z" id="bNmUTvdyB"></path><path d="M322.13 561.5L321.33 561.45L321.07 561.44L320.89 561.44L320.99 561.4L321.41 561.44L322.16 561.49L322.16 561.49L322.13 561.5ZM304.56 555.26L305.04 555.63L305.54 556L306.07 556.37L306.62 556.72L307.19 557.07L307.79 557.41L308.41 557.74L309.05 558.07L309.72 558.38L310.41 558.69L311.13 558.99L311.86 559.28L312.26 559.43L312.58 559.77L313.48 560.18L314.43 560.39L315.37 560.58L316.28 560.76L316.54 560.8L316.79 560.87L317.69 561.11L318.62 561.34L319.13 561.46L318.92 561.46L317.94 561.44L316.99 561.22L316.61 560.95L316.18 560.88L315.4 560.75L314.64 560.6L313.9 560.43L313.18 560.26L312.49 560.07L311.81 559.87L311.16 559.65L310.53 559.43L309.92 559.19L309.33 558.94L308.77 558.68L308.22 558.4L307.7 558.11L307.19 557.81L306.71 557.5L306.25 557.18L305.82 556.84L305.4 556.49L305.01 556.13L304.63 555.75L304.28 555.37L303.95 554.97L303.64 554.56L303.42 554.23L303.67 554.47L304.1 554.87L304.1 554.87L304.56 555.26ZM231.81 248.25L234.64 260.7L237.58 273.63L240.63 287.04L243.8 300.95L247.08 315.33L250.47 330.21L253.97 345.56L257.59 361.41L261.32 377.74L265.16 394.56L269.11 411.86L273.18 429.64L277.35 447.92L281.65 466.67L286.05 485.92L290.57 505.65L295.19 525.86L299.85 546.2L293.16 531.48L284.57 512.6L276.2 494.18L268.03 476.21L260.07 458.69L252.32 441.62L244.77 425.01L237.43 408.85L230.3 393.14L223.38 377.89L216.66 363.09L210.15 348.75L203.85 334.85L197.76 321.42L191.87 308.43L186.19 295.9L180.72 283.82L175.46 272.19L170.4 261.02L165.55 250.3L160.91 240.03L156.47 230.22L152.25 220.86L148.23 211.95L145.8 206.55L228.37 233.12L229.09 236.29L229.09 236.29L231.81 248.25ZM418.47 202.95L416.13 213.46L413.68 224.46L411.83 232.76L389.03 240.2L361.28 213.83L423.96 178.21L422.81 183.38L420.69 192.92L420.69 192.92L418.47 202.95Z" id="m2vIXQ4mH"></path></defs><g><g><g><use xlink:href="#b3eLhFgD6R" opacity="0.7" fill="#00b3ff" fill-opacity="1"></use></g><g><use xlink:href="#bNmUTvdyB" opacity="0.89" fill="#fc5d60" fill-opacity="1"></use></g><g><use xlink:href="#m2vIXQ4mH" opacity="0.43" fill="#9b6a6b" fill-opacity="1"></use></g></g></g></svg>