<?xml version="1.0" encoding="UTF-8" standalone="no"?>
<svg
   xmlns:dc="http://purl.org/dc/elements/1.1/"
   xmlns:cc="http://creativecommons.org/ns#"
   xmlns:rdf="http://www.w3.org/1999/02/22-rdf-syntax-ns#"
   xmlns:svg="http://www.w3.org/2000/svg"
   xmlns="http://www.w3.org/2000/svg"
   xmlns:sodipodi="http://sodipodi.sourceforge.net/DTD/sodipodi-0.dtd"
   xmlns:inkscape="http://www.inkscape.org/namespaces/inkscape"
   width="50"
   height="50"
   viewBox="0 0 13.229166 13.229167"
   version="1.1"
   id="svg943"
   inkscape:version="1.0.1 (3bc2e813f5, 2020-09-07)"
   sodipodi:docname="Qr_code.svg">
  <defs
     id="defs937" />
  <sodipodi:namedview
     id="base"
     pagecolor="#ffffff"
     bordercolor="#666666"
     borderopacity="1.0"
     inkscape:pageopacity="0.0"
     inkscape:pageshadow="2"
     inkscape:zoom="14.481547"
     inkscape:cx="27.746161"
     inkscape:cy="27.490821"
     inkscape:document-units="mm"
     inkscape:current-layer="layer1"
     inkscape:document-rotation="0"
     showgrid="false"
     units="px"
     inkscape:window-width="1920"
     inkscape:window-height="1017"
     inkscape:window-x="1912"
     inkscape:window-y="-8"
     inkscape:window-maximized="1" />
  <metadata
     id="metadata940">
    <rdf:RDF>
      <cc:Work
         rdf:about="">
        <dc:format>image/svg+xml</dc:format>
        <dc:type
           rdf:resource="http://purl.org/dc/dcmitype/StillImage" />
        <dc:title></dc:title>
      </cc:Work>
    </rdf:RDF>
  </metadata>
  <g
     inkscape:label="Layer 1"
     inkscape:groupmode="layer"
     id="layer1">
    <path
       id="path1025"
       style="fill:none;stroke:#000000;stroke-width:0.546624;stroke-linecap:butt;stroke-linejoin:miter;stroke-miterlimit:4;stroke-dasharray:none;stroke-opacity:1"
       d="m 10.335365,7.55617 0.03038,1.5490616 h 2.460274 V 6.660144 H 11.580691 V 7.5409832 Z M 7.8447176,10.380929 V 9.1052316 H 10.365739 V 10.396116 Z M 5.3388827,5.36926 H 2.5748708 v 1.2453235 h 1.5490617 v 1.2605107 h 1.2301371 z m 1.2605107,0 H 10.335365 V 7.55617 H 8.8014907 V 6.6297703 H 6.5842066 Z M 5.338883,3.8050111 H 6.5993934 V 5.3692599 H 5.3388828 Z M 6.5993937,2.2407623 H 7.8599042 V 3.8050111 H 6.5993934 Z m 3.9022913,8.2791317 v 2.185362 h 2.185364 V 10.573853 Z M 1.6484712,10.396116 v 1.230137 H 2.8786085 V 10.42649 Z m 0,0 v 1.230137 H 2.8786085 V 10.42649 Z M 0.40314725,9.1356053 V 12.826016 H 4.0935581 V 9.1356053 Z M 1.6484712,10.396116 v 1.230137 H 2.8786085 V 10.42649 Z m 0,0 v 1.230137 H 2.8786085 V 10.42649 Z M 0.40314725,9.1356053 V 12.826016 H 4.0935581 V 9.1356053 Z M 10.365739,1.6636613 v 1.230137 h 1.230137 V 1.6940351 Z m 0,0 v 1.230137 h 1.230137 V 1.6940351 Z M 9.1204153,0.40315039 V 4.0935617 H 12.810826 V 0.40315039 Z M 10.365739,1.6636613 v 1.230137 h 1.230137 V 1.6940351 Z M 6.6145803,10.350555 v 1.230136 H 7.8447176 V 10.380929 Z M 1.3295468,6.6449573 V 7.8750942 H 2.5596841 V 6.675331 Z M 1.6484712,1.6788482 v 1.230137 H 2.8786085 V 1.709222 Z M 0.40314725,0.41833726 V 4.1087486 H 4.0935581 V 0.41833726 Z M 5.3692564,1.0106255 V 2.2407624 H 6.5993937 V 1.0409992 Z m 4.9964826,0.6530358 v 1.230137 h 1.230137 V 1.6940351 Z M 9.1204153,0.40315039 V 4.0935617 H 12.810826 V 0.40315039 Z" />
  </g>
</svg>
